<svg preserveAspectRatio="none" width="100%" height="100%" overflow="visible" style="display: block;" viewBox="0 0 48 48" fill="none" xmlns="http://www.w3.org/2000/svg">
<g id="Topical Icons">
<path id="icon/secure &#38; monitored" d="M43.1712 0H4.82883C2.16216 0 0 2.16216 0 4.82883V35.3586H11.8775C12.9009 35.3586 13.7225 34.5369 13.7225 33.5135V26.4793L5.29009 22.1261C4.38198 21.6505 4.02162 20.5261 4.48288 19.618L11.445 6.14054C11.9207 5.23243 13.045 4.87207 13.9532 5.33333L34.2631 15.827C35.1712 16.3027 35.5315 17.427 35.0703 18.3351L28.1081 31.8126C27.6324 32.7207 26.5081 33.0811 25.6 32.6198L18.0468 28.7135V33.5135C18.0468 36.9153 15.2793 39.6829 11.8775 39.6829H0V43.1712C0 45.8378 2.16216 48 4.82883 48H43.1712C45.8378 48 48 45.8378 48 43.1712V4.82883C48 2.16216 45.8378 0 43.1712 0ZM44.7856 23.1351L37.6505 36.9586C37.3045 37.636 36.3532 37.7225 35.8919 37.1027L31.7694 31.5243C31.5387 31.2072 31.4955 30.7892 31.6829 30.4288L36.0072 22.0685C36.1946 21.7225 36.555 21.5063 36.9441 21.5063L43.8775 21.636C44.6414 21.636 45.1315 22.4721 44.7856 23.1495V23.1351Z" fill="var(--fill-0, #F5A623)"/>
</g>
</svg>
