<svg preserveAspectRatio="none" width="100%" height="100%" overflow="visible" style="display: block;" viewBox="0 0 48 48" fill="none" xmlns="http://www.w3.org/2000/svg">
<g id="Topical Icons">
<path id="icon/real time availability" d="M43.1712 0H4.82882C2.16215 0 0 2.16216 0 4.82883V43.1712C0 45.8378 2.16215 48 4.82882 48H43.1712C45.8379 48 48 45.8378 48 43.1712V4.82883C48 2.16216 45.8379 0 43.1712 0ZM24.0577 39.5387C21.5063 39.5676 19.0414 38.9477 16.7928 37.7658C15.8414 37.2757 14.9766 36.7279 14.1694 36.036L13.636 35.5892L12.3531 34.3063L12.0216 33.9171L11.5315 33.2973L11.2 32.836C10.6955 32.1297 10.2919 31.409 9.91711 30.6162C7.95674 26.436 7.95675 21.6504 9.9027 17.4559C10.4072 16.3604 11.2288 15.0486 11.9928 14.155L12.3676 13.7225C12.7712 13.2468 13.2036 12.8144 13.6793 12.4108L14.1405 12.0072C14.991 11.2721 16.245 10.4937 17.2829 10.0036C21.3477 8.05766 26.0468 7.95676 30.1694 9.75856C31.5243 10.3495 33.2397 11.3874 34.2775 12.382L35.1135 13.1748L36.5261 11.7622C36.6991 11.5892 36.973 11.5459 37.1892 11.6324C37.391 11.7189 37.5784 11.9351 37.5784 12.209V17.1676C37.5784 17.4991 37.3045 17.8018 36.9586 17.8018H32C31.7405 17.8018 31.5387 17.6577 31.4378 17.427C31.3658 17.2541 31.3802 16.9658 31.5099 16.8216L32.9081 15.3946L32.6054 15.1063L31.9568 14.5297C28.4252 11.5748 23.582 10.782 19.3009 12.5261C14.818 14.3568 11.7622 18.6234 11.5603 23.4955C11.4739 25.4703 11.8342 27.3586 12.6414 29.1459C14.645 33.5712 19.0414 36.4685 23.9135 36.4829C24.7928 36.4829 25.4847 37.1315 25.5279 37.982C25.5568 38.8036 24.9225 39.582 24.0432 39.582L24.0577 39.5387ZM29.9099 24.9225C29.5928 25.3405 29.1459 25.5568 28.6559 25.5568H24.0721C23.1351 25.5568 22.4577 24.8793 22.4577 23.9423V16.3027C22.4577 15.3946 23.1063 14.7027 23.9856 14.6883C24.8216 14.6739 25.5568 15.3369 25.5568 16.245V22.4577H28.6559C29.2613 22.4577 29.7658 22.7892 30.0252 23.2504C30.3279 23.7838 30.2847 24.4324 29.9243 24.9225H29.9099ZM32.6919 36.8577C31.582 37.636 30.3856 38.1982 29.1171 38.6595C28.627 38.8324 28.0937 38.7315 27.6901 38.3856C27.2432 38.0108 27.027 37.4775 27.1279 36.9009C27.2144 36.4108 27.5604 35.9351 28.0937 35.7333C29.0883 35.373 30.0108 34.9117 30.9045 34.3207C31.6108 33.8595 32.5333 34.0324 33.009 34.6955C33.4847 35.3441 33.3982 36.3387 32.6919 36.8432V36.8577ZM37.9387 30.8468C37.6072 31.4955 37.2757 32.1153 36.8577 32.7063C36.5982 33.0667 36.1225 33.2541 35.6613 33.2973C34.9982 33.3405 34.4649 32.9658 34.2198 32.418C33.9748 31.8847 34.1045 31.3369 34.3928 30.8468L35.1279 29.564C35.4451 29.0162 35.964 28.6559 36.5838 28.6703C37.1892 28.6847 37.7658 29.0595 37.9964 29.6649C38.1406 30.0396 38.1406 30.4721 37.9532 30.8468H37.9387ZM39.4523 25.6288C39.4378 25.9315 39.3514 26.2342 39.2072 26.5081C38.9333 27.0126 38.227 27.2432 37.6072 27.1135C36.8 26.955 36.3099 26.2342 36.3532 25.4126L36.4252 24C36.4685 23.1207 37.1315 22.4577 37.9676 22.4577C38.8036 22.4577 39.5676 23.1207 39.5243 24L39.4379 25.6144L39.4523 25.6288Z" fill="var(--fill-0, #F5A623)"/>
</g>
</svg>
