<svg preserveAspectRatio="none" width="100%" height="100%" overflow="visible" style="display: block;" viewBox="0 0 48 48" fill="none" xmlns="http://www.w3.org/2000/svg">
<g id="Topical Icons">
<g id="icon/professional service">
<path d="M29.3478 22.746H25.6722C25.5568 22.746 25.4415 22.6739 25.3983 22.5586L24.2595 19.0559C24.1731 18.7965 23.8127 18.7965 23.7262 19.0559L22.5875 22.5586C22.5442 22.6739 22.4433 22.746 22.3136 22.746H18.6379C18.3641 22.746 18.2487 23.092 18.4794 23.2505L21.4487 25.4127C21.5496 25.4848 21.5929 25.6145 21.5496 25.7298L20.4109 29.2325C20.3244 29.492 20.6271 29.7082 20.8433 29.5496L23.8127 27.3875C23.9136 27.3154 24.0433 27.3154 24.1442 27.3875L27.1136 29.5496C27.3298 29.7082 27.6325 29.492 27.546 29.2325L26.4073 25.7298C26.3641 25.6145 26.4073 25.4848 26.5082 25.4127L29.4776 23.2505C29.6938 23.092 29.5785 22.746 29.319 22.746H29.3478Z" fill="var(--fill-0, #F5A623)"/>
<path d="M43.1712 0H4.82883C2.16216 0 0 2.16216 0 4.82883V43.1712C0 45.8378 2.16216 48 4.82883 48H43.1712C45.8378 48 48 45.8378 48 43.1712V4.82883C48 2.16216 45.8378 0 43.1712 0ZM37.3766 25.7874C37.3766 26.1622 37.1171 26.4505 36.7712 26.5514L33.8306 27.2721C33.8306 27.2721 33.6865 27.3441 33.6721 27.3874L33.3838 28.1658L33.0667 28.8577C33.0667 28.8577 33.0667 29.0306 33.0955 29.0739L34.4504 31.3225C34.609 31.6829 34.5514 32.0144 34.2775 32.2883L32.1153 34.4504C31.8559 34.7099 31.4955 34.7387 31.1784 34.5946L28.9586 33.2541C28.9586 33.2541 28.7712 33.1964 28.7135 33.2252L27.9928 33.5712L27.1856 33.8739C27.1856 33.8739 27.0703 33.9892 27.0703 34.0324L26.3496 36.973C26.2487 37.3189 25.9604 37.5784 25.5856 37.5784H22.4577C22.0973 37.5784 21.7802 37.3189 21.6937 36.973L20.973 34.0324C20.973 34.0324 20.8865 33.8883 20.8432 33.8739L20.036 33.5712L19.2288 33.1964L16.9658 34.5514C16.6342 34.7532 16.245 34.6955 15.9712 34.436L13.7802 32.245C13.5207 31.9856 13.4919 31.6108 13.6505 31.2937L14.9622 29.1027C14.9622 29.1027 14.991 28.9441 14.9766 28.9153L14.645 28.1946L14.3423 27.4018C14.3423 27.4018 14.227 27.2721 14.1838 27.2721L11.2432 26.5514C10.8973 26.4649 10.6378 26.1477 10.6378 25.7874V22.6595C10.6378 22.2847 10.8973 21.9964 11.2432 21.8955L14.2126 21.1604C14.2126 21.1604 14.3279 21.0595 14.3423 21.0306L14.5874 20.3532L14.8468 19.7766C14.8468 19.7766 14.8901 19.6468 14.8901 19.6036L13.3766 17.0811C13.218 16.764 13.2324 16.3892 13.4919 16.1153L15.7117 13.8955C15.9712 13.636 16.3748 13.6072 16.6631 13.7802L18.9838 15.164C19.0559 15.2216 19.1856 15.236 19.2577 15.1928L19.9784 14.8468L20.8288 14.5297C20.8288 14.5297 20.9441 14.4144 20.9441 14.3712L21.6649 11.4306C21.7658 11.0847 22.0541 10.8252 22.4288 10.8252H25.5568C25.9315 10.8252 26.2198 11.0847 26.3207 11.4306L27.0414 14.3712C27.0414 14.3712 27.1135 14.5153 27.1568 14.5297L27.964 14.8324L28.627 15.1351C28.627 15.1351 28.8144 15.1351 28.9009 15.1063L31.1496 13.7514C31.4523 13.6072 31.827 13.6216 32.0721 13.8667L34.3063 16.1153C34.5514 16.3748 34.5802 16.7784 34.4072 17.0667L33.0378 19.3586C33.0378 19.3586 33.009 19.4739 33.0378 19.5027L33.3694 20.2234L33.6721 21.0306C33.6721 21.0306 33.8018 21.1459 33.8306 21.1459L36.7712 21.8667C37.1171 21.9676 37.3766 22.2559 37.3766 22.6306V25.7874Z" fill="var(--fill-0, #F5A623)"/>
</g>
</g>
</svg>
