<svg preserveAspectRatio="none" width="100%" height="100%" overflow="visible" style="display: block;" viewBox="0 0 48 48" fill="none" xmlns="http://www.w3.org/2000/svg">
<g id="Topical Icons">
<path id="`" d="M43.1712 0H4.82884C2.16217 0 0 2.16216 0 4.82883V43.1712C0 45.8378 2.16217 48 4.82884 48H43.1712C45.8378 48 48 45.8378 48 43.1712V4.82883C48 2.16216 45.8378 0 43.1712 0ZM23.7694 11.4595L24.9369 10.2775C25.3117 9.9027 25.9315 9.94595 26.2919 10.2775C26.6811 10.6378 26.7532 11.2865 26.3496 11.6901L25.2252 12.8144C24.8216 13.218 24.2018 13.1748 23.827 12.8144C23.4811 12.4829 23.3802 11.8342 23.7694 11.4595ZM20.3243 6.78919C20.8288 6.83243 21.2324 7.26486 21.2324 7.7982V12.0649C21.2324 12.5405 20.9586 12.9153 20.5261 13.0739C20.2378 13.1748 19.9207 13.1171 19.6469 12.9441C19.4451 12.8144 19.2144 12.4973 19.2144 12.1802V7.7982C19.2144 7.17838 19.7333 6.74595 20.3243 6.8036V6.78919ZM14.1117 10.3063C14.4432 9.96036 15.0775 9.88829 15.4811 10.2631C15.8847 10.6378 16.2739 11.027 16.6631 11.4595C17.0523 11.8775 16.9513 12.4973 16.591 12.8288C16.2162 13.1748 15.5964 13.218 15.2072 12.8288L14.0973 11.7189C13.7081 11.3297 13.7369 10.7099 14.1117 10.3207V10.3063ZM28.2378 40.4036C27.7333 40.9081 27.0847 41.2108 26.3496 41.2108H16.3459C16.0721 41.2108 15.8126 41.0811 15.6252 40.9081L10.1189 35.3874C9.75855 35.027 9.85943 34.3928 10.191 34.0613L12.627 31.6252C12.627 31.6252 12.7568 31.4667 12.8 31.3802V17.1964C12.8 16.7928 12.9874 16.4324 13.3477 16.2739C14.8324 15.6252 16.5621 16.5477 16.9081 18.0324L18.0901 23.1063C18.1333 23.2793 18.2631 23.4955 18.3784 23.6108L19.3441 24.591C21.2901 26.6667 21.1892 29.8811 19.1856 31.8703C18.9982 32.0432 18.9261 32.3748 18.9405 32.6054C18.9694 33.0378 19.2721 33.3694 19.5892 33.4847C20.0072 33.6432 20.4397 33.5135 20.7279 33.1964C21.1892 32.6919 21.5928 32.173 21.9243 31.5676C23.4667 28.6847 22.9045 25.1676 20.5117 22.8757L33.0378 10.3495C33.5135 9.87387 34.2198 9.88829 34.7676 10.2054C35.5027 10.6234 35.7622 11.7622 35.1135 12.4252L25.4126 22.1405C24.3892 23.164 24.0865 24.6198 24.6342 25.9892C25.1243 27.1856 26.3207 28.0793 27.7189 28.1225L27.8775 28.209C27.9207 30.155 29.4775 31.6541 31.3946 31.6396C31.3946 33.009 32.173 34.1766 33.3694 34.8108L33.6721 34.9694L28.2378 40.4036ZM30.2414 27.2144L32.9946 24.4468C33.5567 23.8847 34.4649 23.9423 34.9982 24.4468C35.5604 24.9802 35.6468 25.9315 35.0703 26.5081L32.3315 29.2469C31.755 29.8234 30.8613 29.7081 30.3423 29.2324C29.7946 28.7135 29.6793 27.7766 30.2414 27.2V27.2144ZM28.9297 25.6577C28.3243 26.2631 27.4595 26.2919 26.8541 25.7441C26.3063 25.2541 26.1622 24.2739 26.7387 23.6973L30.3568 20.0649C30.9333 19.4883 31.8703 19.5604 32.4036 20.1081C32.9802 20.6991 32.9513 21.6072 32.3603 22.1982L28.9153 25.6432L28.9297 25.6577ZM37.6793 30.9477L35.8775 32.7495C35.3009 33.3261 34.3928 33.2685 33.845 32.7495C33.2829 32.2162 33.2108 31.2793 33.7874 30.7027L35.6757 28.8288C36.2379 28.2811 37.1604 28.3964 37.6649 28.8865C38.2415 29.4631 38.2558 30.3856 37.6793 30.9622V30.9477Z" fill="var(--fill-0, #F5A623)"/>
</g>
</svg>
