<svg preserveAspectRatio="none" width="100%" height="100%" overflow="visible" style="display: block;" viewBox="0 0 48 48" fill="none" xmlns="http://www.w3.org/2000/svg">
<g id="Topical Icons">
<path id="icon/engaged tenants" d="M43.1712 0H4.82884C2.16217 0 0 2.16216 0 4.82883V43.1712C0 45.8378 2.16217 48 4.82884 48H43.1712C45.8379 48 48 45.8378 48 43.1712V4.82883C48 2.16216 45.8379 0 43.1712 0ZM35.0559 36.9153C34.7388 37.2901 34.2775 37.4631 33.773 37.3333C33.3982 37.2468 32.9802 36.9009 32.8937 36.4396L32.591 34.9261L32.5334 34.8685C27.1135 39.164 19.3586 38.7748 14.3856 33.9748C10.7964 30.5153 9.35495 25.3982 10.6234 20.5117C10.8396 19.6613 11.6757 19.1712 12.5117 19.4018C13.3189 19.618 13.8234 20.4396 13.5928 21.3045C12.6847 24.7784 13.564 28.4396 15.9279 31.1207L16.9225 32.1153C20.627 35.3297 25.9892 35.6613 30.0541 32.8937C30.0541 32.8504 30.0685 32.8072 30.0541 32.8216L29.1604 32.6486C28.3964 32.5045 27.9207 31.7261 28.209 30.9766C28.4252 30.4288 28.973 30.0829 29.5784 30.155L34.2342 30.6739C34.5514 30.7027 34.7964 30.9333 34.8252 31.2216L35.3441 35.8342C35.3874 36.2378 35.3009 36.6126 35.0415 36.9297L35.0559 36.9153ZM37.3766 27.5459C37.1604 28.3676 36.3099 28.8144 35.5027 28.6126C34.7243 28.4108 34.2054 27.6036 34.4072 26.7676C34.6667 25.6865 34.8108 24.6342 34.7531 23.5243C34.6378 21.0595 33.7153 18.7387 32.0865 16.8937C28.5117 12.8288 22.4721 12.0505 17.9892 15.0919L17.9315 15.1784L18.8397 15.3514C19.546 15.4811 20.0072 16.1441 19.8343 16.8649C19.6757 17.4991 19.0703 17.9171 18.4072 17.845L13.7225 17.3261C13.4342 17.2973 13.1892 17.0667 13.1604 16.7784L12.6559 12.2234C12.6126 11.8054 12.6703 11.4162 12.9585 11.0847C13.2757 10.7099 13.7369 10.5514 14.2415 10.6667C14.6162 10.7532 15.0342 11.0991 15.1207 11.5604L15.4234 13.0883C15.4234 13.0883 15.4811 13.1027 15.5099 13.1171C18.2631 10.9694 21.7081 9.9027 25.2108 10.2054C28.7712 10.5081 32.0577 12.1802 34.4072 14.8613C37.4487 18.3207 38.5586 23.0775 37.3622 27.5315L37.3766 27.5459Z" fill="var(--fill-0, #1E4ED8)"/>
</g>
</svg>
