<svg preserveAspectRatio="none" width="100%" height="100%" overflow="visible" style="display: block;" viewBox="0 0 32.9374 40" fill="none" xmlns="http://www.w3.org/2000/svg">
<g id="Logo Mark">
<path id="Vector" opacity="0.3" d="M1.54597 17.086C1.57695 17.7444 1.75896 18.9991 1.7667 19.0688H0.178965C-0.351572 15.2892 0.295141 11.5599 2.15009 8.31861H3.854C2.23528 10.9248 1.40269 13.9841 1.54984 17.086H1.54597Z" fill="var(--fill-0, #1E4ED8)"/>
<path id="Vector_2" opacity="0.6" d="M3.16856 17.086C3.19954 17.7366 3.37768 18.9719 3.3893 19.0649H1.77058C1.76283 19.0029 1.58082 17.7482 1.54984 17.086C1.40269 13.9803 2.23528 10.9209 3.85787 8.31861H5.47659C3.854 10.9248 3.02528 13.9841 3.17243 17.086H3.16856Z" fill="var(--fill-0, #1E4ED8)"/>
<path id="Vector_3" d="M11.1615 8.89949L11.1499 18.4879C11.0569 18.6931 10.7432 19.0455 10.4451 19.0455L3.38542 19.0571C3.37381 18.9642 3.19567 17.7327 3.16469 17.0783C3.01753 13.9764 3.85013 10.9132 5.46885 8.31086H10.2127L10.4993 8.31473C10.8323 8.31473 11.0608 8.59356 11.1576 8.89174L11.1615 8.89949Z" fill="var(--fill-0, #1E4ED8)"/>
<path id="Vector_4" d="M23.6194 20.3699L23.8169 20.459C24.0919 20.5829 22.9727 22.3294 22.1517 22.8445C22.3299 21.4581 21.7993 20.1957 20.6879 19.5257C19.5765 18.8558 18.1049 18.9448 17.1213 19.8394C16.2384 20.6449 15.8085 21.7757 16.099 22.9413H6.27046C6.58801 21.7795 6.21237 20.672 5.3488 19.7891L10.5302 19.7736C11.3202 19.7736 11.9592 19.1307 11.9631 18.3407L11.9825 9.68948C11.9825 9.39517 12.4007 8.98468 12.6756 9.06988L17.0516 10.4214C17.8145 10.6576 17.9113 11.4786 17.9113 11.4786L19.7585 12.8107C19.8902 12.9076 19.8243 13.1167 19.6578 13.1167H19.0498L19.9289 15.7229L23.1044 16.1915C23.3677 16.2302 23.6078 16.4393 23.6117 16.7298L23.6194 20.3661V20.3699ZM18.922 15.719L18.0778 13.1244L15.7814 13.1322V15.7461L18.922 15.719Z" fill="var(--fill-0, #1E4ED8)"/>
<path id="Vector_5" d="M5.58502 21.7176C5.47272 21.1483 5.14355 20.6333 4.66336 20.3041C4.15993 19.9556 3.58292 19.8626 2.98268 19.8549L2.3592 19.8471L0.682395 19.8626L0.403572 19.8742C0.372592 19.8742 0.337739 19.8975 0.326121 19.9168C0.310631 19.9323 0.302886 19.9711 0.310631 19.9982L0.376464 20.2692L0.814061 21.888L0.988325 22.4882C1.15872 23.0652 1.40656 23.5919 1.87514 23.9869C2.32435 24.3625 2.90523 24.5407 3.48224 24.4942C4.14831 24.44 4.74468 24.1031 5.13968 23.5725C5.5463 23.0497 5.70894 22.3836 5.58115 21.7253L5.58502 21.7176ZM3.36219 23.6809C2.53734 23.6809 1.86739 23.011 1.86739 22.1862C1.86739 21.3613 2.53734 20.6914 3.36219 20.6914C4.18704 20.6914 4.85699 21.3613 4.85699 22.1862C4.85699 23.011 4.18704 23.6809 3.36219 23.6809Z" fill="var(--fill-0, #1E4ED8)"/>
<path id="Vector_6" d="M19.1118 19.8665C17.83 19.8665 16.7883 20.9082 16.7883 22.19C16.7883 23.4718 17.83 24.5135 19.1118 24.5135C20.3936 24.5135 21.4353 23.4718 21.4353 22.19C21.4353 20.9082 20.3936 19.8665 19.1118 19.8665ZM19.1118 23.6732C18.2908 23.6732 17.6286 23.0071 17.6286 22.19C17.6286 21.3729 18.2947 20.7068 19.1118 20.7068C19.9289 20.7068 20.595 21.3729 20.595 22.19C20.595 23.0071 19.9289 23.6732 19.1118 23.6732Z" fill="var(--fill-0, #1E4ED8)"/>
<path id="Vector_7" d="M32.9329 16.0637C32.7315 7.3466 25.7028 0.283098 16.9974 0.00814823C12.3039 -0.139008 7.75364 1.71206 4.50071 5.15475C3.81915 5.87504 3.21503 6.63793 2.69224 7.43567H8.65207C9.13226 7.43567 9.59697 7.28077 9.99197 7.00582C11.8314 5.73563 14.062 4.9921 16.4707 4.9921C22.7829 4.9921 27.8986 10.1038 27.8986 16.4122C27.8986 22.7206 22.7829 27.8323 16.4707 27.8323C14.0504 27.8323 11.8121 27.081 9.96486 25.7992C9.56986 25.5243 9.10128 25.3655 8.62109 25.3655H2.12298C3.49773 28.2505 5.43012 30.8684 7.61036 33.1958L9.29491 34.8803C11.1111 36.5842 13.8684 38.8419 16.1067 39.9146C16.37 40.0424 16.6024 40.0192 16.8464 39.8953C17.6983 39.4654 18.4689 38.9775 19.2628 38.4159C23.2283 35.6045 26.9808 31.8559 29.525 27.6929C31.6975 24.1379 33.0258 20.2034 32.9329 16.0637Z" fill="var(--fill-0, #1E4ED8)"/>
</g>
</svg>
