<svg preserveAspectRatio="none" width="100%" height="100%" overflow="visible" style="display: block;" viewBox="0 0 1512.54 979.188" fill="none" xmlns="http://www.w3.org/2000/svg">
<g id="main roads" clip-path="url(#clip0_0_222)">
<g id="Union">
<path d="M3.80884 0.353605L3.80482 0.311488L3.84682 0.303088C3.83383 0.3196 3.82118 0.336444 3.80884 0.353605Z" fill="var(--fill-0, #DADADA)"/>
<path d="M1225.65 461.017C1228.36 462.596 1227.92 463.67 1227.66 464.315C1227.35 465.064 1227.28 465.233 1232.65 464.94C1235.15 470.61 1219.38 468.72 1222.58 463.898C1224.24 464.243 1226.9 462.781 1225.64 461.017H1225.65Z" fill="var(--fill-0, #DADADA)"/>
<path d="M1345.68 501.37C1345.19 500.549 1344.8 499.904 1344.82 499.833C1343.96 502.445 1342.83 502.134 1340.72 501.303C1337.73 505.436 1344.44 506.469 1347.54 505.259C1347.96 505.198 1346.62 502.955 1345.68 501.37Z" fill="var(--fill-0, #DADADA)"/>
<path d="M397.11 612.452C396.304 614.77 391.087 621.726 391.381 616.392C392.055 616.365 392.937 615.029 393.817 613.696C395.185 611.622 396.548 609.558 397.11 612.452Z" fill="var(--fill-0, #DADADA)"/>
<path d="M848.703 635.956L840.916 625.002C837.144 628.127 831.718 621.113 831.886 617.358C830.483 616.569 825.636 617.341 826.14 620.097C829.527 621.144 832.369 624.795 835.183 628.411C839.231 633.611 843.223 638.74 848.703 635.956Z" fill="var(--fill-0, #DADADA)"/>
<path d="M897.146 745.198C898.775 744.308 914.257 738.637 912.106 741.981C911.127 742.452 909.989 743.107 908.755 743.818L908.753 743.819C903.338 746.937 896.068 751.124 892.19 745.509C892.212 744.166 893.267 744.586 894.433 745.05C895.463 745.459 896.579 745.903 897.146 745.198Z" fill="var(--fill-0, #DADADA)"/>
<path fill-rule="evenodd" clip-rule="evenodd" d="M1328.14 120.464C1328.16 119.705 1328.1 118.338 1327.44 118.642C1326.29 123.004 1325.39 127.398 1324.49 131.767C1322.26 142.648 1320.05 153.38 1314.13 163.095C1308.42 172.738 1303.63 182.793 1303.39 194.251C1298.21 195.074 1297.66 202.046 1302.87 198.929C1321.94 194.79 1340.38 190.876 1358.64 186.997C1403.1 177.557 1446.57 168.327 1495.84 156.568C1498.61 156.544 1501.37 155.474 1504.04 154.441C1506.83 153.361 1509.52 152.321 1512.01 152.553C1514.15 158.802 1509.63 159.407 1505.1 160.014C1503.38 160.244 1501.66 160.474 1500.31 161.012C1477.77 166.679 1452.2 172.158 1426.16 177.736L1426.16 177.736C1384.32 186.701 1341.29 195.92 1307.78 206.582C1290.25 208.705 1290.12 230.39 1290.02 246.651C1290 249.689 1289.98 252.537 1289.85 255.033C1298.05 273.412 1305.44 293.824 1308.74 313.858C1310.67 325.591 1322.95 325.667 1334.94 325.741C1341.52 325.782 1348.01 325.822 1352.65 327.794C1355.5 328.671 1358.35 329.491 1361.18 330.303L1361.18 330.304C1376.69 334.763 1391.45 339.007 1400.84 351.448C1412.63 348.945 1423.68 344.241 1433.04 336.958C1441.64 333.57 1450.92 337.009 1459.82 340.301C1463.49 341.66 1467.09 342.995 1470.55 343.813C1482.47 351.969 1505.36 360.487 1511.71 342.637C1514.2 343.467 1510.21 349.175 1508.25 351.971C1507.87 352.513 1507.57 352.946 1507.4 353.212C1511.38 354.069 1513.18 357.219 1512.32 361.495C1506.21 357.538 1496.96 356.69 1490.25 357.068L1497.11 377.866C1497.52 382.232 1501.81 383.059 1505.74 383.819C1509.65 384.574 1513.22 385.263 1512.32 389.29C1495 391.401 1491.91 379.386 1489.28 369.129C1487.55 362.407 1486.02 356.44 1480.8 355.699C1443.35 334.576 1438.8 338.217 1417.08 355.586C1413.09 358.78 1408.52 362.439 1403.05 366.493C1383.87 383.167 1361.16 397.102 1334.89 393.734C1334.06 393.703 1332.97 393.844 1331.8 393.996C1328.9 394.371 1325.45 394.818 1324.01 392.942C1327.64 403.057 1331.34 413.062 1337.56 421.252C1347.85 433.078 1346.06 444.761 1344.31 456.173C1342.98 464.905 1341.67 473.477 1345.81 481.833C1350.96 506.8 1359.75 507.055 1368.02 507.295C1374.74 507.491 1381.12 507.676 1384.92 521.128C1392.63 539.961 1396.31 553.456 1398.83 562.73C1401.4 572.158 1402.78 577.224 1406.01 579.102C1409.76 581.284 1416.02 579.165 1429.53 574.585C1435.13 572.69 1441.97 570.373 1450.39 567.765C1461.86 564.614 1473 560.946 1484.15 557.277L1484.17 557.271C1493.2 554.299 1502.22 551.327 1511.43 548.63C1513.32 550.201 1512.91 555.476 1509.11 555.543C1498.37 559.809 1484.81 563.358 1470.5 567.102C1440.61 574.925 1407.47 583.596 1390.1 601.424C1393.05 611.105 1393.58 621.022 1394.12 631.064V631.066C1394.56 639.425 1395.01 647.872 1396.87 656.343C1401.74 675.991 1394.58 695.647 1384.9 712.027C1401.74 711.494 1416.93 717.192 1431.87 722.795C1447.58 728.689 1463.01 734.479 1479.8 732.808C1483.04 732.945 1486.38 733.251 1489.72 733.558C1497.45 734.268 1505.23 734.981 1511.94 733.615C1512.58 734.149 1512.44 737.348 1512.31 740.002C1512.24 741.684 1512.17 743.147 1512.32 743.577C1513.5 746.157 1496.02 743.915 1483.64 742.327L1483.64 742.327C1477.07 741.484 1471.94 740.826 1471.77 741.166C1465.66 738.078 1458.74 736.851 1451.82 735.622C1444.21 734.27 1436.58 732.915 1429.97 729.079C1429.43 728.717 1428.59 729.675 1429.22 729.994C1436.09 736.383 1439.42 735.436 1441.3 734.9C1443.02 734.41 1443.54 734.261 1444.47 740.351C1444.92 740.194 1445.41 740.009 1445.94 739.811L1445.95 739.809C1450.46 738.128 1457.59 735.469 1460.69 739.847L1444.15 746.803C1434.32 750.466 1422.58 756.214 1410.19 762.279C1386.7 773.776 1360.88 786.412 1341.37 788.139C1333.13 786.8 1344.08 783.364 1355.82 779.682C1364.85 776.85 1374.34 773.873 1375.93 771.591C1405.26 760.847 1404.19 758.461 1398.04 744.818C1395.76 739.762 1392.79 733.16 1390.41 724.013C1380.23 718.083 1368.16 722.585 1358.32 727.079C1356.99 716.437 1287.19 736.185 1277.12 743.065C1264.51 744.02 1261.42 754.2 1258.21 764.792C1255.8 772.736 1253.31 780.912 1246.69 785.602C1246.22 786.297 1243.13 788.599 1239.39 791.387C1232.42 796.587 1223.18 803.479 1224.36 804.796C1226.55 804.578 1230.54 805.082 1232.6 805.88C1233.3 806.207 1232.72 807.467 1231.99 807.316C1225.69 805.147 1221.86 807.766 1217.94 810.443C1214.95 812.493 1211.9 814.577 1207.65 814.574C1192.56 818.896 1193.75 834.728 1194.85 849.453C1195.31 855.629 1195.76 861.611 1194.99 866.467C1196.62 862.233 1202.29 860.327 1208.25 858.325C1213.88 856.432 1219.76 854.454 1222.73 850.341C1225.56 848.953 1228.72 845.741 1231.79 842.631C1234.09 840.302 1236.33 838.03 1238.33 836.624C1239.83 835.663 1241.19 834.229 1242.49 832.86C1245.32 829.871 1247.85 827.19 1250.99 830.416C1236.11 849.157 1216.05 861.891 1194.69 869.854C1197.34 895.52 1188.42 911.143 1179.7 926.418C1173.15 937.894 1166.71 949.175 1165.37 964.371C1166.61 969.872 1172.26 971.437 1177.65 972.93C1181.45 973.984 1185.12 975.002 1187.02 977.341C1190.41 978.517 1189.78 978.592 1185.52 978.903C1184.1 978.782 1182.58 978.816 1181.04 978.851C1177.97 978.92 1174.81 978.991 1172.29 977.845C1170.32 977.286 1168.44 976.102 1166.74 975.035C1162.93 972.634 1160.05 970.825 1159.27 978.071C1151.43 981.139 1152.65 977.277 1154.18 972.433C1154.91 970.114 1155.71 967.571 1155.62 965.455C1156.68 962.383 1157.6 959.899 1158.35 957.869C1160.3 952.577 1161.11 950.362 1160.42 948.823C1159.92 947.715 1158.64 946.958 1156.44 945.656C1154.06 944.246 1150.6 942.197 1145.89 938.373C1138.59 917.835 1129.01 917.507 1123.39 938.373C1124.02 943.352 1125.12 948.482 1126.22 953.594L1126.22 953.597L1126.22 953.598C1128.1 962.371 1129.97 971.092 1129.44 978.903C1124.1 980.163 1123.5 972.3 1123.13 967.583C1123.01 965.918 1122.91 964.646 1122.64 964.304C1122.77 961.303 1121.9 957.404 1120.97 953.205L1120.97 953.204C1119.43 946.308 1117.72 938.601 1119.93 932.728C1135.19 908.293 1128.67 899.767 1109.72 921.103C1102.86 923.009 1096.24 925.784 1089.62 928.556L1089.61 928.56C1081.77 931.847 1073.93 935.131 1065.72 936.962C1063.34 937.894 1060.5 940.675 1057.64 943.474L1057.64 943.475C1054.98 946.073 1052.31 948.687 1049.97 949.856C1056.06 957.668 1062.35 968.084 1064.47 978.903C1060.55 979.286 1059.56 975.36 1058.51 971.174C1057.57 967.465 1056.58 963.553 1053.46 962.254C1043.62 949.104 1026.17 952.716 1010.16 956.029C1005.64 956.966 1001.23 957.878 997.138 958.382C964.194 970.36 928.174 980.297 892.844 978.433C893.044 977.643 895.267 977.198 897.826 976.687L897.827 976.686C901.065 976.039 904.841 975.284 905.746 973.586C899.415 962.771 894.483 952.818 889.672 943.109L889.672 943.107C886.109 935.918 882.614 928.863 878.665 921.691C869.751 905.511 860.395 886.817 851.238 868.521L851.236 868.518C844.843 855.744 838.547 843.165 832.566 831.769C830.671 828.587 828.991 825.177 827.303 821.752C825.136 817.356 822.956 812.932 820.293 808.929C824.471 801.573 827.01 807.88 828.849 812.448C829.172 813.253 829.474 814.003 829.76 814.616C850.39 853.894 873.515 898.255 893.709 937.466C894.937 939.625 896.5 942.938 898.282 946.714C902.414 955.469 907.723 966.717 912.752 971.864L915.117 971.689C933.952 970.295 954.095 968.805 971.863 961.784C988.262 953.601 1006.09 951.348 1023.69 949.124C1031.75 948.106 1039.76 947.094 1047.56 945.521C1058.41 934.281 1072.96 929.129 1087.49 923.98C1094.88 921.361 1102.27 918.742 1109.17 915.323C1110.67 913.719 1112.47 912.074 1114.3 910.408C1116.92 908.019 1119.59 905.585 1121.48 903.16C1114.23 887.923 1101.56 881.119 1085.91 877.003C1079.83 868.498 1074.94 855.654 1070.23 843.285L1070.23 843.284L1070.23 843.282L1070.23 843.28C1067.19 835.297 1064.23 827.511 1061.07 821.218C1044.56 831.164 946.008 822.932 1011.84 821.126C1016.47 820.758 1021.28 820.739 1026.14 820.72C1037.26 820.675 1048.66 820.63 1058.76 816.397C1058.61 807.412 1055.74 807.683 1051.54 808.08C1049.06 808.315 1046.1 808.594 1042.97 807.031C1015.49 803.998 988.982 791.575 964.882 779.63C953.694 772.065 947.044 764.632 939.729 756.454C935.786 752.046 931.649 747.421 926.503 742.443C924.697 742.796 913.491 746.937 915.154 749.575C902.234 755.183 892.66 763.942 882.299 773.422L882.293 773.428C880.706 774.879 879.102 776.347 877.464 777.824C876.665 778.197 874.86 779.189 872.537 780.466L872.52 780.475L872.517 780.477L872.516 780.478C865.377 784.402 853.371 791.001 850.617 790.634C843.554 793.176 836.842 797.195 830.082 801.242C819.485 807.588 808.767 814.005 796.387 814.918C794.735 815.112 793.154 815.193 791.638 815.178C793.034 815.31 794.336 815.56 795.446 816.061C795.479 818.55 797.126 825.985 798.807 833.575L798.807 833.577C800.541 841.407 802.312 849.402 802.384 852.298C805.106 859.896 806.672 870.173 808.312 880.932C811.116 899.328 814.134 919.134 823.51 929.368C828.722 937.924 831.028 951.716 833.078 963.975L833.078 963.976C833.942 969.144 834.761 974.04 835.732 978.155C835.539 979.113 833.779 979.003 832.365 978.915C831.696 978.873 831.104 978.836 830.793 978.92C829.483 975.913 828.59 969.883 827.575 963.023C825.446 948.645 822.778 930.618 814.59 929.116C808.27 910.83 803.29 884.205 798.913 860.806L798.913 860.805C797.216 851.732 795.61 843.145 794.052 835.717C793.495 833.554 793.129 831.368 792.779 829.276C791.349 820.732 790.181 813.751 777.327 816.254C775.793 818.495 774.268 821.014 772.703 823.598L772.702 823.599C768.954 829.789 764.978 836.354 760.107 840.395C749.981 847.036 745.06 855.176 739.819 863.846C739.086 865.058 738.347 866.281 737.587 867.511C736.121 869.816 734.605 872.04 733.169 874.147C729.603 879.381 726.525 883.897 725.902 887.167C714.948 903.033 718.436 920.638 721.968 938.469C724.658 952.044 727.373 965.75 723.76 978.92H715.73C716.609 971.528 715.177 964.173 713.749 956.838L713.748 956.829C713.13 953.656 712.513 950.486 712.084 947.319C712.311 929.242 716.94 961.162 717.024 966.815C720.289 957.653 716.026 947.448 711.813 937.363C709.154 931 706.516 924.685 705.801 918.709C705.109 912.36 705.206 906.753 705.297 901.517C705.459 892.136 705.601 883.945 701.148 874.802C698.931 868.586 695.045 862.655 691.132 856.683C685.347 847.853 679.504 838.936 678.913 828.879C678.851 827.07 679.56 824.648 680.296 822.131C681.979 816.376 683.807 810.125 676.905 809.576C664.796 797.363 646.98 792.059 629.574 786.878C624.533 785.377 619.527 783.887 614.703 782.242C604.471 778.917 594.212 775.327 583.936 771.716C584.032 773.762 579.687 777.87 576.223 781.146L576.222 781.147C574.204 783.055 572.484 784.68 572.116 785.451C550.1 809.534 528.865 833.163 511.309 860.144C492.711 874.852 466.192 898.759 447.88 917.759C440.234 926.34 430.638 934.578 420.872 942.962C413.343 949.425 405.714 955.974 398.799 962.834C398.74 968.621 404.939 975.207 411.281 978.231C411.961 978.464 411.264 978.672 410.804 978.809L410.802 978.81L410.799 978.811C410.728 978.832 410.662 978.852 410.609 978.87C410.562 978.885 410.524 978.899 410.5 978.911C407.585 978.609 404.78 978.391 401.949 978.911C401.456 963.05 394.123 967.668 385.675 972.988C380.312 976.366 374.5 980.027 369.701 978.911C366.57 978.61 367.814 978.14 369.122 977.646C369.709 977.425 370.309 977.198 370.533 976.979C376.699 973.114 384.347 968.171 391.369 962.653C391.353 962.638 391.337 962.623 391.321 962.607L391.299 962.584C391.284 962.57 391.27 962.555 391.256 962.54C387.335 957.94 391.223 954.974 395.001 952.093C396.403 951.023 397.79 949.965 398.757 948.839C409.34 947.376 417.035 940.114 424.759 932.826C426.875 930.829 428.993 928.831 431.173 926.949C437.821 920.758 444.307 914.429 450.81 908.083C462.44 896.734 474.125 885.331 486.898 874.567C488.245 873.368 490.473 871.563 493.024 869.497C498.89 864.747 506.456 858.618 508.898 855.322C512.353 851.004 515.893 845.573 519.457 840.106L519.458 840.106C524.394 832.534 529.374 824.894 534.232 820.051C536.81 817.008 539.373 814.41 541.838 811.912C545.566 808.133 549.068 804.583 552.057 800.067L546.857 791.625C528.915 794.792 511.048 793.927 493.148 792.549C486.853 790.877 480.218 787.487 473.557 784.084C465.998 780.221 458.403 776.341 451.232 774.934C444.226 765.131 432.332 751.078 424.301 741.779C421.711 738.37 417.08 737.553 412.694 736.78C409.84 736.276 407.09 735.791 405.074 734.623C405.972 727.068 419.043 732.929 424.412 735.335L424.835 735.525C424.978 735.589 425.114 735.649 425.242 735.706C434.986 746.206 444.562 757.706 453.206 769.541C457.543 771.385 461.633 773.227 465.58 775.005C486.144 784.267 502.84 791.787 530.444 788.735C535.781 788.86 541.254 787.526 546.74 786.188C553.439 784.554 560.157 782.916 566.673 783.922L578.719 770.717C579.356 770.608 579.927 770.532 580.435 770.486C563.728 764.617 546.975 758.768 530.208 753.993C523.093 751.205 515.699 748.667 508.244 746.108C498.316 742.701 488.281 739.256 478.657 735.135C474.395 732.646 470.186 729.639 465.912 726.584C460.044 722.39 454.052 718.108 447.627 714.958C444.032 712.792 440.543 710.619 437.091 708.469L437.08 708.462L437.057 708.448C429.463 703.717 422.048 699.099 414.086 694.916C400.738 685.079 390.003 682.593 373.38 687.305C372.252 688.814 370.325 688.287 368.317 687.738C366.123 687.138 363.832 686.511 362.384 688.49C361.515 690.376 359.52 693.126 357.116 696.44C350.601 705.422 341.082 718.547 342.812 729.843C337.093 731.989 338.55 726.666 339.872 721.837C340.589 719.219 341.266 716.746 340.737 715.689C343.077 709.471 347.005 704.4 350.985 699.261C354.022 695.34 357.089 691.381 359.503 686.843C303.643 682.282 305.466 657.679 312.06 606.355C311.919 601.149 309.246 597.22 306.548 593.252C303.938 589.416 301.305 585.545 300.913 580.449C299.325 575.77 300.72 586.598 302.24 587.656C302.719 588.583 302.133 588.771 301.483 588.979C301.083 589.108 300.66 589.244 300.442 589.563C299.357 590.82 299.772 590.669 300.614 590.364C301.505 590.041 302.875 589.545 303.45 590.361C311.132 597.418 301.075 596.626 293.615 596.038C290.561 595.798 287.942 595.592 287.154 595.972C285.518 595.683 286.509 595.061 287.92 594.177C289.623 593.11 291.937 591.659 290.967 589.949C287.18 594.801 279.985 594.093 272.78 593.384C268.896 593.002 265.009 592.619 261.651 593.108C254.558 593.661 244.579 594.268 236.785 594.742L236.75 594.744L236.732 594.745C235.315 594.832 233.971 594.913 232.73 594.989C227.287 595.948 220.414 594.924 213.345 593.871C198.105 591.601 181.953 589.195 177.248 606.22C176.735 608.463 176.132 612.458 175.402 617.292C172.94 633.606 169.033 659.481 162.288 659.837C160.665 657.282 161.55 653.106 162.153 650.259C162.99 646.313 163.285 644.92 155.61 653.932C136.749 661.007 117.349 658.607 97.8857 656.2C82.1296 654.251 66.3318 652.298 50.744 655.36C41.6795 656.682 33.3454 661.112 25.3977 665.336C16.7298 669.943 8.52166 674.306 0.32722 674.126C-4.04918 666.809 41.5124 651.698 48.812 649.573C61.4476 647.78 74.5496 647.624 87.5013 647.469C94.2151 647.389 100.889 647.309 107.436 647.002C112.276 646.635 118.333 647.638 124.523 648.664C135.016 650.403 145.891 652.205 151.872 647.498C152.174 650.564 155.198 645.364 154.366 643.331C165.858 638.527 170.268 610.42 172.132 594.712C172.787 586.998 171.394 577.563 169.964 567.871C167.154 548.838 164.199 528.815 176.316 518.885C176.792 524.703 175.516 530.651 174.231 536.643C172.59 544.294 170.933 552.017 172.888 559.634C175.137 565.012 175.905 573.563 176.552 580.756C177.014 585.899 177.414 590.347 178.248 592.444C190.143 585.252 205.543 586.642 220.561 587.998C231.239 588.961 241.725 589.908 250.622 587.74C253.715 588.937 257.648 588.003 261.672 587.048C266.772 585.837 272.02 584.591 275.889 587.606C295.43 591.638 297.276 583.654 300.07 571.576C302.56 560.808 305.803 546.786 323.005 535.123C326.281 531.545 329.653 528.283 332.959 525.086C337.205 520.979 341.342 516.978 345.021 512.552C350.79 509.754 353.104 503.428 355.511 496.845C357.76 490.698 360.09 484.327 365.391 480.397C364.805 478.177 363.773 476.023 362.752 473.89C360.25 468.663 357.808 463.562 362.115 457.918C361.453 455.636 360.713 453.416 359.982 451.224C357.514 443.822 355.154 436.743 356.269 428.695C343.825 435.069 328.894 443.556 313.442 452.339L313.44 452.34L313.439 452.341L313.438 452.341C286.843 467.458 258.704 483.451 239.047 491.065C236.975 488.221 234.136 486.971 231.241 485.697C228.972 484.698 226.668 483.684 224.674 481.875C224.273 481.602 223.387 481.838 222.488 482.078C221.203 482.421 219.892 482.77 219.937 481.648C226.203 476.155 195.652 464.344 191.478 464.092C171.216 451.784 167.739 457.704 157.248 475.565C157.035 475.928 156.82 476.295 156.601 476.667C155.341 478.972 154.732 481.674 154.134 484.326C152.854 490.003 151.626 495.451 144.177 496.281C142.112 499.862 140.793 502.85 139.66 505.418C136.485 512.614 134.765 516.513 122.136 520.927C121.564 520.977 120.909 522.23 120.343 523.313C119.97 524.027 119.636 524.668 119.389 524.841C119.187 533.394 122.392 545.052 125.758 557.299C134.049 587.462 143.321 621.196 105.109 620.903C100.178 620.215 99.5564 628.531 101.757 629.816C103.664 628.976 105.898 628.682 107.671 629.74C106.628 635.72 98.1617 636.21 90.1011 636.676C85.5016 636.943 81.0341 637.201 78.1532 638.468C61.7312 639.896 42.1256 645.952 25.6364 652.807C22.9996 652.938 19.0955 655.064 15.1383 657.218C7.9767 661.117 0.641022 665.111 0.32722 657.553C1.48104 657.065 2.61982 656.582 3.74574 656.105L3.80321 656.08L3.80776 656.078L4.43962 655.81C22.8573 648.001 37.9202 641.615 59.2532 635.965C60.1917 636.075 69.3778 634.578 78.2571 633.132C86.2259 631.833 93.9476 630.575 95.2388 630.555C95.5714 629.293 95.5623 627.775 95.5528 626.207C95.5322 622.783 95.5102 619.116 99.0356 617.342C119.725 616.275 133.702 610.202 127.05 586.153C125.698 580.276 123.532 570.448 121.27 560.188L121.269 560.183L121.269 560.182C118.514 547.683 115.617 534.544 113.878 527.117C112.433 526.217 113.944 522.95 114.989 520.689C115.329 519.954 115.62 519.325 115.743 518.919C116.919 516.601 123.538 513.434 126.184 512.602C131.894 511.321 133.734 506.296 135.568 501.289C137.377 496.351 139.18 491.429 144.681 490.132C148.222 489.523 148.466 486.767 148.719 483.907C148.852 482.391 148.989 480.845 149.62 479.573C149.904 479.016 150.192 478.444 150.487 477.86C155.564 467.803 162.372 454.316 172.939 450.719C173.25 451.173 173.762 451.341 174.476 451.215C176.433 450.577 184.43 453.827 186.841 455.768C189.396 457.995 191.822 457.053 194.1 456.168C196.427 455.265 198.601 454.421 200.6 457.078C198.63 460.647 200.721 461.392 203.598 462.417C205.725 463.175 208.281 464.085 209.941 466.402C215.585 467.975 220.58 471.772 225.422 475.454C228.442 477.75 231.404 480.001 234.427 481.64C245.474 486.649 259.714 477.454 273.03 468.856C280.056 464.319 286.824 459.949 292.731 457.918C306.434 450.563 320.571 442.739 334.804 434.862L334.807 434.86L334.813 434.857C352.938 424.826 371.22 414.708 388.962 405.359C390.975 404.087 393.103 402.995 395.183 401.927C400.009 399.45 404.58 397.104 406.887 392.936C408.856 392.298 411.167 392.06 413.484 391.821C418.98 391.255 424.514 390.685 425.619 384.771C406.038 375.624 380.923 363.598 356.98 352.133L356.973 352.129C341.715 344.823 326.932 337.744 314.361 331.784C312.849 331.301 311.315 330.374 309.794 329.455C307.877 328.296 305.98 327.15 304.172 326.92C303.267 326.301 302.831 327.249 302.419 328.148C301.751 329.602 301.143 330.927 298.704 325.291C294.927 324.899 291.446 326.043 288.126 327.134C283.321 328.713 278.851 330.182 274.302 326.735C274.782 327.862 277.935 331.112 281.492 334.779L281.492 334.78C287.509 340.982 294.682 348.377 292.042 348.71C287.637 349.08 285.298 346.693 282.838 344.183C281.386 342.701 279.891 341.176 277.905 340.15C276.254 338.824 274.798 336.492 273.295 334.085C271.114 330.591 268.835 326.939 265.717 325.979C241.943 331.455 234.619 327.706 229.458 325.064C223.383 321.955 220.303 320.378 196.929 337.177C193.771 345.274 189.63 348.811 183.195 340.335C170.192 338.947 157.183 337.394 144.18 335.841L144.174 335.84L144.173 335.84C121.057 333.08 97.9601 330.322 74.9528 328.499C59.5574 331.483 44.3956 340.801 29.8972 349.711C19.6594 356.002 9.75222 362.091 0.32722 365.602C-2.20677 358.374 20.7145 347.168 39.7756 337.849C49.8433 332.926 58.8342 328.531 62.4284 325.526C45.5929 318.444 32.6203 319.946 18.8759 321.537C12.9593 322.222 6.89961 322.923 0.32722 322.964C-0.708936 317.344 5.37863 317.22 11.2328 317.102C14.1111 317.043 16.933 316.986 18.824 316.277C36.0652 313.322 53.144 317.061 70.2911 320.815C82.5839 323.506 94.912 326.204 107.36 326.45C116.623 327.104 126.492 328.406 136.428 329.718L136.429 329.718H136.43C156.236 332.332 176.309 334.982 192.385 332.599C198.987 329.659 216.073 319.293 221.239 314.421L221.241 313.969C221.273 308.115 221.326 298.077 213.15 298.797C212.525 298.825 211.886 298.86 211.237 298.895L211.232 298.895C204.959 299.235 197.736 299.626 193.284 294.983C194.37 293.741 193.012 292.295 191.512 290.698C189.95 289.034 188.233 287.206 188.966 285.273C189.242 284.087 189.044 282.275 188.838 280.385C188.448 276.815 188.027 272.964 190.713 272.513C187.805 293.632 200.377 294.057 213.749 294.509C215.785 294.578 217.84 294.647 219.861 294.79C219.156 293.782 219.072 290.968 219.231 289.708C224.491 287.246 224.603 293.525 224.71 299.544C224.77 302.908 224.829 306.19 225.783 307.819C225.85 307.746 226.549 307.898 227.402 308.083C228.81 308.389 230.64 308.786 230.739 308.415C247.59 299.957 247.235 299.826 239.267 296.911C235.975 295.706 231.384 294.026 226.17 291.086C180.507 265.315 135.038 242.173 83.3108 231.883C74.7548 236.125 66.616 244.861 58.427 253.65C51.2441 261.36 44.0227 269.111 36.4472 273.908C28.9796 276.839 15.4304 283.87 11.4404 287.869C10.7361 288.16 10.0017 288.481 9.26008 288.806C3.58054 291.294 -2.51734 293.966 1.30162 284.433C2.54269 283.81 3.89324 283.142 5.33328 282.43L5.35144 282.421L5.35224 282.421C26.5298 271.953 67.02 251.938 63.2852 223.121C62.9453 221.913 62.248 222.953 61.3578 224.281C60.4221 225.677 59.2733 227.39 58.1024 227.145C54.1964 226.095 58.682 221.215 60.2444 219.77C58.6975 214.667 53.4327 210.297 48.1724 205.93C44.635 202.994 41.0998 200.06 38.6984 196.905C35.6069 193.466 31.8661 189.861 28.1315 186.262C24.9255 183.172 21.7236 180.087 18.9416 177.115C18.191 176.778 17.2296 176.822 16.2555 176.868C14.7769 176.936 13.2689 177.006 12.4232 175.745C9.89421 169.71 6.69999 172.439 3.42754 175.235C2.39577 176.117 1.35615 177.005 0.32722 177.627C-0.878922 175.387 2.78268 172.614 5.27121 170.729C6.05824 170.133 6.72794 169.626 7.08922 169.252C7.81847 167.372 6.2072 166.504 4.3408 165.499C1.92904 164.2 -0.90872 162.671 0.32722 158.433C0.432407 158.354 0.483728 158.019 0.539515 157.655C0.644108 156.972 0.764399 156.187 1.28482 156.795C14.792 163.288 26.4344 174.595 36.968 185.447C39.9326 188.068 42.9816 191.396 46.1429 194.847C56.8031 206.484 68.7417 219.516 83.0336 211.521C90.6451 211.269 96.9542 205.118 103.05 199.175C105.902 196.395 108.707 193.66 111.577 191.596C113.674 190.624 113.248 189.65 112.702 188.401C112.167 187.179 111.518 185.694 113.005 183.692C113.652 184.339 114.122 183.776 114.424 182.02C115.116 181.321 116.076 182.104 117.049 182.898C118.415 184.012 119.807 185.147 120.523 182.239C139.994 159.727 150.931 138.659 166.622 106.513C163.128 102.951 155.937 95.2231 152.602 91.4431C151.099 94.0303 146.269 96.6931 143.917 92.2999C141.312 89.4215 142.715 88.4101 144.429 87.1748C145.296 86.5499 146.242 85.8677 146.79 84.8575C132.736 80.0779 115.743 77.0707 100.741 77.1631C92.158 79.7319 83.9575 83.8768 75.7509 88.0249C66.9704 92.463 58.1827 96.9048 48.9128 99.4231L47.6454 99.5261C32.3378 100.768 19.4766 101.812 7.45882 110.78C5.81257 110.554 4.25563 111.498 3.01014 112.253C1.0145 113.462 -0.181587 114.187 0.33562 108.839C11.5592 98.4764 27.0757 96.6993 42.5952 94.9219L42.61 94.9202C44.3574 94.7201 46.1048 94.52 47.846 94.3075C56.492 92.0887 64.553 88.1237 72.6157 84.158C80.5172 80.2715 88.4202 76.3842 96.8768 74.1391C50.7364 70.2015 42.4339 63.4728 14.2597 40.6386C10.4585 37.5579 6.29557 34.184 1.62922 30.4843C-0.892554 28.3669 0.279749 24.0326 1.43822 19.7494C2.42141 16.1143 3.39464 12.516 2.09122 10.3411C-0.58838 10.8115 0.28522 7.85469 2.09962 7.83789C3.46203 7.15668 3.41565 5.3001 3.37165 3.53866C3.33993 2.26887 3.30944 1.04853 3.80884 0.353605C4.79514 10.6861 4.43818 16.4159 4.21568 19.9874C4.06058 22.4769 3.97082 23.9177 4.44692 25.1377C5.10098 26.8137 6.82302 28.0729 10.9108 31.0622C15.1842 34.1871 22.0429 39.2026 32.9696 48.5611C33.5274 49.0101 34.2725 49.6328 35.1477 50.3642C39.5445 54.0385 47.2257 60.4576 50.9456 61.3963C55.2091 62.2209 64.2907 63.7124 73.9014 65.2908L73.9034 65.2911L73.9043 65.2912C85.538 67.2019 97.9463 69.2398 103.521 70.3759C109.752 71.2941 116.789 72.5901 123.832 73.8874C130.643 75.1418 137.461 76.3976 143.564 77.3143C143.186 60.0859 134.794 45.6463 124.983 32.1055C124.314 29.8082 121.07 25.1985 117.537 20.1771C110.476 10.1425 102.258 -1.53601 111.115 0.311488C115.347 8.34692 120.607 15.988 125.881 23.6497C134.738 36.5158 143.634 49.4398 147.772 64.3867C148.669 66.2491 148.891 69.0431 149.112 71.8315C149.428 75.8093 149.743 79.7757 152.014 81.0103C167.283 70.6081 180.766 58.5199 194.427 46.2724C200.645 40.698 206.9 35.0904 213.376 29.5939C216.225 26.7155 221.514 23.2772 227.045 19.6811C237.301 13.0135 248.392 5.80339 246.313 0.613888C247.22 0.378688 259.476 -0.478112 259.568 1.02549C254.403 5.77572 255.522 6.83772 258.345 9.51577C259.236 10.3611 260.296 11.3674 261.382 12.7015C261.888 12.8883 262.722 13.9955 263.618 15.1852C264.898 16.8842 266.305 18.7514 267.061 18.3463C281.265 10.0303 296.914 2.16789 313.429 0.311488C314.916 0.498627 317.712 0.424263 320.729 0.344034C325.566 0.215395 330.97 0.0716793 332.455 0.966687C319.332 2.04843 318.497 12.922 317.62 24.3443C317.046 31.8145 316.454 39.5194 312.396 44.8735C311.892 47.641 310.92 50.8008 309.929 54.0204C306.414 65.4494 302.668 77.6312 318.796 75.6847C326.748 72.5033 336.524 70.2147 346.607 67.8544C364.29 63.7144 382.917 59.3539 394.296 49.5691C393.456 49.089 392.326 48.4918 391.02 47.8015L391.019 47.8009C384.601 44.4087 373.924 38.7653 372.472 33.6847C370.498 23.9717 362.09 14.834 356.295 8.53632C350.648 2.40001 347.483 -1.03994 355.168 0.311488C357.787 0.736589 360.517 0.596863 363.263 0.456318C366.268 0.302484 369.293 0.147669 372.212 0.731488C371.775 1.82936 369.949 1.82801 367.958 1.82655C364.815 1.82424 361.262 1.82162 362.115 6.14109C362.779 6.78911 363.561 7.86088 364.434 9.05818C367.182 12.8273 370.836 17.8403 374.598 14.7931C382.804 12.6595 390.944 11.1055 399.327 12.7183C403.32 13.4105 407.457 12.6839 411.544 11.9659C417.972 10.8368 424.277 9.72918 429.71 14.1967C431.335 15.2407 432.129 17.5227 432.875 19.6642C434.05 23.0364 435.103 26.0601 439.084 23.3527C439.836 22.4888 439.728 21.7773 439.621 21.0743C439.479 20.1437 439.34 19.2281 441.201 17.9935C439.684 16.5295 438.382 14.4049 437.049 12.2283C434.404 7.91087 431.634 3.38875 426.804 3.41109C411.028 10.2739 396.656 7.77909 380.52 2.06709C379.173 1.61665 378.019 1.45365 377.076 1.32032C376.26 1.20502 375.601 1.11192 375.11 0.874287C374.829 0.45215 377.567 0.424032 379.564 0.403524C380.667 0.392202 381.543 0.383199 381.561 0.311488C398.529 1.01709 415.354 0.681088 431.415 0.311488L437.026 0.555088C438.284 5.76844 441.408 10.7658 444.502 15.7145L444.503 15.7155C445.975 18.0703 447.44 20.414 448.694 22.7647C456.605 21.191 464.183 17.4837 471.917 13.7002C482.719 8.41604 493.825 2.98341 506.562 3.00789C509.827 3.47464 512.985 3.30825 515.78 3.16094C521.577 2.85554 525.817 2.63215 526.227 8.30281C526.316 7.68834 526.414 7.0714 526.52 6.45189C524.713 -0.0799165 527.594 0.041379 532.227 0.236449C532.849 0.26264 533.503 0.290161 534.181 0.303088C532.012 8.09245 546.4 5.65833 559.012 3.52489C564.08 2.66743 568.862 1.85855 572.166 1.78149C580.28 0.185371 596.411 0.25113 608.082 0.298705C611.091 0.31097 613.803 0.322026 616.005 0.303088C616.112 0.386403 616.48 0.422287 616.889 0.462265C617.636 0.535144 618.521 0.62163 618.223 1.03389C618.096 1.09632 617.945 1.13508 617.796 1.17326C617.385 1.27891 616.992 1.38013 617.164 1.96629C622.149 20.1528 633.548 24.5327 645.554 29.1456C653.233 32.0964 661.161 35.1425 667.816 41.9587C670.16 44.1763 677.325 46.8391 680.668 47.8387C681.987 45.8753 683.383 43.8861 684.802 41.8665L684.804 41.8629L684.815 41.8472L684.816 41.8464L684.817 41.8444C690.3 34.0371 696.103 25.7747 698.93 16.7923C697.001 14.4497 694.985 13.3806 693.351 12.5144C689.976 10.7248 688.233 9.80088 692.269 0.303088C695.369 -0.256395 694.746 1.25701 693.863 3.40381C692.518 6.67196 690.569 11.408 700.232 12.5335C704.776 -10.3145 706.692 5.67069 700.4 20.4295C700.285 23.9007 696.364 29.1892 692.504 34.3943C687.024 41.785 681.669 49.0074 687.514 50.6191C699.829 39.5105 703.98 21.1302 707.664 4.81445L707.668 4.79625C708.011 3.27811 708.35 1.77788 708.691 0.303088C709.08 0.370518 709.675 0.352952 710.316 0.334045C711.43 0.301136 712.683 0.264165 713.227 0.664288C712.877 2.80795 712.59 5.0507 712.297 7.33876C711.584 12.9048 710.837 18.7388 709.069 24.0667C705.028 35.5243 707.926 69.0319 722.299 71.6275C734.168 76.636 741.723 64.4834 748.207 54.0542C750.368 50.5777 752.411 47.2927 754.454 44.8987C753.823 43.388 751.559 39.5281 748.711 34.6738C740.602 20.8493 727.762 -1.03978 734.445 0.303088C737.909 5.21381 740.594 11.0052 743.284 16.8069C747.511 25.9209 751.749 35.0602 759.032 40.8499C760.14 39.2769 762.634 37.9322 764.757 36.7876C765.968 36.1352 767.057 35.5479 767.701 35.0203C767.39 33.1387 768.07 32.0131 769.734 31.6351C774.771 28.7028 781.315 28.849 788.132 29.0012C789.068 29.0221 790.009 29.0431 790.952 29.0563C802.057 27.8551 816.74 7.45989 820.234 0.303088C820.644 0.331235 821.113 0.318336 821.584 0.305361C823.644 0.248637 825.757 0.190456 823.242 3.55389C826.058 4.39487 830.202 3.41545 834.847 2.31727C838.832 1.37521 843.187 0.345752 847.392 0.303088C853.782 7.95555 863.926 5.4122 873.801 2.93637C879.242 1.57212 884.602 0.228368 889.207 0.622288C893.964 0.126861 918.454 0.226036 937.93 0.304901C949.163 0.350393 958.729 0.389127 961.875 0.303088C972.652 1.28589 923.235 5.79669 916.238 5.24229C913.229 8.28231 912.499 13.6391 911.75 19.1287C911.275 22.6187 910.792 26.163 909.711 29.1991C916.279 34.6869 925.34 38.7015 934.381 42.7071C940.451 45.3967 946.512 48.0823 951.804 51.2071C951.979 51.3049 952.154 51.4026 952.33 51.5003L952.333 51.5019C956.954 54.0719 961.438 56.5653 951.98 56.9779C938.508 53.2132 929.269 47.3316 922.677 43.1353C909.516 34.7571 906.908 33.0972 902.235 68.4187C902.038 69.3828 900.691 69.8603 899.585 70.2528C899.139 70.4109 898.733 70.5551 898.455 70.7119C899.084 71.3708 900.751 70.5288 902.431 69.6806C903.577 69.1015 904.73 68.5194 905.562 68.4103C915.689 64.568 927.912 62.3868 940.099 60.2122C955.994 57.3759 971.827 54.5507 982.867 48.0655C981.717 40.3667 982.158 32.3037 982.607 24.0894C983.017 16.5745 983.435 8.93296 982.648 1.32789C981.581 -0.125312 986.378 0.227488 987.218 0.681088C988.071 9.38292 987.244 18.8714 986.485 27.5876L986.484 27.5959L986.483 27.6025C986.263 30.1304 986.049 32.5933 985.882 34.9531C986.106 37.5092 986.757 39.7047 987.326 41.6239C988.678 46.182 989.567 49.1818 983.178 51.7531C987.197 50.5718 992.054 48.8019 997.361 46.8679C1015.79 40.1518 1039.65 31.458 1052.68 38.5735C1060.84 31.1731 1069.56 17.0695 1075.33 7.33389C1076.19 6.54385 1076.94 5.57643 1077.69 4.60652C1080.01 1.61665 1082.34 -1.3971 1087.73 0.689488C1088.29 1.03205 1087.83 1.31419 1087.34 1.612C1087.01 1.81077 1086.67 2.01653 1086.62 2.25189C1086.16 3.38147 1085.04 4.77843 1083.93 6.17768C1082.65 7.77518 1081.37 9.37567 1081.07 10.5847C1075.91 17.0796 1072.46 22.2983 1069.14 27.3247C1065.91 32.212 1062.81 36.9175 1058.36 42.4375C1056.13 42.9422 1053.92 41.5514 1051.6 40.0888C1049.14 38.5331 1046.54 36.896 1043.65 37.3723C1043.33 37.3887 1042.76 37.3992 1042.08 37.4116C1039.65 37.4565 1035.83 37.5269 1037.12 37.9939C1044.86 36.5827 1050.56 39.7159 1057.06 43.9327C1058.8 44.8496 1060.48 45.7274 1062.11 46.5755C1085.95 59.0286 1097.55 65.0851 1100.42 94.8283C1100.67 98.2999 1102.12 101.311 1103.64 104.464C1104.88 107.04 1106.17 109.711 1106.88 112.804C1105.44 129.209 1123.54 137.609 1136.21 142.977C1152.86 134.27 1169.91 121.24 1187.27 107.982C1202.67 96.2112 1218.32 84.26 1234.12 74.9959C1237.14 73.5314 1240.38 72.4948 1243.62 71.4583C1250.38 69.2964 1257.13 67.1352 1261.84 61.0939C1268.33 56.4123 1276.3 54.1636 1284.05 51.9736C1288.59 50.6939 1293.05 49.4343 1297.1 47.7211C1300.22 45.9721 1302.86 44.3405 1305.3 42.8271C1312.69 38.2568 1318.34 34.7638 1330.13 32.3659C1335.97 28.6888 1334.56 20.8525 1333.21 13.3941V13.3929C1332.31 8.41394 1331.44 3.60351 1332.79 0.311488C1333.04 0.418669 1333.83 0.388289 1334.73 0.354014C1336.08 0.302331 1337.66 0.241792 1337.98 0.630688C1338.59 3.68796 1338.94 6.95706 1339.3 10.272V10.2762C1339.74 14.4284 1340.2 18.6523 1341.19 22.6219C1349.57 19.6964 1356.62 15.3368 1364.14 10.6938C1365.39 9.92425 1366.64 9.14694 1367.92 8.36709C1368.49 8.31908 1368.29 5.26708 1368.14 2.92917C1368.05 1.58511 1367.98 0.477068 1368.07 0.311488H1370.23C1369.3 9.11152 1371.96 6.90081 1375.5 3.95831C1377.24 2.51356 1379.19 0.892385 1381.04 0.311488C1389.72 -0.279871 1387.91 1.05918 1384.55 3.55102L1384.55 3.55183L1384.55 3.55275C1382.85 4.81253 1380.75 6.36678 1379.41 8.11509C1375.12 11.6676 1369.55 14.5358 1363.96 17.4128C1355.9 21.5697 1347.79 25.7451 1343.43 32.0299C1345.03 49.4845 1340.4 66.416 1335.79 83.2836C1332.41 95.651 1329.04 107.984 1328.14 120.464ZM393.149 961.231C397.251 957.894 401.069 954.37 404.158 950.763C404.704 946.042 391.651 957.584 392.314 959.356C392.885 959.703 393.141 960.479 393.149 961.231ZM525.591 14.6658C524.091 18.6704 500.386 12.8036 499.102 8.46789C483.964 12.5219 469.541 19.7784 455.702 26.7407L455.699 26.7421C452.707 28.2475 449.743 29.739 446.804 31.1815C445.172 31.9191 442.525 33.0903 439.299 34.5172C427.135 39.8985 406.751 48.9164 401.612 52.0303C406.644 65.7139 415.942 80.1115 425.686 92.1907C429.769 102.998 445.761 109.417 459.601 114.973C466.49 117.738 472.845 120.289 476.935 123.061C492.637 126.058 498.966 139.081 505.273 152.055C506.088 153.733 506.903 155.41 507.738 157.064C518.889 151.68 531.428 147.663 544.14 143.59C567.623 136.066 591.697 128.353 608.706 111.485C612.509 103.291 619.098 97.8962 625.71 92.4819C631.116 88.0561 636.537 83.6172 640.466 77.6251C644.182 75.5246 647.452 69.1156 650.691 62.7666C655.651 53.0435 660.539 43.4613 666.85 49.7119C654.964 72.3835 635.56 91.3423 616.854 107.605C611.797 118.096 610.159 120.977 601.213 126.32C586.37 135.069 570.699 140.463 554.959 145.881C542.212 150.269 529.42 154.673 516.986 160.886C516.821 163.111 518.232 166.393 519.65 169.69C521.192 173.278 522.742 176.884 522.278 179.164C517.669 182.715 516.316 177.707 514.927 172.563C513.98 169.055 513.015 165.484 510.988 164.523C495.815 171.168 492.447 175.561 486.128 183.806C484.195 186.328 481.985 189.211 479.077 192.629C457.926 212.252 432.524 226.129 405.619 235.427C394.682 243.71 352.178 260.493 386.769 238.93C395.929 233.243 405.932 229.243 415.859 225.274C431.722 218.93 447.393 212.664 459.127 199.711C449.921 192.614 452.356 185.213 455.475 175.738C455.671 175.141 455.87 174.536 456.069 173.923C453.384 166.859 450.415 159.845 447.422 152.776C441.774 139.435 436.044 125.899 431.986 111.469C431.891 111.05 431.81 110.622 431.73 110.193L431.73 110.192C431.317 107.992 430.904 105.793 428.408 104.9L421.033 93.9295C420.154 92.7479 419.142 91.428 418.057 90.0104L418.056 90.0092L418.053 90.0062C412.925 83.3123 406.13 74.4424 403.67 67.6711C403.046 66.87 401.995 64.6195 400.859 62.1896L400.859 62.1885C399.303 58.8605 397.591 55.1958 396.606 54.4579C384.345 63.0585 372.283 66.1466 360.382 69.1933C352.535 71.2022 344.758 73.1932 337.041 76.7347C334.647 77.8183 332.448 77.8183 330.282 77.8183C328.116 77.8183 325.983 77.8183 323.719 78.9019C321.586 81.2854 317.711 80.6167 314.235 80.017C310.153 79.3126 306.622 78.7033 307.112 83.2447C307.431 90.7033 307.454 98.2226 307.476 105.759C307.505 115.291 307.533 124.851 308.162 134.35C309.526 140.321 311.406 146.276 313.301 152.276C317.112 164.347 320.981 176.599 320.812 189.521C318.759 196.115 328.769 209.974 337.981 222.729C347.759 236.267 356.638 248.56 349.238 249.598C342.359 239.096 337.157 230.851 333.254 224.664L333.253 224.663C326.639 214.178 323.755 209.607 322.759 209.987C321.988 210.28 322.347 213.534 322.982 219.304C323.962 228.213 325.603 243.121 324.769 262.391C324.708 264.409 324.98 266.591 325.255 268.801C325.854 273.604 326.469 278.537 323.719 282.19C309.103 290.405 284.298 312.884 309.733 321.939C322.191 329.266 340.898 338.101 358.893 346.6L358.894 346.601L358.897 346.603C372.362 352.962 385.428 359.133 395.178 364.342C403.47 367.907 409.554 371.515 414.232 374.288C428.402 382.691 429.663 383.438 440.311 352.145C442.893 351.146 445.284 348.231 447.73 345.247C449.684 342.863 451.674 340.436 453.826 338.907C453.818 338.739 454.744 337.981 455.914 337.021C458.321 335.047 461.765 332.223 460.244 331.952C475.003 318.025 486.62 311.12 505.596 303.123C534.576 274.177 571.737 248.607 610.797 232.403C650.491 225.74 693.154 225.96 734.918 226.174C749.7 226.25 764.37 226.326 778.755 226.095C781.228 206.127 779.644 186.623 777.986 166.209L777.986 166.207C777.059 154.796 776.109 143.1 775.832 130.881C774.838 119.425 774.944 110.738 775.025 104.146C775.129 95.5927 775.191 90.5654 772.75 87.5901C769.271 83.3479 760.705 83.2775 739.925 83.1069H739.922C738.196 83.0928 736.386 83.0779 734.487 83.0599C732.865 86.6345 732.669 91.1034 732.474 95.5613C732.138 103.224 731.804 110.854 724.231 113.854C721.03 110.954 720.808 115.667 720.651 119.023C720.593 120.254 720.543 121.303 720.358 121.725C716.247 122.966 716.28 120.329 716.317 117.498C716.335 116.038 716.355 114.526 715.806 113.468C708.792 111.977 705.342 115.754 701.424 120.043C700.706 120.828 699.973 121.631 699.199 122.422C695.651 117.606 699.949 113.249 705.002 108.128C715.133 97.8606 728.298 84.5174 687.363 58.2211C674.511 52.3999 661.558 44.5795 650.034 36.7507C638.652 33.0295 626.396 28.0063 619.315 18.8419C618.036 16.7693 616.996 14.5011 615.989 12.3057C612.48 4.65126 609.376 -2.11703 597.979 3.38589C592.06 4.09506 586.117 4.93716 580.164 5.78063C564.329 8.02425 548.426 10.2776 532.736 10.0639C527.606 20.4277 533.277 38.2709 537.118 50.3544C537.315 50.9735 537.507 51.5776 537.692 52.1647C542.036 63.691 545.052 75.4046 548.065 87.1078C550.796 97.7161 553.525 108.316 557.239 118.76C557.406 119.295 557.894 120.141 558.439 121.087C560.057 123.894 562.181 127.577 557.928 126.622C550.308 115.445 546.715 101.542 543.21 87.98C541.089 79.7723 539 71.6897 536.071 64.4119L536.033 64.3055C530.205 47.891 524.63 32.1874 525.591 14.6658ZM1322.71 389.34C1322.79 388.998 1323.1 388.779 1323.78 388.786C1330.55 389.59 1324.81 381.431 1320.09 374.718L1320.09 374.717C1318 371.742 1316.11 369.052 1315.59 367.551C1315.01 366.491 1313.87 365.684 1312.73 364.879C1310.69 363.439 1308.67 362.007 1309.87 359.151C1309.52 358.299 1309.15 357.3 1308.74 356.217C1306.54 350.417 1303.42 342.189 1299.37 340.915C1292.79 346.046 1297.5 350.013 1302.41 354.149C1305.06 356.378 1307.76 358.657 1308.79 361.192C1315.25 369.38 1319.09 379.315 1322.71 389.34ZM788.758 815.031C781.329 814.347 775.45 811.41 769.924 808.65C763.692 805.537 757.909 802.648 750.859 803.469C746.927 804.497 742.495 807.25 737.763 810.19C735.338 811.696 732.835 813.252 730.279 814.649C725.818 814.12 721.198 814.868 717.082 816.649C711.978 812.353 703.164 811.963 695.887 811.64H695.884C694.013 811.558 692.243 811.479 690.664 811.34C679.768 825.829 688.822 840.887 697.503 855.324C701.082 861.275 704.597 867.121 706.624 872.777C708.928 875.448 709.565 880.742 710.111 885.276C710.937 892.134 711.554 897.25 717.41 888.905C718.688 886.735 719.946 884.579 721.196 882.435C728.774 869.443 736.078 856.921 745.869 844.721C756.319 837.111 767.272 826.325 770.918 814.691C771.974 812.524 774.945 813.232 777.424 813.823C778.712 814.129 779.867 814.405 780.553 814.229C782.651 814.92 785.199 814.965 787.724 815.011C787.918 815.014 788.112 815.018 788.305 815.022C788.456 815.025 788.607 815.028 788.758 815.031ZM282.274 52.7709C282.011 50.1728 281.751 47.6162 281.282 45.2599V45.2515C280.803 38.8423 277.653 28.5271 272.672 24.0247C281.719 16.426 293.918 12.5448 306.901 8.41395C310.846 7.15864 314.864 5.88029 318.888 4.46755C313.981 6.79607 313.845 12.9708 313.714 18.9457C313.656 21.5966 313.599 24.2082 313.126 26.4271C312.566 31.6895 310.166 38.0207 307.877 44.0606C306.052 48.8765 304.298 53.5072 303.601 57.2635C303.241 58.9918 303.134 61.1246 303.024 63.3114C302.661 70.5308 302.268 78.3387 292.681 74.1223C284.058 70.3458 283.143 61.3332 282.274 52.7709ZM819.573 28.8893C821.258 27.9262 822.871 27.0047 824.955 27.5359C828.6 25.9356 832.225 24.2331 835.861 22.5252C840.965 20.1278 846.091 17.7199 851.328 15.5697C850.488 19.425 858.062 20.2005 859.429 16.5739C862.537 17.6645 866.291 18.5664 870.192 19.5038C876.507 21.0212 883.208 22.6314 888.182 25.2847C905.749 32.5567 903.984 39.1393 901.052 50.0725C899.903 54.3573 898.575 59.3104 898.161 65.2351C897.079 71.6337 890.248 73.673 883.544 75.6743C880.101 76.7022 876.692 77.7201 874.112 79.3135C862.066 87.8647 847.207 82.3039 836.95 73.8283C832.502 69.8614 829.098 65.2061 825.726 60.5955C820.931 54.0371 816.202 47.5693 808.626 43.3027C798.69 35.8074 804.337 33.9736 812.175 31.4288L812.177 31.428L812.183 31.426C813.03 31.1511 813.902 30.8679 814.783 30.5683C816.655 30.5567 818.14 29.708 819.573 28.8893ZM853.97 14.5116C869.31 9.63605 886.959 17.5327 900.454 25.5871C905.73 25.5024 906.667 18.116 907.406 12.2996C907.62 10.6142 907.817 9.0606 908.098 7.85469C903.955 6.80693 899.072 7.31851 894.066 7.84286C889.401 8.33163 884.629 8.83149 880.252 8.08989C870.946 8.77242 862.302 11.2648 853.97 14.5116ZM510.451 9.05839C508.256 8.45035 506.182 7.87574 504.621 7.74549C503.076 7.00629 522.933 7.87989 522.564 9.08949C520.814 11.929 515.334 10.411 510.451 9.05839ZM810.646 23.3319C811.272 24.536 811.837 25.6221 813.246 23.9743C813.524 23.4245 813.026 22.7092 812.517 21.9775C811.89 21.0772 811.246 20.1522 812.011 19.4803C819.285 9.61029 828.122 5.60349 840.361 8.00589C829.715 19.1514 814.138 24.8215 799.073 30.3053C794.882 31.831 790.73 33.3424 786.735 34.9531C770.018 41.1728 772.22 62.9686 773.707 77.6819L773.711 77.7239L773.799 78.5995C766.323 77.7729 758.56 77.6267 750.748 77.4797C740.856 77.2934 730.886 77.1057 721.316 75.5335C714.116 73.0371 708.589 67.458 703.157 61.9748C699.431 58.2143 695.75 54.4989 691.605 51.8539C691.868 51.3611 692.673 50.2072 693.719 48.7069L693.722 48.7031C696.993 44.014 702.621 35.9455 701.45 34.0879C702.208 34.0161 702.623 37.4355 703.086 41.2459C703.491 44.5722 703.931 48.1966 704.667 50.0563C703.474 73.8955 735.739 87.2599 748.036 64.5547C752.324 64.8103 756.359 63.501 760.367 62.2008C763.999 61.0222 767.609 59.8511 771.363 59.8591C773.151 60.0348 772.868 58.1393 772.645 56.647C772.57 56.1413 772.501 55.6819 772.522 55.3651C769.444 52.6713 764.649 54.7005 759.885 56.7169C756.953 57.9576 754.033 59.1935 751.531 59.3215C759.248 47.9671 759.318 47.9995 763.58 49.9924C765.372 50.8303 767.906 52.0147 772.06 52.8451C773.421 38.1703 787.508 33.2815 799.554 29.5015C802.243 28.6984 804.472 26.696 806.584 24.7984C807.697 23.7982 808.778 22.8268 809.877 22.0759C810.173 22.4216 810.414 22.8849 810.646 23.3319ZM179.549 90.4636C173.274 99.3844 169.57 104.651 164.589 95.5591C164.628 95.4233 163.553 94.3212 162.199 92.9321C159.702 90.3695 156.252 86.8301 157.08 86.5795C168.701 77.2786 179.557 67.4956 190.306 57.8084C210.253 39.8318 229.835 22.1847 253.268 8.56029C253.93 9.30739 254.764 10.2544 255.682 11.2968L255.682 11.2975C258.304 14.2751 261.611 18.0305 263.558 20.1271C251.588 31.242 237.671 41.451 223.857 51.5849C217.585 56.1861 211.334 60.7719 205.296 65.4199C192.825 71.5897 185.159 82.4874 179.549 90.4636ZM382.035 15.5408C383.504 15.2719 385.109 14.978 386.828 14.6083C391.312 16.0441 397.737 15.3198 404.353 14.5741C414.766 13.4003 425.648 12.1736 430.164 19.2367C430.236 19.7069 430.653 20.5988 431.196 21.7567L431.197 21.7582C432.303 24.1168 433.925 27.5785 434.196 30.8287L399.504 47.3263C396.398 44.6329 392.617 42.7847 388.981 41.0068C383.136 38.1493 377.662 35.4734 375.958 29.7619C369.079 17.9131 372.927 17.2086 382.035 15.5408ZM440.369 25.5391C441.225 25.2447 441.942 24.9984 442.192 24.8059C442.755 24.4182 442.64 23.0349 442.555 22.009C442.451 20.7674 442.392 20.0492 443.629 22.2523C443.636 22.7326 444.167 23.2764 444.707 23.8289C445.499 24.6388 446.309 25.4673 445.51 26.1415C445.256 26.0305 444.066 26.5781 442.612 27.2476C439.553 28.6559 435.322 30.6037 436.153 28.0987C435.957 27.0556 438.497 26.1825 440.369 25.5391ZM180.689 109.398C182.634 107.92 185.465 105.769 183.531 101.582C189.812 81.2803 209.899 67.9926 229.596 54.9633C240.852 47.5175 251.981 40.1561 260.332 31.6183C274.143 19.5561 276.278 41.4566 277.629 55.3126C277.907 58.1691 278.152 60.6836 278.46 62.4883C283.214 80.2005 292.094 80.0785 297.586 80.003C300.439 79.9638 302.378 79.9371 302.349 82.4299C302.547 88.7953 302.479 95.1368 302.411 101.442C302.247 116.569 302.087 131.486 305.608 146.018C313.362 160.911 315.26 178.803 316.444 195.133C307.41 194.907 297.345 192.411 287.115 189.875C272.642 186.287 257.837 182.616 245.145 185.17C238.933 176.753 230.813 168.294 223.233 160.396L223.232 160.395L223.231 160.395C221.28 158.362 219.364 156.366 217.526 154.418C212.702 149.468 207.102 142.822 201.326 135.967C193.995 127.267 186.381 118.23 179.709 111.897C178.461 111.09 179.372 110.398 180.689 109.398ZM1288.42 55.6384C1295.26 53.8397 1302.02 52.0613 1308.1 47.0155C1343.05 22.6051 1336.73 51.3665 1331.95 73.1169C1331.26 76.2305 1330.61 79.2005 1330.11 81.8503C1329.04 83.8459 1328.18 88.5194 1327.25 93.5722C1325.54 102.854 1323.59 113.416 1319.67 111.007C1319.82 121.969 1317.01 137.5 1313.11 150.73C1310.54 158.214 1307.19 165.036 1303.81 171.929C1299.69 180.316 1295.52 188.807 1292.63 198.719C1292.42 201.239 1290.2 202.365 1289.9 199.307C1292.71 198.383 1293.87 196.082 1293.71 192.495C1272.89 198.073 1249.71 190.58 1228.26 183.104C1227.29 184.179 1226.36 183.952 1225.48 182.423C1202.34 176.245 1175.11 162.865 1151.02 151.028C1148.35 149.716 1145.72 148.423 1143.14 147.16C1147.48 142.509 1154.38 137.729 1161.09 133.082C1165.13 130.277 1169.11 127.519 1172.42 124.867C1182.85 117.004 1195.56 107.68 1206.41 100.137C1210.19 97.6715 1213.85 94.8031 1217.55 91.9121C1225.33 85.8205 1233.24 79.6286 1242.62 76.8943C1249.75 76.5802 1254.56 72.9622 1259.51 69.2428C1263.03 66.5967 1266.62 63.8992 1271.16 62.3035C1276.72 58.7153 1282.6 57.1695 1288.42 55.6384ZM779.875 68.1554C778.555 58.8431 777.04 48.1548 783.426 45.0331C784.559 42.0414 787.426 41.1504 790.435 40.2153C792.758 39.4937 795.165 38.7457 796.924 36.9859C797.881 38.0431 798.941 39.4439 800.103 40.9808L800.106 40.9836L800.106 40.9847C803.101 44.9426 806.777 49.802 811.12 52.0219C816.524 54.5248 820.111 60.1972 823.659 65.8097C826.327 70.0296 828.974 74.2156 832.356 76.9951C831.932 76.981 830.637 77.9229 829.118 79.0271C826.122 81.2058 822.257 84.0165 822.502 81.3631C821.158 83.2027 818.848 82.7575 818.412 80.8087C817.326 83.989 807.847 81.4706 813.581 80.6229C808.513 81.3401 801.932 80.8208 795.278 80.2956C790.272 79.9006 785.224 79.5022 780.746 79.6243C781.097 76.7775 780.509 72.625 779.875 68.1554ZM771.968 47.7967C767.776 50.9635 756.638 43.9579 766.525 41.8999C772.142 37.8989 772.054 40.6074 771.933 44.3306V44.3359C771.897 45.4498 771.858 46.6541 771.968 47.7967ZM985.762 67.718C979.199 65.381 971.21 62.5358 977.18 60.7915C979.277 60.0875 982.189 59.0286 985.638 57.7746C1011.9 48.2252 1069.27 27.3614 1034.96 65.7559C1033.9 67.3231 1032.92 68.7931 1032 70.1695C1023.95 82.2198 1020.7 87.098 1017.19 87.2851C1014.8 87.4124 1012.3 85.3694 1008.09 81.9369C1004.47 78.9774 999.58 74.9849 992.409 70.4599C991.487 69.7568 988.775 68.791 985.762 67.718ZM1053.89 49.3189L1054.01 49.1659V49.1743C1087.91 63.439 1090.14 74.8417 1094.46 96.9507L1094.46 96.9534C1095.85 104.085 1097.46 112.33 1100.42 122.145C1100.32 122.2 1100.21 123.044 1100.06 124.103C1099.79 126.129 1099.4 128.943 1098.8 128.512C1094.08 126.551 1089 125.117 1083.89 123.678C1073.75 120.821 1063.53 117.941 1055.95 110.864C1060.52 102.447 1065.68 96.4713 1069.72 91.79C1079.44 80.5252 1082.69 76.757 1055.83 64.5211C1050.37 68.2054 1047.74 74.3171 1044.94 80.7996C1042.14 87.2937 1039.19 94.16 1033.07 99.3307C1032.83 99.9104 1028.9 97.1836 1025.93 95.1282L1025.93 95.1276C1024.22 93.9368 1022.83 92.9716 1022.67 93.0055C1031.62 78.6031 1043.54 62.9251 1053.89 49.3189ZM951.325 63.9667C952.912 63.1351 954.357 62.8411 955.659 63.0763V63.0847C976.046 66.9235 999.625 80.0779 1014.59 94.3915L1005.64 106.832C994.122 121.877 982.487 138.891 970.844 155.917L970.842 155.92C953.324 181.536 935.788 207.179 918.607 226.187C917.505 226.809 916.736 226.643 916.621 225.789C916.666 225.581 916.68 225.336 916.658 225.045C916.604 225.333 916.593 225.581 916.621 225.789C916.382 226.882 915.279 226.929 914.098 226.98C912.986 227.028 911.805 227.078 911.215 228.01C910.023 230.204 906.304 230.148 902.756 230.096C900.8 230.067 898.897 230.038 897.498 230.387C880.798 232.429 867.955 230.53 852.499 228.069C831.537 228.854 842.823 216.424 853.953 204.167C859.494 198.064 864.996 192.004 866.46 187.64C881.914 165.54 887.798 136.023 893.48 107.519C895.526 97.2586 897.545 87.1293 899.976 77.5243C900.278 76.0123 951.493 62.7319 951.325 63.9667ZM1066.72 91.8994C1062.31 96.6763 1056.88 102.545 1053.46 110.486C1049.7 110.728 1045.94 108.021 1042.31 105.407C1039.78 103.579 1037.3 101.798 1034.94 101.103C1042.94 91.5943 1049.2 79.3135 1054.27 67.4779C1080.71 76.7696 1075.89 81.9827 1066.72 91.8994ZM877.162 85.1555C882.51 82.7447 888.402 80.0887 889.828 79.8931C891.047 79.7501 892.571 78.9657 894.061 78.1987C896.074 77.1627 898.025 76.1587 899.077 76.8103C893.675 75.9225 890.628 94.8116 888.275 109.393C887.2 116.058 886.269 121.824 885.326 124.388C885.2 125.283 885.103 126.138 885.018 126.877L885.018 126.882C884.679 129.846 884.552 130.964 883.671 125.446C882.976 121.391 880.828 116.741 878.761 112.267C877.531 109.606 876.33 107.006 875.481 104.631C874.05 102.6 873.179 100.018 872.311 97.4438C871.247 94.2912 870.187 91.1492 868.106 89.0407C869.34 88.6814 873.093 86.9894 877.162 85.1555ZM719.245 87.174C717.456 82.767 715.176 77.1478 722.139 81.6739C726.891 81.8714 724.126 84.8388 721.914 87.2124C721.116 88.0698 720.389 88.8496 720.115 89.3935C719.881 88.7403 719.572 87.9784 719.246 87.1762L719.245 87.174ZM859.933 85.7059C854.011 89.6875 838.639 88.6291 830.272 85.3951L830.17 85.3882L830.068 85.3815C828.548 85.2817 826.019 85.1156 828.307 83.6227C833.458 78.3484 838.54 80.9026 843.961 83.6271C848.901 86.1096 854.122 88.7335 859.933 85.7059ZM785.397 168.626V168.624C784.49 148.573 783.435 125.241 781.93 110.687V110.679C782.161 102.669 781.636 97.2184 781.282 93.5509V93.5498C780.936 89.9616 780.755 88.0804 781.608 87.1799C782.548 86.188 784.743 86.3855 789.356 86.8006C792.459 87.0799 796.656 87.4575 802.3 87.6379C817.364 88.1261 815.526 89.0995 813.213 90.3252C811.386 91.2928 809.263 92.4177 814.926 93.5851C820.64 88.9603 826.151 90.634 831.899 92.3791C835.15 93.3663 838.476 94.3764 841.957 94.2823C844.921 95.0836 848.581 94.3276 852.232 93.5734C857.881 92.4064 863.51 91.2438 866.51 95.8615C869.598 104.47 873.888 112.978 878.044 121.221L878.05 121.232L878.063 121.259L878.071 121.274C879.932 124.966 881.766 128.604 883.453 132.175C880.761 137.903 878.94 144.634 877.083 151.499C874.039 162.756 870.896 174.374 863.654 182.524C860.868 188.439 855.619 194.496 850.298 200.635C842.561 209.563 834.672 218.665 833.985 227.758C831.122 227.654 828.221 227.615 825.3 227.575H825.298C814.107 227.424 802.62 227.269 791.809 223.432C787.503 221.829 787.609 214.349 787.692 208.484C787.735 205.437 787.772 202.825 787.18 201.701C786.59 194.999 786.03 182.61 785.397 168.626ZM727.898 92.389C728.089 98.0339 728.328 105.11 724.474 107.269C721.022 99.8347 721.039 92.9215 727.868 87.5791C727.78 88.8872 727.836 90.5576 727.898 92.3772V92.389ZM991.979 135.151C997.55 127.341 1003.07 119.604 1008.29 112.174H1008.29C1010.67 109.75 1012.59 106.754 1014.43 103.872C1016.09 101.283 1017.69 98.7861 1019.52 96.8779C1029.68 105.799 1043.35 113.854 1054.86 119.751C1077.44 124.976 1106.91 137.005 1127.57 148.723C1117.4 160.292 1103.58 169.646 1089.76 179.005C1081.1 184.874 1072.43 190.745 1064.65 197.165C1053.72 204.382 1043.22 212.433 1032.72 220.487C1015.14 233.966 997.551 247.457 977.886 257.074C967.328 251.858 959.794 241.754 952.395 231.831C948.833 227.053 945.302 222.318 941.48 218.191C935.562 210.427 944.203 200.433 952.506 190.83C957.086 185.534 961.562 180.356 963.438 175.737C972.234 162.829 982.187 148.877 991.979 135.151ZM715.957 102.969C718.537 99.1641 719.533 97.6957 722.593 107.075C724.239 109.637 720.778 108.47 719.502 107.991C718.661 107.944 717.569 108.17 716.449 108.402C714.568 108.791 712.606 109.197 711.606 108.361C713.514 106.571 714.875 104.564 715.957 102.969ZM461.224 172.898C460.143 170.939 459.135 169.112 458.984 167.732C450.802 149.235 441.411 127.269 436.464 109.243C443.266 113.414 451.038 116.556 458.806 119.697C476.237 126.744 493.651 133.784 500.06 152.435L503.874 159.34C501.98 160.755 499.327 162.499 496.856 164.123C493.604 166.26 490.667 168.19 490.19 168.891C488.696 170.603 486.88 173.151 484.852 175.997L484.851 175.998C476.558 187.635 464.723 204.242 456.901 188.942C456.236 188.562 459.9 185.681 461.799 184.188C462.419 183.701 462.851 183.361 462.882 183.305C465.56 180.759 463.261 176.592 461.224 172.898ZM138.208 171.443C138.155 170.401 138.106 169.446 139.725 168.992H139.734C149.058 151.621 160.692 130.159 175.467 116.156C190.832 133.105 207.205 151.062 222.929 168.309L222.932 168.311L222.933 168.313C227.048 172.826 231.119 177.291 235.116 181.676C240.458 186.304 241.291 199.642 241.965 210.45C242.265 215.258 242.534 219.566 243.154 222.382C242.955 227.837 243.968 235.81 245.006 243.973L245.006 243.973C246.368 254.679 247.77 265.711 246.531 271.816C244.337 272.304 242.436 272.768 240.769 273.176L240.767 273.176C229.318 275.972 228.857 276.084 219.744 262.828C206.388 255.956 201.026 258.659 196.654 260.864C192.535 262.941 189.293 264.576 181.07 257.343C165.384 252.992 149.281 246.545 133.11 240.07C119.032 234.434 104.904 228.778 90.9548 224.465C88.1021 221.596 99.4501 211.677 109.126 203.219C114.322 198.677 119.036 194.556 120.808 192.176C133.469 186.807 139.686 195.142 144.593 201.72C147.578 205.722 150.078 209.074 153.249 208.295C156.477 198.705 145.653 193.383 136.626 188.944C133.342 187.33 130.296 185.832 128.251 184.288C129.33 183.047 130.29 181.618 131.258 180.178C133.189 177.305 135.149 174.389 138.138 172.839C138.256 172.381 138.232 171.903 138.208 171.443ZM1078.37 193.398C1097.09 179.815 1115.71 166.305 1133.75 153.175C1134.34 151.56 1135.86 152.599 1137.05 153.41C1137.47 153.696 1137.84 153.954 1138.12 154.057C1151.62 162.02 1163.32 167.665 1176.6 173.225C1186.69 174.529 1196.63 179.716 1206.58 184.909C1213.3 188.415 1220.03 191.923 1226.81 194.242C1231.84 197.292 1238.23 198.277 1244.58 199.255C1254.57 200.796 1264.45 202.319 1268.7 211.865C1203.57 231.764 1138.4 249.796 1072.55 268.013L1072.55 268.013L1072.55 268.015L1072.53 268.02C1059.22 271.702 1045.88 275.393 1032.51 279.107C1025.71 281.182 1017.57 283.603 1009.04 286.139L1009.01 286.147C994.582 290.437 979.033 295.06 966.966 298.906C963.421 285.34 963.555 276.865 975.895 268.019C1008.34 244.226 1043.49 218.715 1078.3 193.456L1078.31 193.442L1078.32 193.438L1078.35 193.419L1078.36 193.407L1078.37 193.4L1078.37 193.398ZM248.391 217.062L248.39 217.049L248.389 217.048C247.889 211.728 247.391 206.44 246.934 201.206H246.943C245.532 193.108 244.969 187.959 255.326 188.665C259.419 189.454 263.859 190.322 268.482 191.226C283.054 194.077 299.449 197.284 312.547 199.484C318.741 200.556 319.179 222.083 319.448 235.291V235.293C319.529 239.262 319.594 242.479 319.796 244.163C322.674 254.556 316.875 255.301 310.622 256.106C308.479 256.381 306.284 256.664 304.365 257.343C298.378 259.753 293.325 264.77 288.3 269.759C283.379 274.646 278.484 279.506 272.764 281.863C271.281 280.521 270.417 277.568 269.52 274.501C267.816 268.676 265.993 262.441 259.576 266.062C251.829 270.983 251.669 263.274 251.526 256.394V256.392C251.487 254.522 251.449 252.714 251.26 251.236C250.535 239.843 249.456 228.384 248.391 217.07L248.391 217.068L248.391 217.067L248.391 217.062ZM1272.77 207.174C1272.33 206.349 1271.86 205.479 1271.15 204.877C1271.04 203.604 1269.41 202.474 1268.16 201.603C1266.91 200.733 1266.03 200.122 1267.41 199.887C1268.53 199.786 1269.77 199.607 1271.07 199.419C1277.89 198.434 1286.3 197.219 1287.2 205.918C1287.84 206.792 1282.6 207.898 1278.94 208.669C1277.11 209.055 1275.68 209.357 1275.57 209.505C1274.1 209.67 1273.46 208.479 1272.77 207.174ZM1280.05 218.065C1278.26 215.822 1289.46 210.337 1289.19 212.991C1288.32 214.669 1287.83 216.54 1287.4 218.159C1286.31 222.334 1285.65 224.838 1280.05 218.065ZM951.87 278.281L951.869 278.278C950.72 271.533 949.783 266.036 949.46 265.088V265.096C948.544 248.767 941.32 233.613 925.394 229.136C925.494 229.13 926.85 227.152 928.533 224.698L928.537 224.692L928.539 224.69C931.369 220.561 935.12 215.09 935.373 215.385C942.617 229.852 954.533 242.598 965.312 254.128L965.316 254.133C967.923 256.921 970.463 259.638 972.854 262.291C971.558 265.277 968.983 267.761 966.413 270.24C962.687 273.833 958.973 277.416 959.187 282.501C960.055 285.125 960.386 288.177 960.72 291.25C961.291 296.51 961.869 301.829 965.151 305.164C971.232 303.307 977.281 301.447 983.308 299.593L983.32 299.589L983.322 299.589C1017.1 289.199 1050.22 279.014 1084.46 270.825C1106.35 264.085 1138.64 255.077 1171.68 245.862C1208.26 235.658 1245.75 225.202 1271.02 217.292C1277.35 222.055 1283.51 230.337 1281.52 239.569C1280.38 251.681 1285.27 262.395 1290.18 273.138C1294 281.498 1297.82 289.875 1298.82 298.94C1299.52 302.445 1298.54 305.781 1297.57 309.098C1296.5 312.782 1295.43 316.443 1296.67 320.284C1299.64 327.013 1304.36 321.603 1300.42 317.059C1300.1 316.263 1300.55 315.657 1301.01 315.04C1301.59 314.256 1302.19 313.456 1301.24 312.229C1301.02 311.708 1300.36 306.945 1301.09 306.794C1308.69 327.508 1288.3 349.474 1267.17 344.476C1268.2 344.137 1270.29 344.101 1272.72 344.06C1278.71 343.958 1286.72 343.821 1285.72 339.016C1277.64 342.785 1268.1 342.923 1258.66 343.059C1247.02 343.227 1235.52 343.393 1227.06 350.365C1216.1 360.028 1203.26 368.256 1190.34 376.534L1190.34 376.535C1178.71 383.988 1167.02 391.482 1156.57 400.101C1154.43 402.182 1151.45 402.902 1148.53 403.608L1148.53 403.609C1147.74 403.801 1146.95 403.992 1146.18 404.209C1142.04 406.452 1138.97 409.702 1135.88 412.973C1132.98 416.046 1130.06 419.138 1126.22 421.429C1112.25 432.08 1102.45 442.135 1091.59 456.255C1073.63 466.688 1055.79 475.575 1036.22 462.37C1041.83 465.604 1037.66 452.937 1034.76 457.112C1032 470.507 1036.79 470.996 1045.47 471.883C1047.6 472.1 1049.96 472.341 1052.5 472.803C1051.86 473.15 1050.81 473.222 1049.62 473.302C1047.91 473.419 1045.93 473.554 1044.49 474.567C1029.3 475.877 1033.98 496.323 1041.33 490.317C1029.65 483.123 1048.39 478.307 1066.63 473.617C1078.41 470.591 1089.98 467.617 1093.03 464.092C1095.02 461.992 1097.01 459.879 1098.99 457.767C1114.82 440.881 1130.66 423.999 1151.5 413.255C1159.81 408.51 1169.56 415.519 1178.07 421.634C1180.29 423.227 1182.42 424.759 1184.42 426.007C1200.27 436.776 1200.04 436.96 1192.09 443.336C1186.91 447.489 1178.46 454.268 1169.04 468.309C1159.19 486.14 1169.18 474.884 1180.18 462.482C1187.69 454.026 1195.66 445.037 1198.15 444.369C1205.15 438.052 1211.97 445.597 1218.7 453.035C1222.72 457.485 1226.71 461.897 1230.68 463.277C1234.6 462.022 1228.67 456.744 1223.27 451.951L1223.27 451.95L1223.27 451.949C1220.11 449.142 1217.14 446.502 1216.45 444.932C1207.37 435.269 1195.87 427.337 1185.14 419.94L1185.13 419.939C1182.14 417.877 1179.21 415.857 1176.41 413.852C1160.69 402.481 1164.25 400.286 1172.23 395.373C1175.49 393.365 1179.49 390.902 1183.22 387.173C1192.39 382.436 1217.91 365.333 1226.65 358.79C1229.58 367.103 1227.8 367.02 1225.15 366.896C1223.69 366.827 1221.95 366.745 1220.6 368.072C1220.85 380.085 1223.65 379.176 1231.33 376.686C1232.8 376.209 1234.44 375.674 1236.29 375.161C1233.16 377.866 1228.76 382.831 1227.37 387.736C1226.43 391.356 1222.38 398.418 1218.02 406.006L1218.02 406.007C1210.96 418.317 1203.11 432.009 1206.46 434.633C1211.32 432.44 1214.73 424.654 1217.02 419.418C1218.16 416.832 1219.02 414.868 1219.65 414.507C1220.83 412.051 1221.99 409.371 1223.2 406.604C1230.27 390.346 1238.66 371.067 1259.45 376.421C1265.02 379.072 1270.55 378.636 1276.03 378.203C1279.48 377.931 1282.9 377.661 1286.31 378.16C1299.35 384.026 1309.97 394.553 1320.06 404.553L1320.08 404.568C1320.86 405.345 1321.64 406.12 1322.42 406.888C1323.59 409.116 1324.68 411.305 1325.75 413.466L1325.75 413.467C1328.91 419.81 1331.93 425.901 1336.58 431.979C1341.77 439.812 1340.05 448.228 1338.31 456.727C1336.5 465.563 1334.68 474.489 1340.58 482.942C1342.26 495.685 1353.89 515.307 1361.61 522.892C1369.85 550.99 1375.52 572.368 1381.3 602.474C1379.68 604.197 1375.18 608.165 1369.35 613.308L1369.35 613.309C1349.92 630.456 1315.68 660.669 1323.59 664.365C1331.63 658.647 1335.91 653.058 1338.87 649.183C1344.71 641.537 1345.45 640.565 1360.03 658.443C1353.48 660.271 1344.19 664.649 1336.41 668.318L1336.39 668.327L1336.26 668.392C1335.75 668.629 1335.26 668.863 1334.77 669.093C1334.18 669.368 1333.61 669.638 1333.05 669.901C1332.27 670.082 1330.96 670.208 1329.47 670.352C1324.05 670.874 1316.23 671.627 1322.83 676.091C1326.64 676.078 1330.43 676.144 1334.2 676.209H1334.23C1342.67 676.353 1351.04 676.497 1359.36 675.772C1362.13 676.903 1388.67 685.019 1391.99 679.61C1390.88 684.109 1389.11 688.508 1387.37 692.816C1383.58 705.105 1376.36 713.152 1362.32 711.304C1349.01 716.474 1334.74 719.585 1320.58 722.673C1296.79 727.86 1273.31 732.981 1255.15 747.676C1255.27 753.219 1253.09 760.148 1251.09 766.538C1250.42 768.661 1249.78 770.724 1249.24 772.658C1238.69 784.527 1224.92 796.178 1210.77 802.73C1211.72 804.418 1205.72 806.333 1204.48 804.872C1192.15 805.914 1178.52 804.397 1164.54 802.84L1164.54 802.84C1149.12 801.123 1133.28 799.359 1118.28 800.932C1093.33 803.225 1067.27 801.554 1042.38 798.253C1041.88 798.614 1040.02 795.296 1038.47 792.531C1037.39 790.608 1036.46 788.953 1036.24 788.987C1035.48 788.635 1037.24 785.191 1037.32 785.048C1037.44 784.754 1037.57 784.754 1037.69 785.048C1037.95 791.373 1061.78 805.913 1061.94 796.463C1063.02 778.387 1064.36 748.415 1060.94 730.859C1071.02 709.103 1063.64 680.224 1053.7 661.534C1052.07 655.771 1052.51 649.165 1052.94 642.54C1053.42 635.192 1053.9 627.819 1051.59 621.542C1049.37 622.239 1040.3 621.021 1037.75 620.441C1036.3 604.006 1043.17 605.164 1054.03 606.994C1056.01 607.328 1058.12 607.683 1060.34 607.959C1061.37 608.104 1062.51 608.264 1063.73 608.437C1064.58 608.558 1065.47 608.685 1066.4 608.817C1076.8 610.295 1091.44 612.374 1099.75 613.251C1100.7 612.815 1103.73 613.375 1107.29 614.031C1114.49 615.362 1123.85 617.09 1122.47 611.747C1110.99 609.204 1097.14 607.534 1083.48 605.889L1083.48 605.888C1072.38 604.551 1061.41 603.229 1051.96 601.466C1039.57 600.154 1039.67 599.548 1040.76 592.602C1041.25 589.498 1041.93 585.127 1041.79 578.861C1042.51 571.704 1040.78 564.732 1039.04 557.691L1039.02 557.64C1038.55 555.717 1038.07 553.789 1037.64 551.851C1037.94 552.116 1038.31 552.392 1038.77 552.679C1053.65 548.945 1072.35 543.818 1090.59 538.822L1090.59 538.82L1090.6 538.819L1090.64 538.808C1104.63 534.973 1118.34 531.216 1129.82 528.226C1140.7 532.275 1147.49 520.154 1133.08 522.262C1121.33 525.691 1107.05 529.44 1092.7 533.208L1092.69 533.21C1077.69 537.149 1062.61 541.109 1050.28 544.741C1047.41 536.932 1046.91 537.372 1045.18 538.892C1044.19 539.767 1042.79 541 1040.29 541.221C1039.47 532.548 1038.43 523.607 1037.38 514.604L1037.38 514.594L1037.38 514.59V514.587L1037.38 514.586C1035.55 498.857 1033.71 482.938 1032.95 467.914C1033.08 464.765 1033.27 461.55 1033.46 458.315L1033.46 458.306V458.303C1034.06 447.966 1034.67 437.424 1033.54 428.182C1024.46 415.636 1018.18 400.133 1012.14 385.218C1010.49 381.14 1008.85 377.105 1007.18 373.187C981.237 361.007 957.003 338.26 957.818 307.575C956.725 306.769 953.95 290.485 951.87 278.281ZM1037.1 549.267C1038.42 547.707 1042.71 546.727 1045.49 546.091C1046.22 545.924 1046.85 545.78 1047.29 545.656C1047.3 538.929 1044.89 541.632 1042.54 544.264C1040.13 546.953 1037.8 549.567 1038.18 541.977C1037.57 540.82 1037.61 538.973 1037.65 537.221C1037.7 535.119 1037.74 533.154 1036.65 532.687C1035.56 538.383 1036.06 543.873 1037.1 549.267ZM1392.33 678.146C1393.44 672.903 1393.58 667.524 1391.67 661.996C1390.27 662.013 1388.66 661.948 1386.96 661.879C1377.43 661.494 1365.02 660.992 1371.3 673.966C1371.34 674.638 1379.43 675.353 1385.47 675.887L1385.47 675.887C1388.95 676.195 1391.75 676.443 1391.94 676.587C1392.18 677.166 1392.3 677.684 1392.33 678.146ZM68.5352 228.38C67.9724 227.758 66.4016 223.432 68.2244 223.978C68.2917 224.089 68.5485 224.299 68.8567 224.551C69.5106 225.086 70.3956 225.811 70.19 226.171C70.1127 226.286 70.0312 226.573 69.9349 226.914C69.665 227.867 69.278 229.234 68.5352 228.38ZM650.58 234.491C673.596 233.706 696.925 232.911 719.552 232.639V232.63C725.265 233.235 732.455 232.482 739.955 231.696C759.21 229.678 780.513 227.446 784.14 247.431C794.171 248.974 804.916 248.352 815.644 247.731C824.249 247.232 832.843 246.735 841.05 247.355C842.72 245.507 842.698 241.36 842.68 238.007C842.673 236.773 842.667 235.646 842.746 234.781C852.681 236.739 862.852 236.74 873.041 236.741C882.254 236.742 891.482 236.743 900.564 238.191C903.52 239.667 906.439 238.953 909.341 238.244C912.137 237.56 914.917 236.88 917.7 238.166C919.539 235.965 922.681 236.377 925.419 237.007C942.624 244.309 946.072 269.858 949.573 295.807C952.742 319.292 955.955 343.104 969.452 354.01C975.144 358.756 974.255 362.28 973.489 365.317C972.888 367.699 972.363 369.781 975.147 371.919C975.112 371.689 975.054 371.365 974.985 370.973C974.402 367.662 972.969 359.525 976.491 362.402C979.041 365.782 983.238 367.815 987.62 369.938C992.059 372.088 996.689 374.331 999.994 378.16C1008.45 392.437 1015.57 408.353 1022.47 423.776C1022.93 424.796 1023.39 425.814 1023.84 426.83C1029.44 434.804 1028.54 444.442 1027.67 453.742C1027.23 458.52 1026.79 463.208 1027.24 467.536C1024.36 469.129 1024.83 470.653 1025.57 473.052L1025.58 473.074C1025.64 473.277 1025.7 473.487 1025.77 473.704C1025.81 473.862 1025.86 474.024 1025.91 474.189C1026.52 478.805 1027.34 483.627 1028.19 488.583C1031.48 507.89 1035.12 529.238 1028.06 548.395C1024.91 552.687 1029.02 556.761 1032.45 558.953C1038.29 570.487 1037.58 589.395 1030.86 599.752C1032.3 625.011 1029.96 654.268 1020.54 678.452C1017.17 683.3 1012.33 686.03 1007.42 688.803C1003.97 690.747 1000.48 692.713 997.441 695.445C996.196 696.083 994.974 697.472 993.763 698.847C991.533 701.38 989.341 703.868 987.126 701.543C984.821 701.538 984.09 703.807 983.368 706.051C982.932 707.405 982.499 708.751 981.724 709.582C980.967 710.287 980.117 711.096 979.214 711.955C975.941 715.071 971.967 718.853 969.15 720.763C965.166 721.994 961.594 723.403 958.323 724.694C946.73 729.269 938.92 732.351 929.997 720.695C926.004 720.093 925.884 722.758 925.761 725.518C925.722 726.374 925.684 727.24 925.528 728.02C919.237 731.674 913.407 722.795 911.366 717.025C897.346 707.087 918.834 734.161 921.085 736.664C914.93 741.431 907.496 745.875 900.634 749.977C897.98 751.563 895.412 753.098 893.037 754.581C878.386 771.045 858.301 780.898 838.397 790.664L838.395 790.664C826.838 796.334 815.342 801.975 805.005 808.862C798.731 810.807 792.376 809.856 786.074 808.912L786.072 808.912C783.557 808.536 781.051 808.161 778.562 807.971C774.822 806.894 771.622 804.74 768.447 802.601C763.549 799.303 758.707 796.043 752.026 796.833C747.302 797.633 742.913 799.897 738.451 802.2C731.205 805.939 723.764 809.778 714.369 807.61C721.193 807.241 721.015 805.4 720.736 802.498C720.277 797.75 719.545 790.161 748.792 781.537C761.244 777.92 767.016 782.891 773.078 788.111C776.716 791.244 780.458 794.467 785.811 795.976C786.193 797.101 786.383 798.64 786.585 800.278C787.164 804.98 787.842 810.491 793.455 809.307C795.192 809.975 793.237 803.879 791.781 799.339C790.949 796.742 790.279 794.654 790.557 794.632C790.033 790.719 787.456 789.978 784.548 789.141C781.913 788.383 779.006 787.546 777.109 784.199C763.408 769.726 745.021 776.833 728.078 784.561C722.388 788.01 714.716 786.264 708.278 784.799L708.277 784.799C707.16 784.545 706.08 784.299 705.054 784.09C679.223 774.961 652.836 766.58 626.389 758.18C578.199 742.874 529.81 727.504 484.226 707.432L482.085 706.026L482.054 706.006L482.053 706.005C463.691 693.944 442.381 679.947 421.755 672.975C419.071 671.894 416.108 670.842 413.046 669.754L413.044 669.753L413.042 669.753L413.039 669.752C402.542 666.024 390.887 661.885 385.366 654.772C387.752 652.681 389.558 643.491 385.526 646.952C384.884 647.633 384.304 648.953 383.719 650.287C382.803 652.374 381.872 654.496 380.662 654.26C379.854 653.51 379.011 652.699 378.14 651.86L378.14 651.859C374.289 648.151 369.876 643.902 365.307 642.004C362.562 639.8 359.133 637.711 355.561 635.535C346.202 629.833 335.868 623.538 334.336 613.033C336.814 588.135 345.517 562.355 357.47 538.13C360.569 532.414 363.182 526.04 365.806 519.637C369.862 509.744 373.947 499.78 379.898 492.064C383.73 482.6 389.062 473.356 394.421 464.065L394.421 464.064C399.236 455.716 404.073 447.331 407.862 438.716C412.902 427.326 420.672 410.987 432.877 404.956C446.759 398.899 443.528 396.117 439.663 392.789C437.155 390.63 434.381 388.241 435.842 384.578C437.601 379.343 440.178 374.121 442.497 369.422C442.868 368.669 443.233 367.93 443.587 367.207C442.923 365.779 443.352 360.881 445.636 361.024C444.935 357.564 448.2 354.621 451.344 351.787C452.978 350.314 454.579 348.871 455.574 347.399C458.609 344.703 461.574 341.918 464.542 339.13C472.504 331.65 480.49 324.147 489.938 318.285C492.466 315.07 493.25 316.227 493.957 317.269C494.425 317.959 494.859 318.599 495.742 317.89C496.181 317.542 496.63 317.182 497.088 316.814L497.096 316.808L497.098 316.806C501.132 313.566 505.897 309.74 510.804 308.768L526.453 294.673C552.543 266.701 588.151 246.826 623.96 235.369C632.742 235.099 641.629 234.796 650.564 234.491L650.58 234.491ZM790.28 240.115C787.063 234.125 822.57 233.134 827.45 234.705V234.713C832.767 233.873 836.329 238.023 833.271 242.332C828.35 241.838 822.862 242.349 817.323 242.866C807.527 243.779 797.567 244.708 790.28 240.115ZM283.071 283.336C287.44 280.532 293.061 276.925 295.68 270.262C300.753 262.786 311.547 260.266 319.561 260.753C321.19 273.589 321.426 278.872 309.296 285.886C302.98 288.653 300.558 293.605 298.696 297.412C296.048 302.828 294.535 305.922 284.55 297.092C273.111 289.727 276.803 287.358 283.071 283.336ZM220.199 271.426C221.327 273.839 222.46 276.263 224.439 277.738C221.164 281.327 213.953 276.922 206.974 272.659C202.729 270.067 198.57 267.526 195.434 266.869C198.64 259.453 206.626 261.926 213.028 263.909L213.444 264.038C217.122 264.843 218.656 268.125 220.199 271.426ZM257.426 291.892C269.925 288.725 269.984 279.049 259.938 271.942C252.386 272.791 251.907 287.423 257.426 291.892ZM247.111 276.361C249.874 276.268 251.025 286.281 250 289.624V289.633C248.39 292.526 239.473 288.191 232.192 284.65C228.652 282.929 225.498 281.395 223.759 280.972C227.901 281.576 232.687 280.147 237.559 278.692C240.758 277.737 243.994 276.77 247.111 276.361ZM273.789 303.459C263.793 300.956 257.359 296.344 270.664 290.842C271.872 290.368 273.571 293.049 275.05 295.383C275.825 296.605 276.539 297.731 277.09 298.259L273.789 303.459ZM284.391 310.193C279.693 308.484 273.771 306.33 278.846 301.04C283.382 299.738 292.311 308.113 294.134 313.48C294.497 315.253 292.625 314.12 290.706 312.959C289.47 312.211 288.214 311.451 287.523 311.447C286.689 311.029 285.579 310.625 284.391 310.193ZM246.01 323.123C231.596 326.677 233.125 310.985 245.238 306.987C254.737 304.718 250.385 313.765 247.578 319.6C246.883 321.045 246.282 322.293 246.01 323.123ZM261.564 307.904C262.536 308.418 263.524 308.941 264.44 309.07C270.762 311.237 268.921 312.455 266.019 314.375C263.635 315.952 260.535 318.003 260.66 321.443C258.889 322.276 257.481 321.788 256.111 321.314C254.552 320.773 253.042 320.25 251.101 321.712C250.782 321.367 253.547 315.745 255.621 311.528C256.825 309.08 257.796 307.106 257.796 306.911C258.853 306.469 260.192 307.178 261.564 307.904ZM284.3 317.55L284.302 317.552C286.443 318.687 288.342 319.694 289.556 320.108C290.119 326.668 275.755 321.334 271.126 319.007C267.388 308.58 277.183 313.776 284.3 317.55ZM1325.3 337.865C1323.65 336.479 1323.54 335.228 1324.97 334.127C1325.51 332.384 1323.71 330.794 1322.74 329.94C1322.21 329.47 1321.93 329.223 1322.44 329.297C1342.52 330.616 1364.08 332.531 1381.08 344.359C1382.63 347.006 1382.97 349.232 1383.25 351.074C1383.8 354.672 1384.12 356.804 1392.81 357.748C1401.22 363.89 1393.78 368.407 1386.63 372.746C1383.59 374.591 1380.6 376.403 1378.91 378.295C1369.87 387.383 1343.18 389.257 1331.84 388.45C1328.15 381.967 1324.57 375.061 1320.95 368.085L1320.95 368.083C1316.98 360.436 1312.96 352.703 1308.73 345.35C1304.7 339.94 1300.27 332.867 1310.48 332.565C1311.6 334.359 1312.73 334.077 1313.89 333.79C1314.74 333.578 1315.61 333.363 1316.48 333.993C1317.07 335.253 1318.19 335.757 1319.69 335.673C1319.76 337.975 1323.77 340.965 1325.3 337.865ZM1386.55 345.098C1386.52 350.129 1391.57 354.909 1395.8 351.263C1394.48 347.828 1381.02 339.218 1386.55 345.098ZM1251.14 348.567C1292.1 346.534 1311.51 367.257 1321.92 403.461C1321.52 402.936 1320.72 402.159 1319.81 401.272C1317.4 398.913 1314.18 395.777 1315.57 394.532C1315.61 394.534 1315.65 394.537 1315.69 394.542C1315.76 394.549 1315.84 394.56 1315.92 394.571L1315.93 394.571C1316.63 394.667 1317.8 394.825 1317.65 393.759C1315.22 389.237 1310.3 386.548 1305.22 383.778C1301.11 381.532 1296.9 379.233 1293.84 375.859C1287.58 370.822 1278.34 372.542 1271.09 373.893L1270.5 374.002C1257.32 369.256 1243.62 371.887 1230.28 374.447L1230.27 374.449C1228.36 374.815 1226.46 375.181 1224.57 375.523C1223.46 375.693 1223.44 373.951 1223.43 372.458C1223.42 371.593 1223.41 370.811 1223.19 370.533C1223.55 369.586 1224.71 369.59 1225.99 369.594C1226.94 369.597 1227.97 369.601 1228.8 369.223C1230.94 367.992 1230.4 364.972 1229.87 362.055C1229.58 360.412 1229.29 358.802 1229.49 357.563C1234.73 352.011 1243.57 348.139 1251.14 348.567ZM1415.35 351.789C1412.83 353.23 1409.84 354.105 1406.99 354.942C1404.14 355.777 1401.42 356.574 1399.42 357.857C1401.41 363.686 1407.87 358.136 1412.53 354.126C1413.58 353.218 1414.55 352.389 1415.35 351.789ZM427.19 401.201C424.611 404.864 438.639 397.27 437.287 396.103C432.7 391.987 428.887 397.01 427.19 401.201ZM396.362 406.701C405.954 401.069 422.206 391.527 410.827 404.528C409.214 406.852 407.768 409.336 406.42 411.653C400.986 420.993 397.134 427.613 390.289 410.047C390.808 409.962 393.23 408.54 396.362 406.701ZM379.746 469.064C382.146 464.69 384.42 460.544 385.081 457.952H385.089C386.943 451.987 391.058 446.732 395.202 441.438C399.078 436.489 402.979 431.506 405.081 425.881C416.413 403.285 428.047 398.816 407.064 424.621C406.732 426.617 403.293 431.278 400.422 435.169L400.42 435.171L400.419 435.173C396.537 440.433 393.696 444.283 400.982 438.229C403.485 435.384 400 442.574 397.625 447.472C396.725 449.329 395.985 450.857 395.791 451.383C392.982 455.382 390.542 460.248 388.081 465.154C383.891 473.51 379.643 481.983 373.413 486.487C371.653 483.818 375.864 476.142 379.746 469.064ZM398.076 426.469C386.517 442.907 376.891 458.741 367.726 476.339H367.718C366.7 477.716 364.797 472.955 363.404 469.468C362.671 467.634 362.079 466.152 361.83 466.1C361.838 464.259 362.659 462.56 363.511 460.797C364.467 458.819 365.462 456.761 365.391 454.331C360.712 446.721 356.47 438.052 358.764 427.745C363.37 424.544 368.494 421.91 373.634 419.268L373.638 419.266C378.3 416.869 382.976 414.466 387.29 411.626C388.658 414.178 390.734 416.688 392.777 419.16C394.822 421.634 396.836 424.069 398.076 426.469ZM359.127 504.366C360.963 499.13 362.89 493.638 367.004 493.769H367.012C374.517 490.916 360.125 522.492 348.236 548.575L348.235 548.576C341.4 563.574 335.392 576.755 334.849 580.533C325.693 608.27 294.319 581.549 308.842 560.717C317.691 547.229 333.07 534.041 340.719 527.483L341.115 527.143C342.51 526.213 344.227 526.451 345.874 526.68C348.184 527.001 350.357 527.304 351.313 524.337C348.034 522.634 350.231 520.032 352.587 517.242C354.148 515.393 355.779 513.461 355.933 511.653C357.186 509.899 358.144 507.169 359.127 504.366ZM1365.4 516.079L1365.4 516.078L1365.4 516.076L1365.4 516.074L1365.4 516.073L1365.4 516.071L1365.4 516.07L1365.4 516.069C1364.62 514.814 1363.88 513.625 1363.24 512.863C1361.23 511.115 1367.92 511.216 1367.44 512.123C1364.91 514.94 1366.6 516.851 1368.33 518.811C1369.09 519.663 1369.85 520.524 1370.27 521.473C1368.83 521.586 1367.03 518.694 1365.4 516.079ZM1377.73 544.611C1376.57 537.53 1375.4 530.337 1372.32 523.951C1368.39 517.121 1370.29 508.419 1377.36 517.81C1381.88 528.529 1386.95 541.481 1388.13 552.645C1388.05 552.655 1386.8 553.51 1385.33 554.516C1383.18 555.993 1380.54 557.797 1380.4 557.752C1379.19 553.575 1378.46 549.116 1377.73 544.611ZM1394.42 563.088C1394.95 565.171 1395.57 567.602 1396.67 569.991C1397.09 571.616 1398.02 573.582 1398.81 575.278C1399.34 576.389 1399.8 577.384 1400.04 578.091C1399.8 577.64 1397.59 575.571 1394.88 573.042L1394.88 573.038L1394.87 573.037C1389.9 568.394 1383.28 562.201 1384.14 561.599C1392.2 554.345 1392.99 557.436 1394.42 563.088ZM1386.19 584.97L1386.19 584.964L1386.18 584.958C1385.34 581.423 1384.21 576.675 1384.55 576.568C1388.94 573.88 1389.66 573.83 1392.96 577.887C1392.73 578.952 1392.64 580.154 1392.56 581.36C1392.29 585.138 1392.03 588.956 1387.02 588.74C1387.06 588.636 1386.67 587.006 1386.19 584.97ZM1399.89 584.069C1401.48 584.977 1399.78 585.422 1398.67 585.296C1395.03 586.929 1395.14 585.279 1395.28 583.217C1395.35 582.278 1395.41 581.254 1395.14 580.415C1394.41 578.452 1395.18 579.373 1396.35 580.782C1397.48 582.146 1398.99 583.966 1399.89 584.069ZM1388.01 595.775C1388 594.508 1387.99 593.3 1387.78 592.545C1389.31 591.456 1390.88 590.88 1392.48 590.293C1394.58 589.523 1396.72 588.734 1398.9 586.741C1397.94 588.454 1396.01 589.824 1394.07 591.191C1390.48 593.732 1386.91 596.259 1389.69 600.945C1388.05 601.13 1388.03 598.332 1388.01 595.775ZM316.18 629.029C317.667 621.108 319.149 613.209 317.637 605.363C316.656 601.767 314.583 598.507 312.58 595.357C311 592.87 309.463 590.453 308.54 587.992C309.889 588.813 310.844 590.313 311.804 591.821C313.487 594.464 315.184 597.13 319.04 596.199C320.589 596.119 322.094 596.203 323.581 596.287C326.441 596.448 329.237 596.605 332.161 595.577C328.969 607.505 326.02 622.214 338.142 630.605C343.336 634.754 350.92 639.63 358.138 644.27L358.142 644.273L358.148 644.276L358.156 644.282L358.179 644.296L358.186 644.301C361.503 646.434 364.742 648.516 367.634 650.455C365.231 653.123 363.01 657.053 360.696 661.149C354.59 671.956 347.832 683.918 335.344 676.906C334.247 675.399 332.299 674.647 330.407 673.917C327.65 672.852 325.012 671.834 325.306 668.59C323.743 671.318 322.479 668.757 321.1 665.965C320.063 663.865 318.962 661.634 317.62 661.425C312.125 650.633 314.156 639.809 316.18 629.029ZM1387.92 638.706C1388.96 647.604 1389.89 655.466 1391.02 659.392C1386.01 659.051 1382.01 658.975 1378.69 658.912C1364.81 658.648 1362.74 658.609 1348.19 640.467C1351.3 634.299 1357.92 629.298 1364.47 624.337C1372.81 618.035 1381.06 611.797 1381.93 603.314C1384.76 611.883 1386.46 626.301 1387.92 638.706ZM991.579 709.736C1001.48 701.184 1011.33 692.681 1023.2 687.776L1023.2 687.784C1030.95 679.837 1033.01 661.013 1034.92 643.615C1035.74 636.115 1036.54 628.879 1037.74 622.894L1047.79 624.238C1048.79 632.218 1048.2 641.612 1047.66 650.106L1047.58 651.368C1047.55 651.842 1047.52 652.314 1047.49 652.781C1048.17 660.053 1051.07 667.729 1054.07 675.677C1058.53 687.47 1063.2 699.862 1061.22 712.421C1060.76 714.247 1060.19 716.144 1059.6 718.093L1059.6 718.094C1057.1 726.427 1054.32 735.706 1058.04 744.434C1061.68 759.786 1055.86 762.336 1047.23 766.118C1042.36 768.255 1036.59 770.784 1031.12 776.236C1034.41 779.654 1033.55 781.857 1032.42 784.756C1031.96 785.94 1031.45 787.24 1031.16 788.786C1031.23 790.827 1032.86 793.196 1034.15 794.901C1037.2 799.097 1026.5 796.26 1019.96 794.528C1018.02 794.013 1016.45 793.596 1015.71 793.49C1010.99 791.639 1006.8 790.043 1002.99 788.591L1002.99 788.591C985.66 781.994 976.191 778.389 960.892 767.441C959.638 766.17 957.787 764.561 955.688 762.735L955.682 762.73L955.68 762.729C946.322 754.592 932.032 742.168 943.555 736.235C963.555 733.941 977.622 721.791 991.579 709.736ZM375.781 661.085C371.588 670.768 365.906 683.891 354.438 680.031C353.434 679.85 360.691 669.637 366.111 662.009C369.265 657.57 371.797 654.007 371.716 653.806C371.86 653.232 373.966 654.851 375.582 656.095L375.583 656.095C376.517 656.814 377.288 657.407 377.42 657.376C376.894 658.514 376.352 659.767 375.782 661.084L375.781 661.085ZM382.632 664.87C382.087 666.631 381.483 668.582 381.99 669.699H381.981C381.979 670.828 382.276 671.811 382.517 672.61C383.027 674.296 383.29 675.167 379.974 674.882C379.733 675.119 379.484 675.377 379.225 675.644L379.224 675.645C377.666 677.257 375.771 679.216 373.48 679.015C372.615 676.562 375.559 672.38 378.287 668.503C380.353 665.567 382.295 662.807 382.368 661.106C383.845 660.951 383.28 662.777 382.632 664.87ZM1346.17 669.208C1342.45 670.469 1338.92 671.663 1336.21 671.051C1339.33 670.479 1342.04 668.788 1344.77 667.083C1347.69 665.263 1350.63 663.428 1354.11 662.92C1361.14 660.098 1369.6 663.937 1358.51 667.145C1354.72 666.313 1350.32 667.802 1346.17 669.208ZM416.469 687.353L415.848 686.926C415.42 686.632 415 686.344 414.59 686.062C411.725 683.598 406.624 682.151 401.454 680.685C391.313 677.809 380.91 674.859 386.618 664.004C395.641 669.758 406.577 673.704 417.584 677.676C433.732 683.502 450.031 689.383 460.656 701.107C460.261 702.14 452.919 710.33 451.29 709.196C439.688 703.309 426.066 693.948 416.469 687.353ZM1346.05 671.807C1345.27 671.791 1346.52 671.11 1346.86 671.161C1349.76 669.698 1352.57 669.654 1355.33 669.61C1358.75 669.556 1362.1 669.503 1365.45 666.751C1366.75 665.999 1367.5 668.873 1368.07 671.029C1368.34 672.055 1368.57 672.919 1368.79 673.151C1362.46 670.279 1353.51 670.438 1346.05 671.807ZM492.037 733.305C488.705 732.246 485.424 731.203 482.26 730.137C482.26 730.116 477.427 726.986 471.84 723.367L471.794 723.338L471.784 723.331C464.124 718.371 455.073 712.509 455.112 712.48C454.169 711.998 457.523 708.926 460.114 706.552C461.633 705.161 462.89 704.009 462.865 703.761C467.998 703.241 472.186 706.289 476.373 709.336C479.291 711.459 482.208 713.582 485.444 714.496C493.286 719.122 502.473 722.358 511.249 725.449C515.239 726.854 519.144 728.229 522.799 729.692C522.622 729.77 522.215 731.487 521.7 733.659C520.721 737.785 519.353 743.55 518.439 742.829C510.099 739.047 500.89 736.119 492.042 733.307L492.037 733.305ZM1404.49 747.784C1401.01 739.047 1396.29 727.215 1397.12 727.231C1400.32 727.13 1399.55 724.917 1398.81 722.78C1398.25 721.183 1397.7 719.627 1398.84 719.024C1399.55 719.216 1400.27 719.408 1400.99 719.601L1400.99 719.601L1401.02 719.61C1412.88 722.785 1425.82 726.249 1433.22 736.479C1434.57 738.622 1436.46 738.432 1438.23 738.253C1439.66 738.109 1441 737.973 1441.94 739.058C1443.14 742.749 1434.46 745.758 1428.79 747.723C1425.88 748.732 1423.77 749.467 1424.19 749.877C1421.4 751.084 1418.96 752.373 1416.8 753.515L1416.79 753.516C1413.17 755.426 1410.33 756.926 1407.99 756.941C1408.09 756.797 1406.5 752.801 1404.49 747.784ZM531.064 747.357C529.678 747.55 528.477 747.164 527.444 746.198V746.206C520.55 745.044 521.956 741.686 523.681 737.567C524.598 735.377 525.606 732.971 525.504 730.565C536.97 733.598 587.294 751.104 599.928 755.547C597.792 756.502 595.614 758.078 593.396 759.682C590.171 762.016 586.861 764.41 583.472 765.047L531.064 747.357ZM623.474 779.189L623.473 779.189C619.278 777.555 615.518 776.09 614.577 776.018V776.026C610.03 773.628 604.8 772.231 599.654 770.857C594.401 769.454 589.236 768.075 584.976 765.677C591.311 767.861 594.94 765.436 598.766 762.879C603.712 759.573 608.987 756.048 620.86 761.973C622.737 762.093 625.087 763.475 627.225 764.733C628.533 765.502 629.761 766.225 630.756 766.585C630.601 767.383 630.265 768.663 629.879 770.135L629.879 770.138C628.239 776.397 625.687 786.137 632.167 777.202C632.655 777.687 632.726 778.46 632.802 779.287C632.957 780.981 633.133 782.899 636.955 783.023C638.88 785.192 630.558 781.949 623.474 779.189ZM1051.37 769.424C1055.05 767.773 1058.04 766.433 1058 765.963C1058.84 788.173 1059.24 808.139 1039.13 778.504C1034.37 777.039 1044.19 772.64 1051.37 769.424ZM636.148 773.853C636.141 772.861 636.135 771.976 636.073 771.305V771.297C633.88 765.115 651.344 772.112 653.864 773.657C662.071 775.598 670.487 778.613 679.031 781.674C691.675 786.203 704.604 790.835 717.561 792.238C717.3 793.504 717.096 794.788 716.897 796.044C715.779 803.102 714.801 809.272 704.482 806.199C688.716 807.509 678.619 802.461 667.06 793.053L638.912 783.67C636.208 782.407 636.173 777.435 636.148 773.853ZM1078.09 821.403C1071.29 818.741 1064.37 816.031 1064.06 810.651C1061.98 804.252 1068.02 805.696 1073.82 807.081C1076.65 807.758 1079.42 808.421 1081.16 808.148C1087.28 808.029 1093.38 807.793 1099.48 807.556C1109.39 807.172 1119.3 806.788 1129.26 806.913C1167.47 804.25 1195.62 812.197 1188.47 856.523C1188.6 859.44 1188.72 862.017 1188.84 864.296C1189.35 874.646 1189.56 878.873 1187.55 880.93C1186.17 882.35 1183.72 882.736 1179.59 883.389C1175.83 883.982 1170.68 884.795 1163.66 886.805C1157.78 883.347 1166.39 880.456 1175.09 877.537C1181.58 875.357 1188.11 873.162 1188.71 870.703C1188.68 870.464 1188.72 870.075 1188.76 869.637C1188.89 868.267 1189.06 866.419 1187.43 867.208C1185.83 867.887 1183.69 868.77 1181.27 869.768L1181.25 869.777L1181.25 869.778L1181.24 869.781L1181.24 869.783C1173.27 873.069 1162.29 877.599 1157.49 880.211C1145.11 872.69 1131.53 861.286 1118.21 850.108C1107.78 841.35 1097.51 832.73 1088.12 826.225C1085.57 824.336 1081.85 822.877 1078.09 821.403ZM1196.96 812.818C1197.78 813.104 1195.73 814.439 1195.52 814.54C1194.99 814.443 1194.16 814.449 1193.2 814.456C1190.34 814.477 1186.4 814.505 1186.31 811.81C1185.99 811.066 1190.46 811.826 1193.71 812.378C1195.48 812.679 1196.89 812.919 1196.96 812.818ZM1189.03 817.245C1188.92 816.439 1193.23 817.136 1192.62 818.085C1191.1 821.507 1190.89 821.058 1190.03 819.209C1189.77 818.657 1189.45 817.981 1189.03 817.245ZM1126.24 898.89C1125.02 898.583 1124.04 897.299 1122.38 895.102C1119.97 891.929 1116.12 886.851 1108 880.06C1105.54 879.065 1103.23 878.255 1101.08 877.5L1101.08 877.498L1101.07 877.498C1091.26 874.053 1084.67 871.743 1081.68 858.187C1079.08 851.331 1076.4 844.993 1073.73 838.668L1073.73 838.66L1073.73 838.656C1071.59 833.594 1069.45 828.539 1067.36 823.234C1066.7 821.652 1067.57 822.221 1068.37 822.742C1068.57 822.873 1068.77 823.002 1068.93 823.091C1091.13 833.455 1110.31 849.731 1129.14 865.701L1129.14 865.706L1129.14 865.706C1136.51 871.959 1143.83 878.164 1151.24 883.949C1144.02 888.373 1139.03 891.778 1135.44 894.218L1135.44 894.218C1130.15 897.823 1127.95 899.322 1126.24 898.89ZM1181.45 907.549C1181.69 907.804 1181.89 908.023 1182.02 908.099C1183 907.81 1183.71 907.453 1184.19 907.041C1180.95 917.554 1175.72 927.424 1168.79 936.584C1167.83 937.777 1167.04 939.632 1166.25 941.48C1165.06 944.276 1163.88 947.057 1162.12 947.512C1160.04 945.317 1157.41 943.453 1154.8 941.596C1149.07 937.527 1143.38 933.49 1143.55 926.067C1153.5 927.361 1164.34 927.26 1174.08 926.596C1174.24 926.328 1174.41 926.056 1174.58 925.779C1177.9 920.359 1182.24 913.272 1179.5 906.982C1179.77 905.736 1180.76 906.801 1181.45 907.549ZM1184.88 904.677C1183.94 901.391 1177.16 896.829 1171.94 893.316L1171.94 893.316L1171.94 893.314C1168.79 891.193 1166.21 889.456 1165.82 888.611C1170.12 886.623 1176.21 886.035 1181.82 885.492C1183.96 885.284 1186.04 885.084 1187.92 884.815C1187.68 891.657 1186.65 898.283 1184.88 904.677ZM1154.81 887.074C1181.73 902.018 1186 931.527 1146.79 923.362C1135.5 923.106 1134.85 919.139 1134.06 914.245C1133.52 910.965 1132.92 907.268 1129 903.992C1132.4 901.669 1136.08 899.349 1139.8 897.001L1139.81 896.993L1139.83 896.985L1139.84 896.978C1144.95 893.756 1150.14 890.481 1154.81 887.074ZM714.077 922.273C714.328 929.724 714.433 932.815 712.017 922.825C712.222 919.869 711.932 916.618 711.639 913.326L711.639 913.325V913.324C710.934 905.426 710.209 897.295 716.251 892.475C713.3 899.303 713.786 913.684 714.077 922.273ZM553.582 789.424C555.859 788.588 558.128 787.754 560.566 788.509C563.321 787.854 564.262 788.794 561.28 790.029C561.27 790.029 559.98 791.529 558.485 793.267C556.418 795.671 553.958 798.531 553.939 798.521C553.771 798.362 548.269 790.567 549.495 790.583C550.884 790.415 552.235 789.919 553.582 789.424Z" fill="var(--fill-0, #DADADA)"/>
<path d="M1328.14 120.464C1328.13 120.689 1328.12 120.861 1328.11 120.919C1328.11 120.817 1328.12 120.715 1328.13 120.614L1328.14 120.464Z" fill="var(--fill-0, #DADADA)"/>
<path d="M1497.85 12.4456C1498.68 6.14009 1499.46 0.186078 1493.68 0.310349C1492.12 0.769171 1492.56 2.24157 1493.02 3.78233V3.78355C1493.36 4.92201 1493.71 6.09808 1493.28 6.92955C1493.27 7.47845 1493.2 8.51381 1493.11 9.83621V9.84425C1492.76 15.182 1492.09 25.1809 1494.05 26.7619C1495.65 29.2151 1498.55 33.7083 1501.59 38.4324L1501.71 38.6184L1501.74 38.6596L1501.74 38.6617L1501.75 38.6815C1505.66 44.7382 1509.77 51.1212 1511.7 54.0368C1512.44 53.7862 1512.35 50.2517 1512.28 47.6103C1512.25 46.3546 1512.22 45.3008 1512.29 44.8975C1510.08 39.5663 1507.47 36.1937 1505.51 33.6522C1501.26 28.1409 1500.02 26.5381 1512.29 17.3455C1506.95 16.3289 1504.45 19.947 1501.87 23.7043C1501.31 24.5105 1500.75 25.3237 1500.16 26.0983C1496.33 23.9829 1497.11 18.074 1497.85 12.4456Z" fill="var(--fill-0, #DADADA)"/>
<path fill-rule="evenodd" clip-rule="evenodd" d="M243.935 647.598C260.307 649.387 285.163 652.638 301.324 655.125C302.414 655.537 303.737 655.469 304.993 655.405C307.397 655.283 309.553 655.173 309.338 658.468C309.595 661.816 311.306 664.572 313.036 667.359C314.362 669.494 315.699 671.648 316.402 674.1C309.755 672.593 303.896 675.745 298.15 678.836C295.632 680.19 293.137 681.533 290.606 682.467C290.108 683.091 286.772 684.442 282.772 686.062C275.31 689.084 265.533 693.044 267.539 694.974C267.944 695.967 271.721 706.489 275.792 717.83L275.798 717.848L275.803 717.862L275.812 717.888C280.692 731.482 285.986 746.232 286.397 747.147C289.717 745.452 293.293 742.21 296.516 739.288L296.518 739.287C297.543 738.357 298.533 737.46 299.468 736.655C302.343 734.079 308.988 726.479 316.438 717.958L316.441 717.954L316.443 717.952L316.444 717.951C335.351 696.326 359.439 668.775 340.267 702.341C334.038 708.343 327.516 715.198 320.873 722.181C310.522 733.06 299.875 744.251 289.581 753.01C289.96 754.54 290.638 756.1 291.3 757.623C293.147 761.875 294.87 765.838 289.606 768.071C287.463 766.452 286.842 763.838 286.226 761.243C285.784 759.383 285.344 757.533 284.348 756.067C281.086 757.06 277.725 758.35 274.303 759.665C261.991 764.393 248.879 769.43 236.686 761.989C221.398 754.9 205.06 740.763 194.963 727.171C194.03 727.665 192.809 728.115 191.54 728.581C187.406 730.101 182.773 731.804 185.996 735.837C182.464 731.885 183.122 733.771 184.132 736.665C184.999 739.152 186.125 742.382 185.077 743.291C183.043 746.68 181.259 746.234 178.2 745.47C177.051 745.183 175.721 744.851 174.131 744.66C169.427 746.365 162.237 749.683 165.992 755.479C175.008 769.006 169.769 772.169 162.522 776.545C159.202 778.549 155.461 780.808 152.476 784.434C151.063 787.667 149.541 791.064 147.966 794.577L147.961 794.59L147.96 794.592C139.68 813.066 129.952 834.774 126.974 852.978C117.045 862.89 140.363 928.108 151.393 935.147C147.226 949.511 153.081 963.69 159.121 977.844C160.144 978.476 158.689 978.737 157.966 978.867L157.874 978.884L157.812 978.895L157.776 978.902C157.745 978.908 157.717 978.914 157.693 978.919C149.777 978.086 145.385 959.941 141.622 944.4C140.034 937.841 138.559 931.746 136.978 927.612C135.139 918.771 131.912 910.175 128.69 901.595C123.511 887.8 118.347 874.046 118.994 859.379C120.804 857.183 119.794 853.828 118.898 850.85C117.822 847.278 116.91 844.246 121.22 844.402C122.486 845.45 121.981 847.529 121.56 849.27C121.281 850.417 121.039 851.417 121.363 851.878C122.246 848.561 123.535 844.391 124.914 839.93C127.519 831.5 130.445 822.034 131.56 815.338C134.149 810.505 136.586 805.231 139.041 799.921C143.101 791.136 147.208 782.25 152.123 775.093C167.111 771.241 165.613 767.598 162.473 759.962C161.484 757.558 160.333 754.758 159.482 751.431C159.338 746.545 163.235 744.512 167.154 742.466C169.172 741.413 171.197 740.357 172.678 738.906C157.422 739.491 140.228 750.147 124.013 760.196C117.158 764.444 110.478 768.584 104.193 771.809C101.259 772.852 98.2967 773.772 95.3561 774.685L95.355 774.686C83.6148 778.331 72.2144 781.872 64.2679 792.733C47.2411 807.971 31.4827 825.048 31.4239 848.971C28.685 853.965 23.3219 857.521 18.1793 860.932L18.1782 860.932C15.8296 862.49 13.5266 864.017 11.5411 865.637C10.7535 866.597 9.3839 868.655 7.86577 870.935C4.51032 875.976 0.429109 882.107 0.301875 879.892C0.397714 868.846 7.41688 863.395 14.4591 857.927C22.2305 851.892 30.0301 845.835 28.5847 832.213C37.8919 807.282 54.9691 792.448 76.7839 775.497C78.3951 774.944 80.0369 774.394 81.6987 773.837C94.8519 769.429 109.261 764.6 119.716 755.076C130.076 748.501 141.8 744.12 153.181 739.867L153.182 739.866C161.023 736.936 168.702 734.066 175.66 730.582C174.603 725.846 176.588 726.798 178.403 727.669C179.804 728.341 181.104 728.964 180.826 726.886C182.345 729.223 186.115 727.018 189.133 725.252C190.572 724.41 191.841 723.668 192.611 723.568C192.727 721.974 192.089 719.562 191.409 716.989C189.957 711.495 188.31 705.265 193.384 704.693C194.904 725.087 221.17 710.76 241.146 699.864C248.988 695.586 255.861 691.837 259.887 690.925C261.993 689.542 267.378 687.276 273.851 684.553C290.338 677.616 313.883 667.71 308.279 661.853C293.769 658.846 278.177 657.109 262.549 655.368L262.545 655.367C242.376 653.119 222.147 650.866 204.111 645.868C208.015 640.078 218.941 642.71 229.121 645.162C234.713 646.509 240.081 647.803 243.935 647.615V647.598ZM225.581 713.311C192.782 725.434 204.964 733.843 222.219 745.753L222.22 745.754L222.225 745.758C225.76 748.198 229.507 750.785 233.125 753.581C248.623 766.181 265.523 758.739 280.761 750.465C280.216 740.95 275.862 730.539 271.509 720.129C268.217 712.259 264.926 704.389 263.281 696.906C264.299 694.065 248.117 702.254 236.631 708.066L236.63 708.067C230.494 711.172 225.698 713.598 225.581 713.303V713.311ZM200.331 722.719C208.387 717.587 197.769 719.737 196.937 723.921C199.554 725.803 199.546 725.674 199.5 724.902C199.466 724.34 199.412 723.437 200.331 722.719ZM147.369 942.556C150.997 938.355 148.372 935.402 145.605 932.289C144.354 930.882 143.074 929.442 142.329 927.839C143.466 930.531 144.069 933.138 144.604 935.455C145.298 938.46 145.88 940.976 147.369 942.556Z" fill="var(--fill-0, #DADADA)"/>
<path d="M186.605 736.529C186.39 736.281 186.187 736.05 185.996 735.837C186.175 736.06 186.377 736.291 186.605 736.529Z" fill="var(--fill-0, #DADADA)"/>
<path d="M639.855 833.592C638.149 818.965 636.467 804.543 637.223 790.18C629.104 783.305 631.315 807.409 633.534 831.593C635.254 850.343 636.978 869.142 633.897 873.592C630.923 888.106 626.685 903.463 622.423 918.9C616.778 939.352 611.094 959.946 608.26 978.911C608.555 978.832 609.109 978.867 609.741 978.907C611.111 978.994 612.846 979.104 613.098 978.122C616.106 964.589 622.322 939.582 626.051 926.302C627.361 921.284 628.692 916.341 630.013 911.441L630.013 911.44C634.817 893.613 639.465 876.36 642.305 858.161C641.757 849.892 640.802 841.71 639.855 833.592Z" fill="var(--fill-0, #DADADA)"/>
<path d="M1281.69 831.046C1284.89 843.464 1285.93 844.752 1289.6 849.263L1289.6 849.264C1290.93 850.904 1292.61 852.971 1294.87 856.153C1294.16 867.798 1295.53 878.947 1296.93 890.28V890.282L1296.93 890.283C1298 898.905 1299.07 907.633 1299.25 916.768C1297.37 926.027 1289.76 927.46 1282.01 928.918C1274.23 930.383 1266.32 931.873 1263.95 941.354C1260.37 950.754 1255.11 960.17 1249.8 968.234L1253.1 977.231C1254.41 978.34 1253.7 978.793 1252.25 978.911C1247.91 980.061 1247.15 977.413 1246.33 974.572C1245.98 973.349 1245.62 972.089 1244.96 971.082C1243.38 971.886 1241.77 973.113 1240.13 974.361C1237.45 976.399 1234.69 978.494 1231.9 978.911C1230.44 978.864 1229.01 978.879 1227.77 978.892C1222.76 978.946 1220.55 978.97 1229.46 974.82C1231.06 974.442 1241.49 967.596 1242.7 966.159C1239.77 963.093 1236.62 958.768 1233.31 954.223C1224.89 942.684 1215.45 929.732 1206.16 932.383C1206.06 932.82 1205.79 933.358 1205.35 933.979C1199.23 927.517 1190.79 928.155 1183.98 928.669C1183.71 928.689 1183.44 928.71 1183.17 928.729C1177.23 919.562 1193.81 923.544 1202.14 925.545C1204.78 926.178 1206.6 926.613 1206.6 926.369C1204.29 925.186 1202.09 923.426 1199.9 921.67C1197.34 919.623 1194.79 917.582 1192.08 916.465C1192.04 916.473 1191.73 916.732 1191.26 917.124L1191.26 917.126C1189.33 918.729 1184.73 922.565 1184.95 920.791C1187.91 916.828 1188.69 913.311 1189.19 911.079C1189.97 907.581 1190.05 907.235 1196.67 913.265C1220.25 928.833 1231.22 943.678 1237.65 952.376C1241.29 957.297 1243.47 960.25 1245.66 960.255C1248.95 960.263 1252.25 953.622 1260.52 937.009C1261.75 934.521 1263.1 931.81 1264.58 928.864C1265.7 925.342 1271.7 924.491 1277.29 923.699C1283.29 922.847 1288.82 922.064 1287.27 918.103C1288.43 917.356 1291.5 915.726 1292.52 916.936C1290.88 918.38 1287.67 923.42 1291.65 920.388C1292.79 917.818 1294.11 914.113 1293.86 911.518C1290.62 896.064 1290.23 883.955 1289.79 870.184C1289.67 866.552 1289.55 862.805 1289.37 858.85C1289.1 855.216 1286.35 852.752 1283.68 850.366C1280.37 847.403 1277.2 844.56 1279.08 839.748C1279.06 838.991 1278.89 838.152 1278.72 837.299C1278.18 834.605 1277.61 831.784 1281.69 831.037V831.046Z" fill="var(--fill-0, #DADADA)"/>
<path d="M337.553 887.337C337.191 886.389 336.76 885.262 335.655 885.183H335.647C317.301 897.052 307.885 925.276 302.399 946.763C302.3 947.737 302.115 949.088 301.896 950.688C300.537 960.602 297.866 980.096 306.154 978.91C304.508 947.452 313.857 911.475 337.965 888.265C337.816 888.025 337.689 887.693 337.553 887.337Z" fill="var(--fill-0, #DADADA)"/>
</g>
</g>
<defs>
<clipPath id="clip0_0_222">
<rect width="1512.54" height="979.188" fill="white"/>
</clipPath>
</defs>
</svg>
