<svg preserveAspectRatio="none" width="100%" height="100%" overflow="visible" style="display: block;" viewBox="0 0 1512 910.552" fill="none" xmlns="http://www.w3.org/2000/svg">
<g id="parks" clip-path="url(#clip0_0_218)">
<g id="Vector">
<path d="M469.72 0C467.191 0.546 464.142 1.5876 460.555 3.1248C459.539 3.5616 458.85 4.1916 458.497 5.0064C458.388 5.2668 458.38 5.5356 458.48 5.8044L461.118 12.9192L470.82 4.5108C471.257 4.1328 471.391 3.5112 471.139 2.982L469.72 0Z" fill="var(--fill-0, #E5E5E5)"/>
<path d="M959.566 282.82C958.801 281.795 958.163 280.098 957.659 277.738C957.256 275.848 956.735 274.067 956.096 272.412C955.424 270.656 954.929 268.657 954.618 266.423C954.349 264.491 954.005 262.576 953.585 260.677C953.358 259.619 953.131 258.266 952.921 256.612C952.728 255.125 952.442 253.772 952.056 252.563C951.779 251.681 951.619 250.858 951.594 250.085C951.569 249.371 951.46 248.741 951.283 248.186C951.065 247.54 950.905 246.868 950.804 246.179C949.754 239.383 948.595 232.655 947.327 225.985C947.159 225.112 947.016 224.196 946.907 223.238C946.798 222.323 946.604 221.424 946.31 220.542C946.235 220.298 946.084 220.122 945.865 219.996C945.722 219.92 945.605 219.828 945.504 219.71C945.344 219.517 945.26 219.29 945.252 219.047C945.218 217.98 945.076 216.913 944.815 215.83C944.588 214.88 944.471 213.906 944.462 212.89C944.437 210.512 943.379 205.901 941.279 199.046C941.371 199.273 941.338 199.466 941.186 199.609C940.976 199.811 940.783 199.819 940.607 199.626C941.556 201.718 942.043 203.851 942.06 206.027C942.06 206.338 941.909 206.447 941.606 206.354C941.413 206.296 941.228 206.161 941.044 205.951C941.186 206.396 941.245 206.766 941.203 207.052C941.422 207.337 941.59 207.648 941.699 207.992C942.085 208.412 942.362 208.992 942.539 209.74C943.639 214.41 944.353 217.98 944.681 220.458C945.496 226.666 946.361 232.865 947.26 239.056C947.411 240.072 947.831 241.391 948.52 243.012C949.133 244.448 949.502 245.935 949.637 247.481C950.233 247.59 950.477 247.951 950.384 248.573C950.292 249.236 950.309 249.875 950.452 250.488C950.569 251.009 950.477 251.244 950.183 251.185L950.552 254.621C951.182 254.747 951.544 255.083 951.636 255.62C952.266 259.283 953.014 263.466 953.879 268.178C954.122 269.548 954.584 270.934 955.265 272.353C956.197 274.31 956.676 276.671 956.71 279.443C956.752 282.492 957.65 285.844 959.414 289.489C960.103 290.926 960.498 292.144 962.044 292.824C963.808 293.588 965.824 294.059 968.092 294.218C968.495 294.252 968.789 294.479 969.158 294.638C969.284 294.714 969.41 294.697 969.536 294.596C969.553 294.58 969.57 294.563 969.587 294.538C969.696 294.395 969.671 294.202 969.536 294.101C966.286 291.564 963.48 288.07 959.566 282.82Z" fill="var(--fill-0, #E5E5E5)"/>
<path d="M318.746 352.918C322.342 350.566 324.87 349.087 326.34 348.491C329.44 347.231 334.984 345.4 342.989 343.006C345.055 342.384 346.534 341.048 348.592 340.368C351.347 339.461 353.976 338.276 356.798 337.529C359.318 336.865 361.67 335.748 364.064 335.311C371.406 333.959 376.211 332.875 378.479 332.069C380.335 331.414 381.486 330.515 381.931 329.364C382.763 327.247 383.662 325.231 384.636 323.316C384.661 323.274 384.67 323.224 384.686 323.173C384.737 322.888 384.552 322.61 384.258 322.56C379.722 321.745 375.253 320.897 370.86 320.006C361.838 318.184 350.851 316.134 337.89 313.874C336.437 313.622 334.832 313.362 333.085 313.102C332.808 313.06 332.539 313.085 332.279 313.186C331.481 313.48 330.439 313.631 329.137 313.631C329.221 315.58 328.776 317.839 327.793 320.401C324.652 328.574 320.737 339.41 316.05 352.892C317.15 353.371 318.049 353.38 318.746 352.918ZM349.726 326.827L350.053 326.029C350.146 325.819 350.381 325.71 350.599 325.786L354.27 327.054C354.43 327.104 354.547 327.247 354.572 327.407C354.606 327.642 354.438 327.869 354.194 327.902L352.12 328.23C352.036 328.238 351.952 328.23 351.876 328.196L349.961 327.398C349.734 327.306 349.633 327.054 349.726 326.827ZM324.097 340.309C324.937 339.419 326.374 338.268 327.768 338.864C329.305 339.52 330.641 340.284 332.388 340.099C334.429 339.889 336.462 339.662 338.486 339.427C340.536 339.184 341.275 339.872 341.863 341.712C341.981 342.073 341.863 342.308 341.502 342.418C340.536 342.72 339.629 343.157 338.764 343.736C338.545 343.879 338.302 343.955 338.041 343.963L333.052 344.098C332.825 344.098 332.758 344.005 332.858 343.795L333.001 343.526C333.144 343.241 333.094 342.989 332.85 342.779C332.329 342.308 331.716 342.124 331.01 342.224C330.716 342.266 330.574 342.434 330.59 342.728C330.616 343.123 330.733 343.468 330.952 343.753C331.019 343.837 331.052 343.938 331.052 344.039C331.052 344.316 330.842 344.543 330.574 344.551C328.7 344.627 326.936 344.417 325.282 343.921C323.82 343.476 322.946 341.536 324.097 340.309Z" fill="var(--fill-0, #E5E5E5)"/>
<path d="M421 329.868C420.622 329.658 420.218 329.507 419.782 329.414C409.189 327.172 398.58 325.156 387.971 323.366C387.66 323.308 387.349 323.476 387.215 323.761C386.593 325.088 386.182 326.491 385.988 327.97C385.728 329.927 386.459 331.38 388.164 332.329C389.432 333.035 390.751 333.665 392.12 334.219C393.355 334.723 394.766 334.933 396.354 334.858C399.185 334.723 402.024 334.673 404.88 334.698C405.619 334.018 406.182 333.648 406.56 333.581C411.382 332.783 416.144 331.901 420.848 330.918C421.075 330.708 421.226 330.523 421.285 330.364C421.361 330.179 421.26 330.011 421 329.868Z" fill="var(--fill-0, #E5E5E5)"/>
<path d="M386.459 346.853C385.77 343.736 385.174 340.595 384.67 337.42C384.476 336.252 383.972 335.278 383.158 334.48C382.948 334.27 382.637 334.202 382.351 334.295C378.47 335.597 374.321 336.647 369.902 337.453C363.611 338.604 357.512 340.712 351.481 342.854C351.389 342.888 351.305 342.938 351.229 343.006C350.935 343.274 350.91 343.736 351.187 344.03C352.808 345.836 354.606 347.382 355.631 349.608C356.597 351.7 357.21 353.38 357.47 354.631C358 357.176 358.588 359.663 359.251 362.074L386.459 346.853Z" fill="var(--fill-0, #E5E5E5)"/>
<path d="M404.922 335.672C404.855 335.714 404.788 335.748 404.729 335.765C404.057 337.218 403.057 337.932 401.73 337.907C399.882 337.873 398.278 337.898 396.908 337.982C394.766 338.125 393.221 338.066 392.28 337.814C390.776 337.411 389.34 336.756 387.954 335.849C387.845 335.782 387.71 335.748 387.584 335.765C387.29 335.807 387.089 336.084 387.131 336.378L388.634 346.004C391.616 344.232 394.506 342.602 397.303 341.116C399.059 340.183 402.016 339.024 404.233 337.403C404.838 336.958 405.09 336.395 404.998 335.698C404.998 335.656 404.964 335.647 404.922 335.672Z" fill="var(--fill-0, #E5E5E5)"/>
<path d="M389.987 350.675C389.651 350.868 389.525 351.296 389.718 351.632C391.742 355.152 394.414 358.798 397.723 362.586C397.748 362.611 397.774 362.645 397.799 362.67C398.185 363.023 398.79 362.989 399.143 362.594C400.512 361.066 401.738 359.36 402.83 357.47C404.611 354.388 405.51 352.825 405.535 352.792C407.173 350.221 408.836 347.676 410.533 345.148C411.55 343.627 412.868 342.451 414.112 341.074C414.305 340.864 414.406 340.612 414.414 340.326C414.439 339.41 414.053 338.738 413.246 338.318C412.978 338.176 412.709 338.184 412.448 338.327L389.995 350.666C389.995 350.666 389.995 350.666 389.987 350.666V350.675Z" fill="var(--fill-0, #E5E5E5)"/>
<path d="M299.334 394.38C298.855 394.876 298.435 395.413 298.057 395.993C299.477 395.245 300.552 394.128 301.787 393.439C313.538 386.879 325.34 380.419 337.201 374.06C342.661 371.137 349.616 366.878 356.093 363.619C355.471 359.663 354.497 355.807 353.161 352.061C352.649 350.616 351.859 349.339 350.792 348.239C349.591 346.996 348.407 345.803 347.222 344.669C346.979 344.434 346.626 344.366 346.315 344.492C341.704 346.349 337.957 347.584 332.296 349.154C329.221 350.003 326.978 350.868 325.559 351.742C322.493 353.632 319.46 355.589 316.478 357.596C315.68 358.142 315.143 358.73 314.882 359.369C310.355 370.608 305.567 381.738 300.51 392.759C300.266 393.288 299.88 393.826 299.334 394.38ZM334.362 359.293C334.421 359.167 334.522 359.142 334.648 359.201C335.294 359.52 335.975 359.663 336.689 359.629C337.008 359.612 337.21 359.453 337.285 359.142L337.882 356.714C337.882 356.714 337.898 356.639 337.915 356.605C338.083 356.194 338.545 356 338.957 356.168L339.352 356.336C340.116 356.647 340.477 357.218 340.435 358.05C340.334 359.982 339.36 361.486 337.504 362.552C337.252 362.695 337.05 362.645 336.907 362.393C336.697 362.048 336.58 361.67 336.538 361.276C336.512 361.007 336.386 360.797 336.16 360.646C335.546 360.234 334.916 359.864 334.27 359.52C334.253 359.52 334.253 359.503 334.261 359.486L334.362 359.293ZM333.799 355.723C333.866 355.706 333.934 355.706 334.001 355.732C334.16 355.79 334.236 355.975 334.177 356.135L333.446 357.949C333.304 358.31 333.06 358.579 332.707 358.756C330.968 359.621 329.549 360.931 328.432 362.687C328.381 362.771 328.297 362.838 328.213 362.872C327.97 362.972 327.692 362.863 327.592 362.62C325.718 358.193 330.49 356.756 333.799 355.723Z" fill="var(--fill-0, #E5E5E5)"/>
<path d="M418.496 345.618C415.447 349.121 412.801 352.909 410.558 356.966C408.584 360.536 406.745 363.325 404.779 366.5C404.502 366.946 404.158 367.853 403.763 369.205C403.486 370.154 403.049 370.986 402.469 371.717C400.344 374.354 398.286 377.042 396.287 379.781C395.951 380.243 395.573 380.864 395.153 381.662C394.808 382.318 394.422 382.948 393.994 383.552C393.7 383.981 393.221 384.737 392.557 385.837C392.02 386.736 391.423 387.45 390.776 387.979C390.558 388.156 390.44 388.382 390.415 388.66C390.39 388.903 390.256 389.054 390.012 389.13C389.76 389.206 389.575 389.365 389.458 389.6C388.928 390.667 388.256 391.642 387.442 392.507C387.257 392.7 387.164 392.935 387.173 393.196C387.181 393.532 387.013 393.733 386.652 393.809C385.333 395.212 384.712 396.799 384.787 398.572C386.072 395.875 386.954 394.178 387.416 393.481C389.306 390.667 392.213 386.904 396.152 382.208C395.716 382.015 395.732 381.646 396.194 381.1C398.143 378.857 399.764 376.631 401.066 374.438C401.654 373.43 402.553 372.658 403.561 372.296C404.158 372.086 404.561 371.524 404.569 370.894C404.603 368.407 405.065 367.206 406.762 365.24C412.054 359.108 416.153 353.304 419.059 347.819C419.378 347.222 419.345 346.508 418.967 345.685C418.841 345.425 418.69 345.4 418.496 345.618Z" fill="var(--fill-0, #E5E5E5)"/>
<path d="M290.842 350.708C292.152 351.07 293.32 351.288 294.42 352.212C295.781 353.371 296.906 354.698 298.494 355.471C303.173 357.722 307.121 356.941 311.674 356.185C312.295 356.076 312.539 355.757 312.413 355.211C312.354 354.992 312.194 354.816 311.993 354.74L292.74 347.315C291.942 347.004 291.329 347.222 290.909 347.97L290.212 349.205C289.775 349.978 289.985 350.482 290.842 350.708Z" fill="var(--fill-0, #E5E5E5)"/>
<path d="M397.782 367.088C398.026 366.584 397.908 365.971 397.488 365.585C393.406 361.864 390.062 357.462 387.467 352.397C387.467 352.388 387.458 352.38 387.45 352.372C387.341 352.212 387.131 352.162 386.971 352.262C379.789 356.572 372.431 360.604 364.904 364.375C362.863 365.4 360.847 366.702 358.823 367.819C358.621 367.928 358.487 368.138 358.47 368.365C358.243 371.263 358.109 374.094 358.067 376.849C358.016 380.083 358.638 383.082 359.94 385.837C360.688 387.442 361.469 389.038 362.267 390.642C362.401 390.911 362.594 391.121 362.855 391.28L364.56 392.33C364.829 392.498 364.997 392.734 365.064 393.044C365.173 393.557 365.19 394.187 365.098 394.951C364.661 398.622 363.527 401.864 361.696 404.687C361.301 405.292 361.242 406.056 361.544 406.72L366.206 416.816C366.257 416.926 366.324 417.01 366.416 417.085C366.727 417.329 367.189 417.27 367.433 416.959C369.188 414.742 370.852 412.465 371.986 409.861C373.506 406.4 375.026 402.94 376.555 399.487C377.538 397.253 378.739 395.069 380.142 392.935C381.461 390.928 382.822 388.836 384.216 386.66C386.19 383.578 388.391 380.671 390.81 377.924C393.372 375.01 395.699 371.398 397.782 367.088Z" fill="var(--fill-0, #E5E5E5)"/>
<path d="M229.706 419.79C231.563 420.815 233.024 421.646 234.1 422.276C235.469 423.091 236.687 423.654 237.745 423.973C240.122 424.696 241.853 425.132 244.02 424.192C244.28 424.082 244.532 424.074 244.793 424.175C245.028 424.259 245.221 424.276 245.372 424.234C246.775 423.805 248.212 423.016 249.665 421.873C251.093 420.756 253.268 419.521 256.183 418.169C258.468 417.119 260.677 416.002 262.819 414.826C272.681 409.408 282.542 403.981 292.404 398.555C293.614 397.891 294.899 397.16 296.251 396.362L312.228 359.528C312.228 359.528 312.228 359.52 312.228 359.512C312.329 359.251 312.203 358.957 311.942 358.856C311.665 358.747 311.363 358.73 311.018 358.806C305.827 359.898 300.938 359.394 296.352 357.294C294.924 356.639 293.58 354.295 291.791 353.514C289.523 352.531 287.683 353.262 286.28 355.706C285.281 357.454 284.239 359.184 283.172 360.889C278.494 368.357 274.142 376.001 270.102 383.838C266.515 390.802 261.836 398.924 256.066 408.206C253.361 412.566 251.219 416.548 249.64 420.16C248.791 422.108 247.607 422.411 246.07 423.52C245.792 423.713 245.524 423.746 245.246 423.604C245.246 423.604 245.23 423.604 245.221 423.595C244.978 423.461 244.894 423.15 245.036 422.898C247.254 418.916 249.556 414.557 251.933 409.819C252.462 408.778 252.37 408.022 251.672 407.56C251.059 407.156 250.538 406.619 249.9 406.3C249.144 408.257 248.514 410.248 248.018 412.272C247.666 413.675 246.96 414.658 246.044 415.666C245.633 416.111 245.213 416.262 244.776 416.111C244.751 416.111 244.734 416.094 244.717 416.086C244.381 415.926 244.238 415.523 244.398 415.195C245.566 412.734 246.641 410.256 247.64 407.778C247.926 407.056 247.733 406.552 247.397 405.93C247.254 405.661 247.33 405.476 247.615 405.367C247.775 405.308 247.968 405.283 248.195 405.275C244.23 405.275 241.088 405.703 238.762 406.552C234.251 408.198 229.732 411.272 225.204 415.783C226.514 417.522 228.01 418.858 229.698 419.79H229.706Z" fill="var(--fill-0, #E5E5E5)"/>
<path d="M131.359 370.306C130.586 369.97 129.578 369.516 128.327 368.936C127.747 368.668 127.067 368.886 126.748 369.432L124.984 372.464C124.916 372.574 124.891 372.7 124.916 372.826C124.967 373.12 125.252 373.313 125.546 373.271C127.403 372.943 129.318 372.179 131.141 371.918C133.132 371.641 133.199 371.104 131.359 370.306Z" fill="var(--fill-0, #E5E5E5)"/>
<path d="M355.345 395.976C357.076 394.976 358.756 395.136 360.696 394.901C360.049 392.272 359.176 389.718 358.075 387.257C356.572 383.872 355.841 381.016 355.816 377.723C355.79 375.724 355.942 372.994 356.269 369.524C356.294 369.247 356.185 369.172 355.942 369.306L295.873 402.444L271.328 460.664C271.295 460.74 271.328 460.832 271.404 460.866C274.63 462.235 277.57 463.218 281.207 463.722C284.491 464.184 287.776 464.638 291.06 465.083C292.664 465.31 294.269 465.31 295.873 465.1C306.398 463.73 316.907 462.294 327.415 460.79C328.986 460.564 330.506 460.564 331.976 460.79C333.455 461.017 334.967 461.278 336.504 461.572C338.293 461.479 339.696 460.429 340.696 458.422C341.292 457.237 341.67 455.398 342.712 454.306C343.342 453.642 344.005 453.264 344.702 453.172C347.256 452.819 348.499 452.626 349.616 450.055C351.884 444.822 353.648 440.21 354.917 436.212C355.496 434.389 356.236 432.852 357.143 431.584C359.671 428.064 362.317 424.536 365.064 421.008C365.249 420.764 365.282 420.445 365.148 420.176C363.25 416.27 361.444 412.415 359.722 408.593C359.444 407.971 359.251 407.35 359.142 406.72C358.982 405.787 358.991 405.107 359.167 404.687C359.99 402.696 360.864 400.646 361.788 398.53C360.184 398.723 358.84 399.252 357.756 400.109C357.512 400.302 357.336 400.571 357.26 400.873C356.815 402.637 356.698 403.889 355.404 405.376C353.976 407.014 352.556 408.66 351.154 410.306C349.608 412.112 349.734 414.137 349.44 416.329C349.272 417.564 348.886 418.648 348.272 419.572C347.365 420.941 346.441 422.176 345.492 423.276C344.996 423.856 344.753 424.595 344.803 425.351C344.988 427.879 345.038 429.853 343.879 432.256C341.762 436.674 339.646 441.092 337.529 445.502C335.95 448.778 333.514 454.927 330.884 459.371C330.851 459.43 330.8 459.488 330.75 459.53C330.506 459.724 330.145 459.682 329.944 459.438C329.767 459.22 329.7 458.934 329.734 458.59C329.902 456.952 330.347 455.389 330.338 453.81C330.322 445.99 330.322 438.169 330.33 430.349C330.33 423.839 334.295 420.991 337.336 416.38C339.175 413.582 341.292 410.995 343.686 408.635C344.938 407.408 346.097 406.997 347.567 406.258C347.836 406.123 348.046 405.896 348.146 405.619C348.928 403.586 349.331 400.52 350.927 398.958C351.624 398.278 353.094 397.278 355.345 395.976Z" fill="var(--fill-0, #E5E5E5)"/>
<path d="M1506.32 385.014C1504.85 386.014 1503.66 385.955 1502.13 385.325C1501.37 385.006 1500.51 385.283 1500.08 385.972L1496.94 390.928C1496.86 391.054 1496.87 391.171 1496.98 391.272L1497.15 391.44C1497.22 391.516 1497.28 391.507 1497.34 391.432L1500.18 387.878C1500.44 387.551 1500.84 387.358 1501.26 387.349L1512 387.156V381.923C1510.06 382.738 1508.17 383.762 1506.32 385.014Z" fill="var(--fill-0, #E5E5E5)"/>
<path d="M1497.43 399.328L1480.05 407.257C1479.91 407.324 1479.81 407.45 1479.79 407.593C1479.74 407.845 1479.91 408.08 1480.16 408.131L1486.51 409.223C1486.58 409.24 1486.66 409.223 1486.73 409.206L1493.28 407.005C1493.38 406.972 1493.45 406.904 1493.51 406.82L1498.01 400.008C1498.11 399.874 1498.12 399.697 1498.05 399.546C1497.94 399.319 1497.66 399.218 1497.43 399.328Z" fill="var(--fill-0, #E5E5E5)"/>
<path d="M253.747 406.014C253.747 406.014 253.772 406.031 253.781 406.039C253.991 406.182 254.268 406.123 254.411 405.913L255.646 404.023C255.713 403.931 255.73 403.813 255.713 403.696C255.671 403.452 255.436 403.284 255.192 403.326L252.21 403.796C252.101 403.813 252.008 403.872 251.933 403.956C251.773 404.149 251.807 404.435 252 404.594L253.747 406.014Z" fill="var(--fill-0, #E5E5E5)"/>
<path d="M291.304 404.636C290.539 405.166 289.943 405.544 289.498 405.787C279.073 411.499 268.783 417.472 258.174 422.831C256.813 423.511 254.612 424.83 251.563 426.779C249.102 428.341 246.532 429.618 243.852 430.601C242.416 432.281 240.946 434.406 242.088 436.506C242.592 437.43 243.029 438.077 243.39 438.438C247.195 442.218 250.799 446.074 254.932 449.534C258.023 452.113 261.047 455.095 264.474 457.195C265.759 457.985 267.036 458.766 268.313 459.53C268.33 459.539 268.355 459.556 268.38 459.564C268.666 459.69 268.993 459.564 269.119 459.278L293.202 403.57C292.622 403.805 291.984 404.158 291.304 404.636ZM262.836 433.742L262.643 433.969C262.08 434.599 261.568 434.557 261.106 433.843C260.568 433.012 259.736 432.482 258.619 432.256C257.267 431.978 256.091 431.416 255.074 430.559C254.78 430.307 254.579 429.962 254.503 429.584C254.344 428.686 254.932 427.82 255.839 427.661C258.896 427.098 260.954 430.282 262.794 432.13C263.231 432.575 263.248 433.28 262.836 433.742Z" fill="var(--fill-0, #E5E5E5)"/>
<path d="M340.612 427.585C341.342 425.914 342.056 424.334 342.754 422.848C343.073 422.167 343.946 420.806 345.366 418.757C347.164 416.153 348.138 413.112 348.289 409.643C348.289 409.601 348.289 409.567 348.289 409.525C348.239 409.189 347.928 408.946 347.592 408.996C346.45 409.147 345.988 410.088 345.349 410.752C343.93 412.205 342.577 413.708 341.284 415.271C340.334 416.422 339.268 418.118 338.066 420.37C337.168 422.058 336.16 423.696 335.042 425.267C333.824 426.989 333.724 428.056 334.471 429.946C334.698 430.525 335.093 430.668 335.647 430.391L340.007 428.232C340.276 428.089 340.494 427.862 340.62 427.585H340.612Z" fill="var(--fill-0, #E5E5E5)"/>
<path d="M233.016 511.61C231.63 507.2 231.554 502.748 232.798 498.271C233.772 494.777 234.906 491.392 235.225 487.788C235.452 485.226 235.511 483.538 235.418 482.731C234.578 475.768 233.806 468.796 232.898 461.84C232.218 456.708 232.512 452.256 233.78 448.501C235.04 444.755 236.401 440.933 237.871 437.027C238.073 436.506 238.048 435.926 237.804 435.431L234.637 428.921C232.428 426.838 229.79 425.46 226.724 424.788C224.902 425.015 223.188 425.208 221.584 425.384C216.208 425.972 212.318 427.862 209.126 432.298C206.867 435.431 204.985 438.782 203.482 442.344C203.372 442.604 203.179 442.798 202.919 442.907C202.104 443.243 201.046 442.999 199.76 442.184C199.34 441.916 199.004 442 198.761 442.445C197.719 444.293 196.98 446.435 196.552 448.862C197.014 448.426 197.324 448.577 197.484 449.308C197.534 449.56 197.534 449.854 197.476 450.19C196.736 454.348 195.804 458.422 194.687 462.403C194.662 462.504 194.611 462.605 194.544 462.689C194.267 463.042 193.763 463.1 193.418 462.823C192.94 462.445 192.612 461.941 192.452 461.311C190.336 466.108 189.034 469.888 188.546 472.651C188.118 475.07 187.664 477.49 187.186 479.9C186.724 482.21 186.522 484.537 186.589 486.881C186.698 490.904 186.74 494.827 186.715 498.666C186.715 499.456 187.219 500.153 187.967 500.388L234.167 514.97C235.267 515.323 235.486 515.029 234.805 514.08C234.209 513.248 233.386 512.778 233.016 511.61ZM205.876 487.973L204.59 496.608C204.548 496.894 204.372 497.137 204.12 497.272C203.683 497.498 203.146 497.33 202.919 496.894L201.659 494.458C201.583 494.306 201.55 494.138 201.566 493.97L202.398 484.243C202.423 483.932 202.616 483.655 202.894 483.521C203.339 483.302 203.868 483.496 204.086 483.932L205.8 487.46C205.876 487.62 205.901 487.796 205.876 487.973Z" fill="var(--fill-0, #E5E5E5)"/>
<path d="M335.983 432.163C334.11 431.802 333.077 432.575 332.892 434.473C332.514 438.329 332.22 441.538 332.01 444.1C331.817 446.334 331.8 448.568 331.943 450.803C331.968 451.181 332.069 451.424 332.245 451.55C332.27 451.567 332.296 451.584 332.329 451.601C332.581 451.718 332.884 451.601 333.001 451.349C333.623 449.988 334.169 448.703 334.631 447.502C335.933 444.108 337.302 440.185 338.747 435.742C339.368 433.835 338.696 432.684 336.722 432.306L335.983 432.163Z" fill="var(--fill-0, #E5E5E5)"/>
<path d="M362.821 435.187C362.737 436.372 362.527 437.304 362.2 438.001C359.932 442.739 357.68 447.426 355.639 452.273C353.976 456.246 351.54 459.27 348.86 462.79C348.802 462.865 348.768 462.949 348.743 463.033C348.659 463.378 348.877 463.73 349.222 463.814C349.776 463.949 350.372 464.327 351.019 464.957C351.977 465.587 352.985 466.024 354.052 466.276C354.85 465.2 355.471 464.066 355.916 462.865C356.588 461.068 357.067 459.883 357.353 459.312C358.73 456.565 359.73 453.659 361.057 450.954C363.653 445.654 365.534 440.126 366.71 434.389L363.292 434.708C362.998 434.734 362.838 434.893 362.821 435.187Z" fill="var(--fill-0, #E5E5E5)"/>
<path d="M253.327 495.692L267.54 463C267.8 462.395 267.649 461.933 267.078 461.605C263.911 459.808 260.887 458.035 258.014 455.7C255.788 453.894 253.579 452.054 251.395 450.19C247.523 446.88 244.205 442.814 240.61 438.967C240.542 438.9 240.458 438.85 240.374 438.816C240.055 438.698 239.694 438.866 239.576 439.186C238.132 443.386 236.082 447.964 235.217 452.004C234.704 454.381 234.545 456.364 234.738 457.951C235.586 464.856 236.326 471.778 236.964 478.708C237.174 481.043 237.283 483.101 237.275 484.882C237.25 490.585 235.771 495.289 234.452 500.48C233.478 504.319 234.217 507.965 236.662 511.434C237.77 512.996 238.333 514.416 238.862 516.079C239.064 516.726 239.593 517.222 240.257 517.373C243.634 518.154 245.868 519.397 248.304 522.119C249.992 524.017 251.689 525.949 253.386 527.923C254.234 528.788 255.007 528.83 255.704 528.049L253.084 497.179C253.042 496.675 253.126 496.163 253.327 495.692Z" fill="var(--fill-0, #E5E5E5)"/>
<path d="M1397.42 440.353C1397.32 440.202 1397.16 440.11 1396.97 440.11C1396.68 440.11 1396.44 440.353 1396.45 440.647L1396.6 444.898C1396.61 445.158 1396.82 445.376 1397.08 445.402L1399.7 445.662C1399.81 445.67 1399.93 445.645 1400.02 445.586C1400.27 445.435 1400.36 445.108 1400.2 444.864L1397.42 440.353Z" fill="var(--fill-0, #E5E5E5)"/>
<path d="M322.678 475.742C322.106 475.264 322.039 474.365 322.484 473.029C322.577 472.769 322.594 472.5 322.535 472.223C322.216 470.576 321.644 468.779 322.375 467.242C322.997 465.94 324.055 464.923 325.55 464.209C323.291 464.033 321.065 464.083 318.881 464.369C311.749 465.31 304.609 466.292 297.444 467.309C294.907 467.67 292.463 467.729 290.119 467.468C286.398 467.065 282.887 466.603 279.602 466.074C276.62 465.595 273.916 464.537 271.169 463.403C271.169 463.403 271.16 463.403 271.152 463.403C270.522 463.159 269.808 463.462 269.564 464.092C268.019 468.014 266.507 471.568 265.02 474.768C262.038 481.186 259.283 487.586 256.746 493.962C255.956 495.961 255.688 498.313 255.931 501.01C256.41 506.234 257.015 515.332 257.754 528.293C258.644 528.595 259.686 528.562 260.87 528.2C262.424 527.713 263.399 527.436 263.785 527.369C265.986 526.974 268.187 526.579 270.388 526.184C272.975 525.714 273.823 527.066 275.562 528.234C275.789 528.385 276.049 528.461 276.326 528.461C277.62 528.461 278.897 528.57 280.157 528.788C281.862 529.082 283.122 529.242 283.937 529.25C286.247 529.292 288.338 529.402 290.556 528.629C294.16 527.369 295.974 525.563 297.671 522.001C298.301 520.682 298.712 518.776 298.906 516.289C299.25 511.694 298.956 506.344 301.064 502.118C302.215 499.825 303.391 497.54 304.601 495.272C305.491 493.609 306.39 492.324 307.297 491.417C312.547 486.133 317.68 480.917 322.678 475.751V475.742Z" fill="var(--fill-0, #E5E5E5)"/>
<path d="M332.783 465.889C333.589 465.36 333.917 464.587 333.774 463.588L328.826 463.26C330.011 464.159 330.473 465.646 330.204 467.72C331.086 467.048 331.951 466.435 332.783 465.889Z" fill="var(--fill-0, #E5E5E5)"/>
<path d="M348.768 467.846C348.449 467.645 347.978 467.611 347.357 467.746C345.173 467.04 342.972 466.544 340.822 467.762C339.679 468.409 338.839 468.989 338.293 469.501C333.169 474.348 325.08 482.345 314.017 493.475C311.674 495.835 310.254 498.54 308.549 501.337C307.448 503.152 306.659 504.974 306.18 506.814C305.684 508.721 305.382 510.451 305.281 512.022C305.164 513.962 305.55 517.322 306.44 522.102C306.718 523.597 307.28 524.857 308.12 525.882C309.128 527.117 310.262 528.335 311.531 529.544C312.799 530.754 314.185 531.527 315.706 531.854C318.713 532.51 321.863 532.417 325.164 531.577C326.794 524.546 329.473 516.659 333.203 507.923C340.032 491.887 344.534 481.253 346.702 476.02C347.55 473.962 348.323 471.467 349.037 468.518C349.104 468.233 349.012 468.006 348.768 467.846ZM330.364 500.606C330.38 500.842 330.212 501.043 329.977 501.06H329.927C329.692 501.085 329.49 500.909 329.473 500.682L329.179 497.078C329.162 496.843 329.33 496.642 329.566 496.625H329.616C329.851 496.6 330.053 496.776 330.07 497.003L330.364 500.606Z" fill="var(--fill-0, #E5E5E5)"/>
<path d="M1154.61 555.794C1154.83 555.946 1154.93 556.156 1154.91 556.424L1154.83 557.172C1162.43 558.188 1170.05 559.171 1177.69 560.12C1179.49 560.347 1181.47 561.095 1183.64 562.372C1186.96 564.32 1189.34 568.1 1191.99 571.091C1192.15 571.267 1192.3 571.267 1192.46 571.082C1195.84 567.118 1197.91 562.624 1198.67 557.592L1181.33 554.862C1180.96 554.803 1180.69 554.476 1180.7 554.106L1180.9 549.713C1180.9 549.713 1180.9 549.679 1180.9 549.662C1180.9 549.234 1180.54 548.881 1180.1 548.89C1173.45 548.932 1166.72 548.906 1159.89 548.806C1158.54 548.789 1157.25 548.461 1155.93 548.234C1155.02 548.075 1154.5 548.461 1154.39 549.385C1154.19 551.074 1154.09 552.863 1154.11 554.761C1154.11 555.24 1154.28 555.584 1154.61 555.794Z" fill="var(--fill-0, #E5E5E5)"/>
<path d="M1057.75 563.363C1060.66 564.06 1063.52 564.539 1066.35 564.808C1067.93 564.95 1069.82 565.379 1072.02 566.093C1072.17 566.135 1072.33 566.051 1072.37 565.9C1072.44 565.639 1072.39 565.37 1072.2 565.085C1070.3 562.195 1067.93 559.759 1065.1 557.777C1064.91 557.642 1064.72 557.642 1064.52 557.768C1062.15 559.289 1059.87 561.028 1057.65 562.985C1057.44 563.17 1057.47 563.296 1057.74 563.363H1057.75Z" fill="var(--fill-0, #E5E5E5)"/>
<path d="M1195.48 574.686C1197.54 576.089 1199.45 577.156 1201.23 577.87C1213.72 582.918 1226.25 587.773 1238.82 592.444C1239.9 592.838 1241.06 593.2 1242.31 593.527C1243.1 593.737 1243.91 593.326 1244.22 592.57C1246.47 587.026 1248.9 581.767 1251.54 576.803C1251.97 575.996 1252.89 574.871 1254.3 573.434C1252.62 571.368 1250.31 569.99 1247.4 569.302C1244.17 568.537 1240.87 567 1238.63 566.353C1237.16 565.925 1235.67 565.547 1234.18 565.219C1223.58 562.892 1212.85 560.675 1202.01 558.566C1201.21 562.624 1200.47 565.152 1199.79 566.135C1198.17 568.47 1196.63 570.856 1195.18 573.292C1194.84 573.854 1194.94 574.316 1195.48 574.686Z" fill="var(--fill-0, #E5E5E5)"/>
<path d="M1152.6 604.313C1156.58 608.555 1159.91 612.284 1162.58 615.502C1165.78 619.357 1168.94 623.246 1172.05 627.169C1173.23 628.648 1175.61 629.395 1176.85 631.714C1177.24 632.444 1177.69 633.066 1178.18 633.57C1182.68 638.098 1185.5 641.516 1189.09 645.154C1191.68 647.783 1193.41 649.597 1194.29 650.597C1201.08 658.392 1207.9 666.179 1214.73 673.957C1215.39 674.705 1216.09 675.402 1216.85 676.049C1217.69 676.771 1218.35 677.494 1218.83 678.208C1222.87 684.239 1227.02 690.438 1231.27 696.805C1231.28 696.822 1231.29 696.839 1231.31 696.847C1231.67 697.334 1232.35 697.435 1232.82 697.082C1235.51 695.1 1237.98 693.05 1240.97 691.278C1244.53 689.178 1247.93 686.851 1251.18 684.298C1252.05 683.609 1252.67 682.508 1253.79 681.929C1254.92 681.349 1255.64 680.921 1255.97 680.635C1257.13 679.619 1258.28 678.644 1259.43 677.729C1259.76 677.46 1259.82 676.973 1259.55 676.637C1256.68 673.016 1253.74 669.463 1250.71 665.994C1244.27 658.627 1236.46 651.185 1229.2 643.952C1227.91 642.667 1225.3 639.778 1221.38 635.275C1218.6 632.1 1216.23 629.135 1214.25 626.371C1211.08 621.961 1209.05 618.727 1208.17 616.678C1202.59 603.658 1199.02 595.468 1197.46 592.116C1194.72 586.202 1192.51 581.129 1190.83 576.887C1190.08 574.98 1189.22 573.376 1188.27 572.074C1186.62 569.822 1184.76 567.151 1182.37 565.673C1181.5 565.144 1180.56 564.589 1179.54 564.026C1178.19 571.242 1177.31 578.046 1176.89 584.447C1176.89 584.497 1176.88 584.548 1176.87 584.598C1176.73 585.53 1175.86 586.177 1174.92 586.026C1167.83 584.909 1160.7 583.943 1153.53 583.128C1151.81 582.935 1149.66 583.372 1147.08 584.455C1147.1 586.043 1146.1 586.883 1144.08 586.975C1141.98 587.068 1139.85 587.076 1137.7 587C1137.59 587 1137.49 587.034 1137.41 587.101C1137.24 587.252 1137.23 587.504 1137.38 587.672C1142.35 593.258 1147.42 598.811 1152.6 604.313ZM1162.17 596.568H1164.71C1164.83 596.576 1164.95 596.61 1165.05 596.677C1165.33 596.87 1165.41 597.257 1165.22 597.542L1163.08 600.701C1162.98 600.852 1162.82 600.953 1162.64 600.97C1162.3 601.012 1161.99 600.768 1161.95 600.432L1161.55 597.265C1161.55 597.265 1161.55 597.215 1161.55 597.181C1161.55 596.837 1161.84 596.56 1162.18 596.568H1162.17Z" fill="var(--fill-0, #E5E5E5)"/>
<path d="M1060.01 566.723L1058.69 576.971C1058.55 577.987 1058.75 579.012 1059.24 579.911C1060.57 582.338 1061.76 584.749 1062.82 587.16C1063.47 588.63 1063.98 590.419 1064.36 592.544C1065.3 597.887 1066.2 603.002 1067.08 607.883C1067.51 610.302 1068.47 613.124 1069.96 616.35C1072.45 614.544 1074.88 612.746 1077.25 610.94C1079.92 608.899 1082.16 606.48 1084.57 604.103C1086.33 602.364 1088.3 600.827 1090.46 599.491C1093.99 597.316 1097.24 595.056 1101.12 593.544C1107.95 590.881 1114.86 588.202 1121.84 585.497C1121.91 585.463 1121.98 585.413 1122.02 585.337C1122.13 585.152 1122.07 584.917 1121.9 584.808C1119.79 583.565 1117.88 582.851 1115.23 582.666C1111.46 582.414 1107.45 581.473 1104.12 581.112C1099.76 580.633 1093.55 579.877 1085.49 578.844C1081.2 578.29 1078.01 576.332 1075.95 572.981C1074.65 570.881 1073.44 569.201 1071.43 568.588C1068.58 567.714 1064.78 567.092 1060.01 566.723ZM1074.59 574.039C1074.96 574.056 1075.32 574.207 1075.59 574.468L1076.59 575.425C1076.83 575.652 1076.99 575.954 1077.04 576.29C1077.18 577.139 1076.61 577.937 1075.77 578.08L1065.47 579.802C1064.88 579.902 1064.3 579.659 1063.95 579.172L1061.68 575.971C1061.48 575.686 1061.38 575.35 1061.4 575.005C1061.44 574.148 1062.16 573.485 1063.02 573.518L1074.59 574.039Z" fill="var(--fill-0, #E5E5E5)"/>
<path d="M1064.31 577.592C1066.6 579.155 1070.68 578.08 1073.34 577.458C1073.45 577.433 1073.56 577.374 1073.65 577.298C1073.92 577.046 1073.94 576.626 1073.69 576.349C1073.51 576.148 1073.17 575.996 1072.66 575.887C1070.5 575.442 1068.31 575.039 1066.12 574.686C1065.42 574.577 1064.93 574.661 1064.62 574.946C1064.28 575.274 1064.03 575.786 1063.87 576.484C1063.76 576.946 1063.91 577.315 1064.31 577.592Z" fill="var(--fill-0, #E5E5E5)"/>
<path d="M1246.36 594.292C1246.21 594.695 1246.4 595.148 1246.8 595.316L1284.69 611.201C1280.24 603.498 1275.88 596.156 1271.64 589.176C1270.35 587.059 1269.17 585.043 1267.38 583.246C1265.16 581.011 1262.92 578.777 1260.69 576.534C1260.33 576.173 1259.29 575.501 1257.6 574.535C1255.83 575.383 1254.45 576.778 1253.43 578.701C1250.76 583.75 1248.4 588.941 1246.36 594.292Z" fill="var(--fill-0, #E5E5E5)"/>
<path d="M1281.91 613.964C1272.43 610 1262.97 606.018 1253.51 602.028C1249.92 600.516 1246.22 599.483 1242.71 597.786C1242.08 597.484 1241.4 597.232 1240.65 597.03C1238.89 596.543 1237.08 595.484 1235.67 594.947C1223.77 590.386 1211.9 585.757 1200.06 581.045C1198.58 580.457 1197.35 579.81 1196.37 579.104C1195.34 578.357 1195.07 578.575 1195.58 579.743C1197.9 585.06 1200.54 590.436 1202.81 595.829C1204.98 600.986 1207.25 606.102 1209.63 611.167C1210.56 613.158 1211.52 615.796 1213.02 618.156C1216.44 623.532 1220.14 628.538 1224.12 633.167C1225.59 634.864 1229.49 638.87 1235.85 645.179C1244.86 654.125 1253.34 663.558 1261.29 673.478C1261.47 673.697 1261.7 673.772 1261.97 673.697C1262.5 673.554 1262.82 673.226 1262.94 672.706C1261.92 669.388 1261.92 665.977 1262.9 662.491C1263.83 659.198 1264.92 654.788 1266.18 649.27C1266.47 648.001 1267.22 646.792 1268.23 645.784C1271.75 642.281 1275.26 638.77 1278.77 635.258C1279.51 634.519 1280.76 632.713 1282.54 629.832C1283.51 628.244 1284.23 626.657 1284.68 625.061C1285.34 622.768 1285.65 621.029 1285.59 619.861C1285.49 617.896 1285.61 616.518 1285.96 615.728C1284.7 615.157 1283.36 614.569 1281.91 613.964ZM1246.1 627.682C1244.08 630.244 1241.63 631.638 1238.73 631.848C1236.14 632.041 1233.71 631.277 1231.43 629.563C1228.63 627.455 1226.37 624.91 1224.68 621.919C1224.12 620.936 1223.86 619.777 1223.89 618.45C1223.96 614.964 1224.17 612.36 1224.5 610.621C1224.96 608.185 1226.53 605.682 1228.51 603.817C1230.1 602.322 1231.68 600.835 1233.26 599.348C1234.36 598.315 1235.46 597.954 1236.7 598.878C1237.05 599.138 1237.01 599.256 1236.57 599.231C1235.18 599.13 1234.11 599.659 1233.38 600.81C1233.23 601.045 1233.2 601.297 1233.29 601.566C1233.93 603.473 1235.35 604.17 1237.55 603.649C1238.43 603.439 1239.61 602.666 1241.11 601.339C1241.32 601.154 1241.39 600.928 1241.33 600.65C1241.22 600.239 1241.1 599.911 1240.97 599.651C1240.73 599.18 1240.84 599.08 1241.29 599.348C1244.34 601.154 1240.79 603.506 1239.77 605.035C1237.76 608.059 1238.47 614.972 1238.94 618.442C1239.24 620.693 1240.23 621.583 1242.07 622.633C1242.37 622.793 1242.35 622.877 1242.01 622.885C1239.27 622.91 1236.88 622.138 1234.85 620.584C1234.62 620.416 1234.37 620.348 1234.09 620.374C1231.94 620.592 1230.55 620.819 1229.94 621.054C1226.81 622.255 1230.89 626.27 1232.33 628.001C1233.7 629.647 1235.03 630.714 1237.26 630.832C1240.26 630.974 1248.58 628.58 1244.08 624.011C1243.66 623.582 1243.72 623.498 1244.27 623.759C1245.5 624.347 1246.19 625.405 1246.32 626.934C1246.34 627.203 1246.26 627.472 1246.1 627.682Z" fill="var(--fill-0, #E5E5E5)"/>
<path d="M1174.3 721.854C1174.77 721.375 1175.34 721.182 1176.01 721.274L1193.13 723.736C1193.98 723.853 1194.84 723.769 1195.65 723.475L1202.87 720.854C1203.82 720.502 1204.71 719.998 1205.5 719.368L1229.5 700.056C1229.76 699.846 1229.83 699.468 1229.65 699.182C1226.08 693.428 1222.28 687.7 1218.28 682.013C1217.62 681.08 1216.75 680.669 1215.78 680.173C1215.53 680.047 1215.35 679.854 1215.22 679.594C1214.42 677.956 1213.29 676.284 1211.8 674.57C1205.86 667.708 1199.9 660.853 1193.93 654.024C1188.74 648.094 1183.48 642.684 1178 637.09C1173.93 632.932 1170.15 628.79 1166.69 624.658C1161.62 618.593 1156.65 612.587 1151.16 606.682C1146.21 601.348 1141.28 595.988 1136.38 590.604C1135.44 589.571 1134.42 588.605 1133.32 587.706C1133.1 587.53 1132.85 587.429 1132.57 587.404C1131.03 587.269 1129.55 586.95 1128.1 586.446C1127.83 586.354 1127.57 586.362 1127.31 586.48C1119.11 590.134 1110.78 593.527 1102.35 596.644C1099.08 597.853 1096.35 599.752 1093.44 601.583C1091.37 602.893 1089.4 604.439 1087.56 606.228C1085.77 607.984 1083.96 609.722 1082.14 611.453C1080.21 613.284 1076.31 616.115 1070.42 619.937C1068.36 621.272 1065.81 622.499 1062.76 623.616C1063.87 626.069 1064.73 628.211 1064.68 631.05C1064.59 637.174 1064.89 643.28 1065.59 649.37C1066.23 654.906 1064.34 661.282 1061.91 666.044C1061.33 667.178 1060.91 668.993 1060.67 671.479C1060.49 673.252 1060.6 675.083 1061.01 676.973C1061.54 679.459 1062.33 681.794 1062.49 684.314C1062.74 688.262 1062.99 692.185 1063.21 696.083C1063 696.847 1063.15 697.225 1063.65 697.217C1068.47 697.057 1072.6 696.881 1076.01 696.688C1079.62 696.478 1082.85 696.536 1085.73 696.864C1090.52 697.393 1094.82 698.141 1098.64 699.098C1101.86 699.905 1105.6 701.56 1109.87 704.071C1111.81 705.214 1113.91 706.952 1116.15 709.279C1122.84 716.226 1127.22 720.678 1129.3 722.635C1132.06 725.239 1135 727.196 1138.12 728.515C1145.4 731.59 1153.48 733.597 1162.34 734.538C1163.99 734.714 1165.38 734.068 1166.52 732.606C1168.56 729.994 1170.57 727.339 1172.53 724.66C1173.12 723.862 1173.62 722.543 1174.3 721.854ZM1215.89 698.897C1216.13 698.023 1216.72 697.234 1217.08 696.385C1217.56 695.26 1218.3 694.806 1219.31 695.016C1219.57 695.075 1219.8 695.234 1219.94 695.453C1220.2 695.873 1220.28 696.318 1220.17 696.788C1220.11 697.082 1219.95 697.292 1219.69 697.435L1216.37 699.266C1216.29 699.308 1216.2 699.317 1216.13 699.3C1215.95 699.25 1215.85 699.073 1215.89 698.897Z" fill="var(--fill-0, #E5E5E5)"/>
<path d="M97.7004 596.778C95.8104 596.333 94.122 596.341 92.6352 596.803C89.4852 599.819 87.192 602.146 85.7724 603.784C85.1088 604.548 84.2436 605.993 83.1936 608.101C87.0324 607.244 89.7624 606.295 91.392 605.254C94.1892 603.448 96.2976 600.625 97.7004 596.778Z" fill="var(--fill-0, #E5E5E5)"/>
<path d="M60.2028 611.024C59.9424 609.479 59.7072 605.287 57.7416 604.565C55.6248 603.775 53.4996 602.986 51.3744 602.188C49.2492 601.39 47.2836 600.995 45.4776 600.986C42.4368 600.97 39.4884 601.322 36.6408 602.045C36.3384 602.12 36.0444 602.238 35.7756 602.398C34.6416 603.061 34.062 603.851 34.0536 604.75C34.0032 607.69 33.9528 610.63 33.9024 613.561C33.894 614.258 33.9444 614.771 34.0536 615.082C34.3056 615.762 35.0616 616.123 35.7588 615.888C37.0524 615.451 38.4468 615.157 39.9336 615.006C46.1748 614.376 52.458 613.679 58.7916 612.914C59.9256 612.78 60.396 612.15 60.2028 611.024Z" fill="var(--fill-0, #E5E5E5)"/>
<path d="M1237.4 617.123C1237.13 614.124 1236.87 611.1 1236.64 608.051C1236.61 607.765 1236.5 607.53 1236.27 607.354C1235.57 606.791 1234.77 606.404 1233.87 606.178C1233.52 606.094 1233.19 606.136 1232.87 606.312L1229.42 608.236C1229.13 608.404 1228.93 608.681 1228.88 609.008C1228.37 612.108 1229.09 615.367 1230.94 617.82C1232.23 619.534 1237.74 620.97 1237.4 617.123Z" fill="var(--fill-0, #E5E5E5)"/>
<path d="M1393.71 638.711C1393.7 638.635 1393.69 638.576 1393.68 638.509C1393.68 638.946 1393.68 639.391 1393.67 639.828C1393.69 639.114 1393.71 638.736 1393.71 638.711Z" fill="var(--fill-0, #E5E5E5)"/>
<path d="M1397.53 622.264C1397.5 620.978 1397.76 619.769 1398.31 618.652L1397.93 617.879C1397.31 621.709 1396.24 625.195 1394.73 628.328C1393.86 630.118 1394.57 632.386 1393.21 633.889C1392.52 634.645 1391.83 636.149 1391.54 637.098C1390.24 641.256 1388.84 645.389 1387.32 649.48C1387.15 649.942 1386.61 650.782 1385.71 652C1387.53 652.747 1388.61 652.512 1388.94 651.294C1388.17 646.934 1389.95 645.246 1391.28 641.558C1391.68 640.441 1392.07 639.433 1392.47 638.534C1393.07 637.157 1393.48 637.157 1393.68 638.509C1393.69 636.98 1393.71 635.46 1393.71 633.931C1393.71 633.444 1394.16 632.495 1395.08 631.084C1394.8 630.185 1395.03 629.177 1395.76 628.06C1395.94 627.782 1396.2 627.648 1396.53 627.64L1397.91 627.606C1398.6 627.589 1398.89 627.245 1398.76 626.564C1398.47 624.985 1397.56 623.599 1397.53 622.264Z" fill="var(--fill-0, #E5E5E5)"/>
<path d="M1032.81 634.687C1035.89 636.367 1038.56 638.316 1041.22 640.97C1043.52 643.255 1045.8 645.548 1048.08 647.858C1049.44 649.236 1050.6 650.84 1051.83 652.361C1054.51 655.687 1056.06 660.198 1057.55 664.196C1059.54 659.778 1060.67 656.057 1060.92 653.033C1061.06 651.244 1060.95 648.766 1060.57 645.599C1060.23 642.844 1060.06 640.382 1060.06 638.207C1060.06 636.233 1060.06 634.259 1060.04 632.285C1060.01 629.933 1059.38 628.152 1058.53 626.052C1058.25 625.96 1057.87 626.094 1057.38 626.464C1056.98 626.774 1056.65 626.993 1056.41 627.119C1052.09 629.294 1047.65 631.176 1043.09 632.78C1039.87 633.906 1036.11 633.444 1033.08 633.528C1031.56 633.57 1031.47 633.956 1032.81 634.687Z" fill="var(--fill-0, #E5E5E5)"/>
<path d="M1055.86 675.805C1055.64 672.521 1055.86 669.312 1056.51 666.187C1054.72 663.474 1053.26 660.727 1052.13 657.938C1051.53 656.435 1050.92 655.326 1050.33 654.595C1046.4 649.782 1042.11 645.33 1037.45 641.231C1035.41 639.442 1033.24 637.829 1030.93 636.392C1029.58 635.552 1027.31 633.31 1025.86 633.066C1023.5 632.671 1020.93 632.083 1018.16 631.302C1011.38 634.519 1006.71 637.064 1004.18 638.921C1000.99 641.239 995.543 646.111 987.806 653.528C990.688 656.468 991.301 659.308 989.646 662.046C989.251 662.71 989.369 663.55 989.932 664.07C994.896 668.657 999.088 673.789 1003.57 678.804C1005.23 680.652 1007.03 682.399 1008.98 684.037C1012.42 686.91 1015.06 689.85 1019.76 691.253C1023.91 692.496 1027.06 693.05 1029.21 692.924C1031.26 692.807 1033.31 692.698 1035.37 692.597C1037.61 692.496 1039.66 692.563 1041.51 692.79C1047.25 693.512 1052.88 694.848 1058.4 696.797C1058.22 692.857 1058.01 688.934 1057.74 685.045C1057.53 681.82 1056.06 678.922 1055.86 675.805ZM1051.94 668.464C1049.48 670.085 1046.36 667.556 1044.93 665.675C1043.47 663.785 1042.03 662.071 1040.58 660.542C1040.14 660.08 1039.47 659.912 1038.87 660.122C1036.86 660.828 1035.17 661.072 1033.05 660.349C1029.04 658.997 1026.31 657.737 1024.86 656.569C1021.54 653.923 1018.33 651.319 1015.22 648.766C1013.54 647.396 1012.54 646.086 1012.23 644.851C1011.36 641.483 1013.14 638.845 1016.3 637.249C1017.36 636.712 1018.53 636.502 1019.82 636.611C1021.96 636.804 1024.14 637.073 1026.34 637.417C1027.72 637.644 1028.98 638.182 1030.12 639.03C1033.2 641.357 1034.6 643.919 1036.59 646.775C1037.74 648.413 1039.04 649.891 1040.48 651.193C1043.13 653.579 1045.83 655.889 1048.6 658.123C1049.75 659.056 1050.63 660.047 1051.24 661.097C1052.44 663.172 1054.75 666.632 1051.94 668.464Z" fill="var(--fill-0, #E5E5E5)"/>
<path d="M150.242 634.393C150.2 634.141 150.058 634.049 149.814 634.124C148.848 634.402 148.025 634.838 147.336 635.426C146.908 635.796 146.723 636.384 146.874 636.93C147.311 638.568 147.504 640.223 148.084 641.836C148.848 643.944 149.495 646.094 150.024 648.27C150.301 649.404 150.94 650.378 152.191 650.084C152.46 650.017 152.662 649.79 152.695 649.513C152.83 648.329 152.804 647.296 152.611 646.422C151.813 642.734 151.024 638.719 150.242 634.393Z" fill="var(--fill-0, #E5E5E5)"/>
<path d="M1025.68 647.455C1025.38 645.347 1024.46 643.188 1022.94 640.996C1021.95 639.576 1020.68 638.845 1019.13 638.812C1017.13 638.761 1015.67 639.71 1014.74 641.651C1014.4 642.348 1014.49 642.961 1015.01 643.482C1017.96 646.43 1020.74 649.219 1023.34 651.865C1023.83 652.369 1024.4 652.655 1025.04 652.73C1025.14 652.739 1025.25 652.739 1025.35 652.722C1025.98 652.613 1026.4 652.025 1026.29 651.403C1026.07 650.076 1025.87 648.757 1025.68 647.455Z" fill="var(--fill-0, #E5E5E5)"/>
<path d="M1031.55 647.136C1030.71 646.304 1030.14 645.834 1029.83 645.733C1028.68 645.364 1027.82 645.624 1027.24 646.514C1026.06 648.346 1028.01 651.16 1028.94 653.075C1029.71 654.662 1029.6 655.46 1031.44 656.124C1033.43 656.838 1035.42 657.552 1037.41 658.258C1038.84 658.762 1040.21 658.762 1041.49 658.258C1041.57 658.224 1041.65 658.174 1041.71 658.115C1041.95 657.871 1041.94 657.476 1041.7 657.233C1038.3 653.915 1034.91 650.555 1031.55 647.136Z" fill="var(--fill-0, #E5E5E5)"/>
<path d="M984.841 656.25C983.17 657.191 981.826 658.358 980.826 659.753C982.313 660.601 983.741 661.03 985.11 661.055C985.396 661.055 985.622 660.946 985.782 660.71C986.908 659.03 986.597 657.544 984.841 656.25Z" fill="var(--fill-0, #E5E5E5)"/>
<path d="M22.3944 667.279L27.7032 663.608C27.8712 663.499 27.9132 663.348 27.8376 663.155L26.0484 658.678C26.0484 658.678 26.04 658.661 26.0316 658.652C25.9896 658.594 25.9056 658.577 25.8468 658.619L22.0164 661.374C21.7812 661.542 21.4956 661.643 21.2016 661.651C18.9756 661.727 16.9344 660.853 14.7672 661.122C13.0788 661.332 11.5332 661.828 10.122 662.609C9.912 662.735 9.7692 662.945 9.7356 663.18L9.6264 664.154C9.6264 664.154 9.6096 664.23 9.5928 664.264C9.5004 664.499 9.2316 664.616 9.0048 664.524L0 660.954V663.86C4.6956 667.187 10.6596 669.144 17.892 669.74L22.3944 667.279Z" fill="var(--fill-0, #E5E5E5)"/>
<path d="M1261.02 681.022C1260.92 680.593 1260.66 680.484 1260.27 680.711C1258.57 681.694 1257.42 682.517 1256.82 683.172C1255.17 684.986 1255.46 685.39 1257.7 684.373C1258.28 684.113 1259.29 683.55 1260.72 682.702C1261.15 682.45 1261.3 682.088 1261.18 681.61L1261.02 681.022Z" fill="var(--fill-0, #E5E5E5)"/>
<path d="M1254.88 688.296L1252.4 687.12C1252.14 686.994 1251.89 687.019 1251.67 687.196C1248.89 689.304 1245.98 691.211 1242.94 692.899C1241.07 693.949 1239.45 695.024 1238.1 696.125C1236.56 697.376 1235.04 698.603 1233.55 699.812C1233.26 700.039 1233.19 700.442 1233.37 700.753L1243.98 719.225L1248.96 713.278C1249.57 712.547 1249.99 711.69 1250.19 710.766C1251.22 705.97 1252.31 700.955 1253.48 695.73C1253.71 694.697 1254.52 692.723 1255.92 689.8C1256.22 689.161 1255.88 688.657 1254.88 688.296Z" fill="var(--fill-0, #E5E5E5)"/>
<path d="M138.499 700.82C138.146 700.064 136.072 700.274 133.854 701.299L133.627 701.408C131.41 702.433 129.898 703.878 130.25 704.634L130.276 704.684C130.309 704.752 130.393 704.785 130.46 704.752L138.449 701.064C138.516 701.03 138.55 700.946 138.516 700.871L138.491 700.82H138.499Z" fill="var(--fill-0, #E5E5E5)"/>
<path d="M1231.49 702.82C1231.16 702.425 1230.57 702.374 1230.19 702.702C1222.85 708.742 1215.51 714.689 1208.17 720.535C1205.93 722.324 1203.69 723.492 1201.43 724.055C1199.32 724.584 1197.61 725.222 1196.32 725.978C1196.78 727.6 1197.53 729.07 1198.55 730.388C1198.6 730.472 1198.65 730.565 1198.66 730.666C1198.71 730.985 1198.48 731.287 1198.16 731.329C1197.08 731.48 1196.11 731.489 1195.08 730.96C1193.47 730.12 1190.97 728.137 1189.2 728.171C1187.57 728.196 1186.27 728.918 1184.5 728.809C1184.22 728.792 1184 728.658 1183.85 728.406C1183.54 727.852 1183.72 727.39 1184.4 727.028C1185.11 726.642 1185.82 726.172 1186.5 725.617L1176.65 723.962C1176.4 723.92 1176.16 724.021 1176.02 724.214L1168.88 733.916C1168.83 733.975 1168.81 734.051 1168.81 734.126C1168.81 734.32 1168.97 734.471 1169.16 734.462C1176.1 734.294 1183.07 734.261 1190.07 734.362C1194.51 734.429 1198.89 735.008 1203.19 736.109C1207.62 737.243 1212.12 738.52 1216.71 739.939C1217.19 740.023 1217.8 739.796 1218.53 739.267C1226.67 733.396 1234.5 727.297 1242.02 720.972L1231.59 702.962C1231.57 702.912 1231.53 702.87 1231.49 702.82Z" fill="var(--fill-0, #E5E5E5)"/>
<path d="M32.2392 730.422C29.6604 731.312 27.3756 731.926 25.3764 732.262C23.5116 732.581 23.4276 733.16 25.1244 734.009L28.4256 735.647C28.7868 735.832 29.2236 735.781 29.5428 735.529C31.1304 734.261 32.2224 732.749 32.8272 731.002C33.0288 730.414 32.8272 730.22 32.2392 730.422Z" fill="var(--fill-0, #E5E5E5)"/>
<path d="M27.384 744.265C27.0984 744.148 26.7792 744.173 26.5188 744.341L17.1948 750.355C17.1948 750.355 17.1444 750.397 17.1192 750.414C16.9008 750.616 16.8924 750.96 17.094 751.17C17.9424 752.06 18.5136 752.774 18.8076 753.304C19.5552 754.673 19.8996 754.572 19.8408 753.018C19.7736 751.346 19.7652 749.666 21.6468 748.868C23.3772 748.129 25.1412 747.491 26.9472 746.962C27.0564 746.928 27.1488 746.878 27.216 746.81C27.3504 746.684 27.4512 746.55 27.5268 746.399C27.6024 746.239 27.7116 746.113 27.846 746.004C28.7112 745.34 28.5516 744.761 27.384 744.265Z" fill="var(--fill-0, #E5E5E5)"/>
<path d="M67.7544 745.433L67.5108 745.332C67.41 745.29 67.2924 745.332 67.242 745.433C66.6456 746.668 65.8896 747.81 64.9572 748.86C62.2776 751.892 59.64 755.009 57.036 758.209C56.7168 758.604 56.3724 759.259 56.0112 760.158C55.9104 760.418 55.8852 760.687 55.9272 760.964C56.1624 762.367 56.3724 763.778 56.5488 765.181C56.6244 765.752 56.868 766.122 57.2796 766.29C57.6072 766.416 57.9768 766.273 58.1196 765.954C58.4472 765.257 58.8588 764.551 59.3712 763.82C60.9756 761.527 62.5548 759.226 64.1088 756.907C66.2508 753.732 66.8808 749.7 68.0484 746.071C68.1492 745.76 68.0484 745.55 67.7544 745.433Z" fill="var(--fill-0, #E5E5E5)"/>
<path d="M58.8084 772.884C57.7248 772.229 56.616 771.742 55.482 771.431C54.852 771.254 54.1716 771.431 53.718 771.901L44.1336 781.645C44.0076 781.771 43.9656 781.914 43.9908 782.082L44.9484 788.172C44.9484 788.222 44.9736 788.231 45.0072 788.189C47.922 784.568 50.82 781.368 53.6844 778.604C54.6 777.714 54.3564 775.614 54.4236 774.64C54.516 773.077 54.8604 773.018 55.4484 774.472C55.5996 774.85 55.6836 775.513 55.7088 776.446C55.7088 776.546 55.7424 776.639 55.7844 776.723C55.944 777.017 56.3136 777.118 56.5992 776.958C57.7752 776.32 58.5984 775.194 59.0772 773.573C59.1528 773.304 59.0436 773.018 58.8084 772.884Z" fill="var(--fill-0, #E5E5E5)"/>
<path d="M715.957 833.095C715.579 833.246 715.327 833.549 715.21 834.002C715.134 834.263 715 834.49 714.806 834.683C713.857 835.582 712.832 836.38 711.724 837.077C711.488 837.22 711.371 837.438 711.362 837.715C711.22 846.115 711.304 854.465 711.614 862.756C711.614 862.991 711.656 863.218 711.724 863.444C712.513 866.158 713.303 868.795 714.092 871.34C714.101 871.374 714.126 871.382 714.16 871.374L714.361 871.324C714.538 871.282 714.613 871.164 714.58 870.988C713.462 864.62 712.942 858.203 713.026 851.743C713.051 849.971 713.244 847.997 713.622 845.821C714.16 842.772 714.479 839.664 715.411 836.674C715.739 835.598 716.033 834.498 716.293 833.381C716.36 833.078 716.251 832.986 715.957 833.095Z" fill="var(--fill-0, #E5E5E5)"/>
<path d="M214.687 842.436L210.924 839.899C210.428 839.563 210.244 839.689 210.37 840.277C210.865 842.554 211.529 844.889 212.36 847.283C212.604 847.997 212.545 848.954 212.176 850.164C211.848 851.239 211.688 852.146 211.68 852.894C211.68 854.213 211.84 855.431 211.445 856.724C210.748 859.018 211.176 861.638 209.429 863.612C208.303 864.898 207.631 865.687 207.421 865.99C206.363 867.527 205.254 869.022 204.086 870.492C204.019 870.576 203.986 870.652 203.986 870.727C203.986 870.811 204.002 870.887 204.044 870.954C204.187 871.172 204.355 871.206 204.557 871.046C205.624 870.232 206.438 869.266 207.001 868.148C207.48 867.216 208.11 866.368 208.891 865.612C211.806 862.789 212.696 860.429 214.015 857.086C214.393 856.136 214.595 855.028 214.628 853.759C214.654 852.516 214.805 851.29 215.065 850.08C215.334 848.854 215.468 847.82 215.468 846.98C215.468 845.83 215.468 844.788 215.452 843.839C215.443 843.234 215.183 842.764 214.687 842.436Z" fill="var(--fill-0, #E5E5E5)"/>
<path d="M1429.24 850.769C1429.13 850.651 1429 850.567 1428.85 850.508C1428.28 850.282 1427.64 850.567 1427.41 851.13L1426.12 854.448C1425.93 854.952 1426.12 855.523 1426.58 855.8L1430.91 858.421C1431.39 858.715 1432.01 858.598 1432.35 858.161L1433.56 856.624C1433.91 856.187 1433.87 855.565 1433.49 855.17L1429.24 850.769Z" fill="var(--fill-0, #E5E5E5)"/>
<path d="M328.163 853.784L325.71 852.239C325.374 852.029 324.937 852.113 324.702 852.424L321.292 856.926C321.191 857.06 321.14 857.22 321.14 857.38L321.098 861.689C321.098 861.916 321.199 862.134 321.376 862.277C321.703 862.537 322.174 862.487 322.442 862.168L328.348 854.902C328.348 854.902 328.381 854.851 328.398 854.826C328.616 854.473 328.516 854.003 328.163 853.784Z" fill="var(--fill-0, #E5E5E5)"/>
<path d="M50.6268 862.705C50.5596 862.646 50.4756 862.621 50.3832 862.63L40.278 863.722C40.11 863.722 39.9672 863.873 39.9756 864.041C39.9756 864.209 40.1268 864.352 40.2948 864.343L52.2144 864.923C52.3068 864.923 52.3908 864.889 52.458 864.822C52.5756 864.696 52.5672 864.503 52.4412 864.385L50.6268 862.705Z" fill="var(--fill-0, #E5E5E5)"/>
<path d="M164.766 875.011C163.691 874.448 162.708 873.768 161.809 872.97C158.819 870.307 157.181 872.365 154.669 874.012C154.258 874.28 153.98 874.574 153.846 874.885C153.619 875.431 153.703 875.868 154.106 876.179C156.71 874.818 159.104 874.448 161.28 875.062C163.019 875.557 164.354 875.792 165.287 875.767L165.144 875.431C165.068 875.246 164.942 875.104 164.766 875.011Z" fill="var(--fill-0, #E5E5E5)"/>
<path d="M202.65 872.432C201.264 872.684 199.744 872.735 198.072 872.584C197.434 872.525 196.837 872.894 196.602 873.491L194.754 878.094C194.645 878.371 194.435 878.548 194.141 878.615C193.469 878.766 193.082 878.472 192.99 877.741C192.78 876.044 191.78 875.372 190.184 875.944C188.748 876.473 187.27 876.893 185.766 877.212C184.506 877.489 182.776 877.321 180.575 876.716C179.399 876.397 177.727 876.38 175.56 876.658C175.35 876.683 175.241 876.809 175.232 877.019C175.232 877.111 175.249 877.195 175.283 877.279C175.392 877.54 175.577 877.691 175.854 877.75C177.475 878.094 178.324 879.094 178.416 880.748C178.441 881.261 178.685 881.395 179.147 881.152C180.491 880.429 181.961 880.177 183.565 880.404C184.17 880.144 184.8 880.076 185.447 880.202C185.993 880.312 186.413 880.228 186.707 879.942C186.9 879.749 187.135 879.656 187.396 879.648C190.394 879.556 193.099 879.908 195.502 880.69C196.3 880.95 196.946 881.118 197.45 881.194C197.728 881.236 197.938 881.143 198.097 880.908L203.188 873.239C203.633 872.558 203.456 872.29 202.65 872.432Z" fill="var(--fill-0, #E5E5E5)"/>
<path d="M100.834 903.983C101.237 903.664 101.312 903.076 100.993 902.672L99.1788 900.32C98.9688 900.052 98.6328 899.917 98.2968 899.968L92.9964 900.833C92.5512 900.908 92.2152 901.295 92.2152 901.748V905.05C92.2152 905.125 92.232 905.201 92.2488 905.276C92.3748 905.772 92.8788 906.083 93.3828 905.957L100.489 904.151C100.615 904.117 100.733 904.058 100.834 903.983Z" fill="var(--fill-0, #E5E5E5)"/>
<path d="M101.413 906.318L98.0112 908.93C97.9188 908.998 97.86 909.098 97.8348 909.208C97.776 909.468 97.9356 909.72 98.196 909.779L101.48 910.535C101.48 910.535 101.548 910.543 101.581 910.543C101.842 910.543 102.068 910.342 102.068 910.081L102.186 906.713C102.186 906.604 102.152 906.486 102.085 906.402C101.926 906.192 101.623 906.158 101.413 906.318Z" fill="var(--fill-0, #E5E5E5)"/>
</g>
</g>
<defs>
<clipPath id="clip0_0_218">
<rect width="1512" height="910.552" fill="white"/>
</clipPath>
</defs>
</svg>
