<svg preserveAspectRatio="none" width="100%" height="100%" overflow="visible" style="display: block;" viewBox="0 0 48 48" fill="none" xmlns="http://www.w3.org/2000/svg">
<g id="Topical Icons">
<g id="icon/online payments">
<path d="M10.3728 1.72412H16.9415C16.9415 1.72412 17.278 1.65168 17.3219 1.57923L18.1704 0.130395V0H9.3049L10.1534 1.47781C10.1534 1.47781 10.3289 1.68065 10.3728 1.70963V1.72412Z" fill="var(--fill-0, #1E4ED8)"/>
<path d="M14.9368 29.6722C13.3129 26.1081 13.2836 22.0658 14.8783 18.4727C17.1605 13.4742 21.9882 10.3447 27.5182 10.3157V3.34682C27.5182 1.47781 25.9967 0.0869303 24.2119 0H21.2567L21.0519 0.173861L19.0184 3.66556L18.6381 3.70902H8.64606L8.41198 3.53516L6.49552 0.231814L6.31997 0H3.29165C1.41907 0.101419 0 1.55026 0 3.41926V44.6966C0 46.4787 1.49221 48 3.29165 48H24.1826C26.0698 47.9276 27.5036 46.4787 27.5036 44.6097V37.6843C22.0321 37.6553 17.2336 34.5838 14.9221 29.6722H14.9368Z" fill="var(--fill-0, #1E4ED8)"/>
<path d="M35.8865 3.73801C35.4038 3.73801 34.9941 4.05676 34.804 4.49141C34.6284 4.88259 34.6869 5.36071 34.9503 5.70843C35.1697 6.01269 35.5793 6.23001 36.0328 6.23001C38.315 6.2445 40.451 7.04136 42.1773 8.51918L43.1867 9.53336C45.9663 12.7353 45.2202 15.7344 45.7322 16.4009C46.0833 16.8645 46.61 17.0239 47.1366 16.8645C47.5902 16.7196 47.9998 16.2849 47.9998 15.7199C48.029 9.1132 42.5722 3.70903 35.8865 3.7525V3.73801Z" fill="var(--fill-0, #1E4ED8)"/>
<path d="M35.915 8.80887C35.1981 8.80887 34.7007 9.41738 34.7007 10.0549C34.7007 10.6924 35.2127 11.2864 35.915 11.3009C38.402 11.3154 40.3477 13.2568 40.377 15.7198C40.377 16.4153 40.9914 16.9224 41.6351 16.9224C42.2057 16.9224 42.864 16.4877 42.8786 15.7488C42.9225 11.8804 39.7771 8.80887 35.9296 8.82336L35.915 8.80887Z" fill="var(--fill-0, #1E4ED8)"/>
<path d="M27.5171 12.8367C21.285 12.8367 16.2378 17.8352 16.2378 24.0072C16.2378 30.1793 21.285 35.1778 27.5171 35.1778C33.7493 35.1778 38.7966 30.1793 38.7966 24.0072C38.7966 17.8352 33.7493 12.8367 27.5171 12.8367ZM32.4766 27.2381C32.4766 29.0347 31.3648 30.1068 29.4775 30.2952V31.2804C29.4775 31.7151 29.2874 31.9179 28.8338 31.9179H26.259C25.8201 31.9179 25.6153 31.7295 25.6153 31.2804V30.3387H23.1868C22.7479 30.3387 22.5431 30.1503 22.5431 29.7012V27.6438C22.5431 27.2092 22.7333 27.0063 23.1868 27.0063H27.9561C28.2633 27.0063 28.4096 26.7745 28.4096 26.4992C28.4096 26.0936 28.2487 25.9342 27.9561 25.9052L25.2935 25.543C23.6257 25.2967 22.5431 24.6013 22.5431 22.6308V20.7908C22.5431 18.9653 23.6842 17.9076 25.6153 17.7338V16.7486C25.6153 16.3139 25.8055 16.1111 26.259 16.1111H28.8338C29.2727 16.1111 29.4775 16.2994 29.4775 16.7486V17.6903H31.2038C31.6427 17.6903 31.8475 17.8787 31.8475 18.3278V20.4141C31.8475 20.8488 31.6573 21.0516 31.2038 21.0516H27.0783C26.7711 21.0516 26.5955 21.2689 26.5955 21.5732C26.5955 21.8774 26.7711 22.0948 27.0783 22.1382L29.7262 22.486C31.394 22.7323 32.4912 23.4277 32.4912 25.3981V27.2381H32.4766Z" fill="var(--fill-0, #1E4ED8)"/>
</g>
</g>
</svg>
