<svg preserveAspectRatio="none" width="100%" height="100%" overflow="visible" style="display: block;" viewBox="0 0 48 48" fill="none" xmlns="http://www.w3.org/2000/svg">
<g id="Topical Icons">
<g id="Vector">
<path d="M46.9189 1.08108C46.2559 0.418018 45.3333 0 44.3099 0H3.69009C1.64324 0 0 1.65766 0 3.69009V44.3099C0 45.3333 0.418018 46.2559 1.08108 46.9189C1.74414 47.582 2.66666 48 3.69009 48H44.3099C46.3423 48 48 46.3568 48 44.3099V3.69009C48 2.66667 47.582 1.74414 46.9189 1.08108ZM1.44144 3.69009C1.44144 2.45045 2.45045 1.44144 3.69009 1.44144H44.3099C44.3099 1.44144 44.4396 1.44144 44.5117 1.44144L1.45585 44.4973C1.45585 44.4973 1.45585 44.3676 1.45585 44.2955V3.69009H1.44144ZM31.5964 40.0144C28.3676 40.0144 25.5567 38.2991 24 35.7189C25.0955 36.1946 26.2919 36.4685 27.5604 36.4685C32.4757 36.4685 36.454 32.4901 36.454 27.5748C36.454 25.8883 35.9784 24.3171 35.1568 22.9766C38.2991 24.3459 40.4901 27.4739 40.4901 31.1207C40.4901 36.036 36.5117 40.0144 31.5964 40.0144Z" fill="var(--fill-0, #1E4ED8)"/>
<path d="M13.0298 23.1207L23.4082 12.7423C22.0532 11.0558 19.9631 9.96034 17.628 9.96034C13.5487 9.96034 10.2334 13.2612 10.2334 17.3549C10.2334 19.7045 11.3289 21.7802 13.0442 23.1207H13.0298Z" fill="var(--fill-0, #1E4ED8)"/>
<path d="M9.80223 23.9712L8.25988 25.5136C7.92835 25.8451 7.92835 26.3784 8.25988 26.7099C8.41844 26.8685 8.63466 26.955 8.85088 26.955C9.06709 26.955 9.28331 26.8685 9.44187 26.7099L10.9842 25.1676C11.3157 24.8361 11.3157 24.3027 10.9842 23.9712C10.6527 23.6397 10.1193 23.6397 9.7878 23.9712H9.80223Z" fill="var(--fill-0, #1E4ED8)"/>
<path d="M5.23203 18.1909H7.4086C7.86986 18.1909 8.24464 17.8162 8.24464 17.3549C8.24464 16.8936 7.86986 16.5189 7.4086 16.5189H5.23203C4.77077 16.5189 4.396 16.8936 4.396 17.3549C4.396 17.8162 4.77077 18.1909 5.23203 18.1909Z" fill="var(--fill-0, #1E4ED8)"/>
<path d="M9.80199 10.7243C9.96055 10.8829 10.1767 10.9694 10.393 10.9694C10.6092 10.9694 10.8254 10.8829 10.984 10.7243C11.3155 10.3928 11.3155 9.85944 10.984 9.52791L9.44163 7.98557C9.1101 7.65404 8.57676 7.65404 8.24523 7.98557C7.9137 8.3171 7.9137 8.85044 8.24523 9.18197L9.78756 10.7243H9.80199Z" fill="var(--fill-0, #1E4ED8)"/>
<path d="M17.6144 7.97122C18.0756 7.97122 18.4504 7.59644 18.4504 7.13518V4.95861C18.4504 4.49735 18.0756 4.12257 17.6144 4.12257C17.1531 4.12257 16.7783 4.49735 16.7783 4.95861V7.13518C16.7783 7.59644 17.1531 7.97122 17.6144 7.97122Z" fill="var(--fill-0, #1E4ED8)"/>
<path d="M24.8365 10.9694C25.0527 10.9694 25.2689 10.8829 25.4275 10.7243L26.9698 9.18197C27.3013 8.85044 27.3013 8.3171 26.9698 7.98557C26.6383 7.65404 26.105 7.65404 25.7734 7.98557L24.2311 9.52791C23.8995 9.85944 23.8995 10.3928 24.2311 10.7243C24.3896 10.8829 24.6059 10.9694 24.8221 10.9694H24.8365Z" fill="var(--fill-0, #1E4ED8)"/>
</g>
</g>
</svg>
