<svg preserveAspectRatio="none" width="100%" height="100%" overflow="visible" style="display: block;" viewBox="0 0 96 24" fill="none" xmlns="http://www.w3.org/2000/svg">
<g id="Logo">
<path id="Vector" d="M8.58506 23.9999V5.05304H0L2.76926 0.00311088H86.2614L89.0306 5.05304H17.5158V23.9999H8.58848H8.58506Z" fill="var(--fill-0, #F5A623)"/>
<path id="Vector_2" d="M41.9256 24L39.348 18.9983C39.8888 18.8826 40.3475 18.6192 40.7275 18.2048C41.2546 17.6298 41.5182 16.9198 41.5182 16.075V9.84928C41.5182 8.98835 41.2546 8.27198 40.7275 7.70659C40.2003 7.1412 39.5192 6.8553 38.6874 6.8553H19.4257V23.9968H28.2025V19.0657H30.448L32.7175 23.9968H41.9256V24ZM28.2025 10.8323H31.3654C31.8241 10.8323 32.1459 11.0282 32.3341 11.4202C32.5224 11.8121 32.6148 12.3261 32.6148 12.9653C32.6148 13.6046 32.5224 14.1379 32.3341 14.5201C32.1459 14.9024 31.8241 15.0952 31.3654 15.0952H28.2025V10.8323Z" fill="var(--fill-0, #F5A623)"/>
<path id="Vector_3" d="M46.2627 24C45.4481 24 44.7703 23.7141 44.2363 23.1391C43.7023 22.564 43.4319 21.8541 43.4319 21.0092V6.86172H52.3353V17.3053C52.3353 18.0088 52.5646 18.51 53.0233 18.8119C53.482 19.1139 54.1016 19.2681 54.8855 19.2681C55.6693 19.2681 56.2786 19.1203 56.7236 18.8248C57.1652 18.5292 57.3877 18.0313 57.3877 17.3278V6.85851H65.5517V21.006C65.5517 21.8509 65.2847 22.5608 64.7473 23.1358C64.2133 23.7109 63.5356 23.9968 62.7209 23.9968H46.2662L46.2627 24Z" fill="var(--fill-0, #F5A623)"/>
<path id="Vector_4" d="M89.5611 24H81.2122L79.5281 21.7738L78.1246 19.9074H78.0253L76.9813 21.3658L76.6732 21.7963L75.8756 22.8724L75.037 24H65.9042L72.6922 15.3329L66.113 6.85851H74.2565L75.7866 8.8213L77.1114 10.5689H77.2141L78.2478 9.11363L78.4395 8.84379L79.3432 7.6327L79.9183 6.85851H89.051L82.5746 15.1401L89.5611 24Z" fill="var(--fill-0, #F5A623)"/>
<path id="Vector_5" d="M95.9998 2.52175C95.9998 3.22527 95.7397 3.81957 95.216 4.31428C94.6922 4.80578 94.0624 5.05314 93.3196 5.05314C92.5768 5.05314 91.9435 4.80578 91.4164 4.31107C90.8926 3.81957 90.6325 3.21885 90.6325 2.51533C90.6325 2.12662 90.718 1.77004 90.8858 1.4488C91.0569 1.10829 91.2965 0.819168 91.6012 0.581448C92.101 0.192745 92.6623 0 93.2853 0C93.6995 0 94.0727 0.0738858 94.4081 0.218445C94.8839 0.414402 95.2673 0.722795 95.5583 1.14683C95.8492 1.57087 95.9964 2.03025 95.9964 2.52175H95.9998ZM93.299 0.369428C92.6863 0.369428 92.1626 0.581448 91.7244 1.00549C91.2829 1.42953 91.0638 1.93709 91.0638 2.52175C91.0638 3.10641 91.2829 3.63004 91.7244 4.05729C92.1626 4.48133 92.6932 4.69335 93.3196 4.69335C93.946 4.69335 94.4663 4.48133 94.9079 4.0605C95.346 3.63646 95.5651 3.12569 95.5651 2.52496C95.5651 2.20372 95.4795 1.87284 95.3084 1.53232C95.1372 1.21108 94.9147 0.957302 94.6306 0.767769C94.237 0.50435 93.792 0.372641 93.3025 0.372641L93.299 0.369428ZM93.5797 2.76589L94.5895 3.9834H93.8673L92.9465 2.83014V3.9834H92.3543V1.07295H92.9738C93.4086 1.07295 93.7235 1.14683 93.922 1.29139C94.1445 1.45844 94.2541 1.67688 94.2541 1.94994C94.2541 2.13305 94.1959 2.30009 94.0761 2.4575C93.9563 2.60849 93.8056 2.70807 93.6242 2.75947L93.5832 2.77232L93.5797 2.76589ZM92.9396 2.36434H93.0389C93.4633 2.36434 93.6756 2.22621 93.6756 1.95315C93.6756 1.69616 93.4702 1.57087 93.0594 1.57087H92.9396V2.36755V2.36434Z" fill="var(--fill-0, #F5A623)"/>
</g>
</svg>
